<svg width="360" height="235" viewBox="0 0 360 235" fill="none" xmlns="http://www.w3.org/2000/svg">
<g clip-path="url(#clip0)">
<path d="M180 234.121C279.411 234.121 360 229.424 360 223.631C360 217.837 279.411 213.141 180 213.141C80.5887 213.141 0 217.837 0 223.631C0 229.424 80.5887 234.121 180 234.121Z" fill="#F5F5F5"/>
<path d="M94.2238 66.9314L93.3883 66.56C94.131 64.7034 94.5951 63.2181 94.7808 61.9185L95.7091 62.0113C95.5234 63.4966 95.0593 65.0747 94.2238 66.9314ZM93.8525 56.3486C92.0887 52.3569 88.7467 49.8504 84.198 49.1078L84.3837 48.1794C89.2109 49.0149 92.8313 51.707 94.7808 55.8844L93.8525 56.3486Z" fill="#2579F2"/>
<path d="M89.0252 76.3074L79.8349 80.4848L79.4636 79.5565C78.721 77.9783 78.3496 76.6787 78.2568 75.5647C78.164 74.4507 78.2568 73.3368 78.6281 72.2228C78.9995 71.1088 79.9278 68.9737 81.4131 65.8174C82.2486 64.1465 82.4342 62.9396 82.0629 62.0113C81.6916 61.1759 81.1346 60.526 80.3919 60.3404C79.6493 60.0619 78.721 60.2475 77.6998 60.7117C76.5858 61.2687 75.7504 62.0113 75.379 63.1253C75.0077 64.2393 75.1005 65.7246 75.7504 67.674L65.9102 70.7375C64.7034 67.1171 64.7034 63.868 65.9102 60.7117C67.117 57.6483 69.9948 55.049 74.4507 53.0067C77.9783 51.4286 81.1346 50.8716 83.9195 51.3357C87.7256 51.9855 90.4177 53.935 91.903 57.1841C92.5528 58.5766 92.7385 60.0619 92.5528 61.64C92.3672 63.2181 91.5317 65.5389 90.0464 68.4167C89.0252 70.459 88.4683 71.9443 88.3754 72.8726C88.1898 73.8937 88.4683 75.0077 89.0252 76.3074ZM80.6704 82.9912L90.4177 78.5353L94.3166 87.1686L84.5693 91.6245L80.6704 82.9912Z" fill="#2579F2"/>
<path d="M66.3745 96.9159L61.7329 103.228L61.0831 102.764C59.9691 101.929 59.2264 101.186 58.7623 100.443C58.2981 99.7008 57.9268 98.8653 57.7411 98.0299C57.5555 97.1016 57.3698 95.3378 57.1841 92.6456C57.0913 91.2532 56.8128 90.232 56.163 89.8607C55.5132 89.3966 54.9562 89.2109 54.3064 89.3966C53.7494 89.4894 53.0996 89.9535 52.6354 90.6962C52.0784 91.4388 51.7999 92.3672 51.9856 93.2026C52.1713 94.1309 52.8211 95.0593 53.9351 96.1732L48.3652 102.022C46.1372 100.072 44.9304 97.7514 44.5591 95.2449C44.1878 92.6456 45.2089 89.8607 47.4369 86.7973C49.2007 84.3837 51.1501 82.8055 53.2852 82.0629C56.163 81.0417 58.6694 81.4131 60.9902 83.084C61.9185 83.7338 62.6612 84.6622 63.1254 85.869C63.5895 87.0758 63.868 88.8396 63.9608 91.4388C64.0537 93.2026 64.2393 94.4094 64.5178 95.1521C64.982 95.6163 65.539 96.2661 66.3745 96.9159ZM63.311 104.714L68.3239 97.937L74.2651 102.3L69.2522 109.077L63.311 104.714Z" fill="#2579F2"/>
<path d="M165.24 220.289C163.755 220.289 162.269 219.453 161.527 218.061C157.813 210.82 153.079 202.372 144.631 193.275C143.61 192.161 143.332 190.676 143.703 189.283C146.859 178.422 151.779 163.569 151.779 163.383C152.522 161.155 154.843 160.041 157.071 160.784C159.299 161.527 160.413 163.847 159.67 166.075C159.67 166.168 155.4 178.979 152.336 189.469C160.134 198.288 164.868 206.643 168.86 214.348C169.881 216.39 169.139 218.896 167.096 219.918C166.539 220.196 165.89 220.289 165.24 220.289Z" fill="#2579F2"/>
<path d="M172.109 223.631H139.897L156.978 213.976L171.367 214.533L172.109 223.631Z" fill="#263238"/>
<path d="M169.064 184.526C183.745 179.938 192.559 166.341 188.751 154.155C184.943 141.97 169.955 135.812 155.274 140.4C140.593 144.988 131.778 158.585 135.587 170.77C139.395 182.956 154.383 189.114 169.064 184.526Z" fill="#263238"/>
<path d="M88.654 147.323C86.983 147.323 85.4977 146.395 84.8479 144.724C84.0124 142.589 84.9407 140.175 87.0758 139.247C89.4894 138.226 89.8608 135.812 89.8608 135.719C90.0464 133.863 91.4389 132.378 93.2955 132.006C94.3167 131.821 95.245 131.542 96.359 131.264C102.022 129.593 108.984 127.55 130.985 133.77C152.708 121.609 152.893 98.8654 152.893 97.8443C152.893 95.5235 154.75 93.6669 157.071 93.6669C159.391 93.6669 161.248 95.5235 161.248 97.7515C161.248 98.9583 161.155 127.55 133.399 141.846C132.47 142.311 131.356 142.403 130.335 142.125C109.355 136.091 103.414 137.762 98.6798 139.154C98.2156 139.247 97.8443 139.433 97.3801 139.526C96.359 142.125 94.2238 145.188 90.3249 146.859C89.7679 147.231 89.211 147.323 88.654 147.323Z" fill="#263238"/>
<path d="M137.39 117.524C129.5 86.1475 108.427 5.10574 175.823 0.185679C236.349 -4.27023 252.965 76.3074 256.957 104.157C259.278 120.402 260.113 135.162 260.206 146.674C260.392 161.527 249.902 174.337 235.328 177.308C202.372 183.992 171.181 184.92 150.201 176.658C144.539 174.43 141.104 168.582 141.661 162.548C142.496 153.543 142.496 138.04 137.39 117.524Z" fill="#2579F2"/>
<path opacity="0.1" d="M256.957 104.157C253.151 77.8855 238.205 4.82723 185.756 0.185661C179.629 -0.371328 173.687 2.69211 170.81 8.07633C168.489 12.6251 168.582 18.1021 172.016 23.4863C183.528 41.4028 211.098 103.321 206.921 137.019C205.064 152.336 195.41 164.59 203.765 181.857C213.883 181.021 224.466 179.443 235.235 177.215C249.809 174.244 260.206 161.434 260.113 146.581C260.113 135.162 259.371 120.402 256.957 104.157Z" fill="black"/>
<path d="M247.953 147.138C247.767 147.138 247.581 146.952 247.581 146.766C247.396 132.378 246.282 118.174 244.332 104.25C234.306 34.9046 207.292 -0.092841 166.261 2.87776C166.075 2.87776 165.797 2.6921 165.797 2.50644C165.797 2.32077 165.983 2.04228 166.168 2.04228C207.664 -1.02115 235.049 34.3476 245.075 104.157C247.117 118.081 248.231 132.378 248.324 146.766C248.417 146.952 248.231 147.138 247.953 147.138Z" fill="#263238"/>
<path d="M247.327 186.765C262.008 182.177 270.822 168.579 267.014 156.394C263.206 144.209 248.218 138.05 233.537 142.638C218.856 147.227 210.041 160.824 213.85 173.009C217.658 185.194 232.646 191.353 247.327 186.765Z" fill="#263238"/>
<path d="M249.902 220.289C248.417 220.289 246.931 219.453 246.189 218.061C242.475 210.82 237.741 202.372 229.293 193.275C228.272 192.161 227.994 190.676 228.365 189.283C231.521 178.422 236.441 163.569 236.441 163.383C237.184 161.155 239.505 160.041 241.733 160.784C243.961 161.527 245.075 163.847 244.332 166.075C244.332 166.168 240.062 178.979 236.998 189.469C244.796 198.288 249.531 206.643 253.522 214.348C254.543 216.39 253.801 218.896 251.759 219.918C251.202 220.196 250.552 220.289 249.902 220.289Z" fill="#2579F2"/>
<path d="M241.176 93.3884C239.691 93.3884 238.205 92.5529 237.463 91.1604C236.442 89.1181 237.184 86.6117 239.227 85.4977C240.062 85.0335 258.164 75.1934 263.27 51.3358C251.202 46.3229 229.479 34.9046 224.745 29.1491C224.281 28.5921 224.002 27.9423 223.817 27.1996C223.724 26.5498 222.888 21.6297 224.745 16.9882L222.517 12.7179C221.496 10.6756 222.238 8.16918 224.281 7.14804C226.323 6.12689 228.829 6.86954 229.851 8.91183L233.007 15.0387C233.657 16.3383 233.657 17.9165 232.821 19.1233C231.8 20.7014 231.707 23.115 231.8 24.6003C237.184 29.4276 258.721 40.8458 269.304 44.8376C271.16 45.4874 272.274 47.4368 271.996 49.3863C267.262 79.835 244.054 92.3672 243.033 92.8314C242.476 93.2027 241.826 93.3884 241.176 93.3884Z" fill="#263238"/>
<path d="M227.901 28.5921C227.53 28.5921 227.158 28.4992 226.787 28.2207C225.859 27.5709 225.58 26.2713 226.137 25.343C226.323 25.1573 229.758 19.9587 234.956 18.5663C236.07 18.2878 237.184 18.9376 237.463 20.0516C237.741 21.1656 237.091 22.2795 235.977 22.558C232.357 23.5792 229.572 27.5709 229.572 27.6637C229.201 28.3136 228.551 28.5921 227.901 28.5921Z" fill="#263238"/>
<path d="M256.864 223.631H224.559L241.64 213.976L256.029 214.533L256.864 223.631Z" fill="#263238"/>
<path d="M189.183 99.2509C201.389 98.1707 210.496 88.3941 209.524 77.4142C208.552 66.4342 197.87 58.4089 185.664 59.4891C173.459 60.5693 164.352 70.3459 165.324 81.3258C166.295 92.3058 176.978 100.331 189.183 99.2509Z" fill="white"/>
<path d="M185.084 92.0296C188.339 91.1024 189.61 85.5544 187.924 79.6377C186.239 73.721 182.234 69.6762 178.98 70.6033C175.726 71.5305 174.454 77.0785 176.14 82.9952C177.826 88.9119 181.83 92.9567 185.084 92.0296Z" fill="#263238"/>
<path d="M162.176 83.1769C176.194 81.4131 203.95 73.4296 208.499 70.2733C204.879 59.6906 188.076 50.6859 173.13 55.7916C159.577 60.3404 162.176 83.1769 162.176 83.1769Z" fill="#263238"/>
<path d="M164.868 89.9536C182.228 86.6116 204.879 81.1346 211.377 77.5142C211.006 88.8396 207.664 100.351 189.933 104.25C175.451 107.406 164.868 89.9536 164.868 89.9536Z" fill="#263238"/>
<path d="M150.566 100.826C156.852 96.6672 157.682 86.8487 152.419 78.8956C147.157 70.9425 137.796 67.8665 131.511 72.0252C125.225 76.1839 124.396 86.0024 129.658 93.9555C134.92 101.909 144.281 104.985 150.566 100.826Z" fill="white"/>
<path d="M141.289 86.7045C142.31 91.7174 141.475 95.802 139.247 95.9876C137.112 96.1733 134.42 92.1815 133.398 87.2615C132.377 82.2486 133.213 78.164 135.441 77.9783C137.669 77.7927 140.268 81.6916 141.289 86.7045Z" fill="#263238"/>
<path d="M124.023 84.755C133.399 85.869 152.058 84.6622 155.214 82.8984C152.893 73.8938 141.753 63.6823 131.728 64.982C122.63 66.2816 124.023 84.755 124.023 84.755Z" fill="#263238"/>
<path d="M125.786 90.6034C137.483 91.1604 152.707 90.8819 157.071 89.2109C156.699 98.1228 154.286 106.663 142.403 106.478C132.656 106.385 125.786 90.6034 125.786 90.6034Z" fill="#263238"/>
<path d="M193.089 50.1289C175.544 50.1289 163.94 41.4956 163.29 41.0315C161.434 39.639 161.062 37.0397 162.455 35.1831C163.847 33.3265 166.447 32.9551 168.303 34.3476C168.489 34.5333 182.321 44.559 201.537 40.9386C203.765 40.4745 205.993 41.9598 206.364 44.2806C206.828 46.5085 205.343 48.7365 203.022 49.1078C199.587 49.8504 196.245 50.1289 193.089 50.1289Z" fill="#263238"/>
<path d="M118.638 42.9809C118.174 42.9809 117.71 42.8881 117.246 42.7024C115.111 41.9598 113.997 39.5462 114.739 37.411C116.967 31.2842 120.588 27.2924 125.601 25.5286C134.698 22.3724 144.446 28.4992 144.91 28.7777C146.859 29.9845 147.416 32.5838 146.209 34.5333C145.003 36.4827 142.403 37.0397 140.454 35.8329C138.597 34.6261 132.656 31.934 128.293 33.4193C125.786 34.2548 123.93 36.4827 122.537 40.196C121.888 41.8669 120.309 42.9809 118.638 42.9809Z" fill="#263238"/>
<path d="M151.408 113.161C151.315 113.161 151.222 113.161 151.037 113.069C150.387 112.883 150.015 112.233 150.201 111.583C150.201 111.49 151.037 108.798 154.471 107.035C159.206 104.528 166.539 105.085 176.101 108.52C176.751 108.798 177.122 109.448 176.844 110.098C176.565 110.748 175.915 111.119 175.266 110.841C164.311 106.849 158.556 107.684 155.771 109.17C153.265 110.377 152.708 112.14 152.708 112.233C152.429 112.883 151.965 113.161 151.408 113.161Z" fill="#263238"/>
<path d="M112.14 108.613C87.9112 110.841 70.5518 120.866 70.5518 120.866C77.6998 119.474 103.414 151.222 110.005 175.73C122.166 171.181 136.369 168.118 151.501 165.704C142.31 140.454 125.508 111.862 112.14 108.613Z" fill="#2579F2"/>
<path opacity="0.6" d="M112.14 108.613C87.9112 110.841 70.5518 120.866 70.5518 120.866C77.6998 119.474 103.414 151.222 110.005 175.73C122.166 171.181 136.369 168.118 151.501 165.704C142.31 140.454 125.508 111.862 112.14 108.613Z" fill="white"/>
<path d="M112.14 108.613C96.2661 106.849 70.5518 120.124 70.5518 120.124C66.0031 123.002 67.2099 128.479 69.7163 130.799C72.13 127.365 98.6797 118.453 108.706 117.246C103.693 112.604 108.334 109.263 112.14 108.613Z" fill="#2579F2"/>
<path opacity="0.2" d="M112.14 108.613C96.2661 106.849 70.5518 120.124 70.5518 120.124C66.0031 123.002 67.2099 128.479 69.7163 130.799C72.13 127.365 98.6797 118.453 108.706 117.246C103.693 112.604 108.334 109.263 112.14 108.613Z" fill="white"/>
<path d="M88.654 147.323C87.2615 147.323 85.9619 146.674 85.1264 145.467C82.063 140.825 84.0124 133.77 84.3838 132.378C85.0336 130.15 87.3544 128.943 89.5823 129.593C91.8103 130.242 93.0171 132.563 92.3673 134.791C91.7174 137.112 91.5318 140.083 92.0888 140.918C93.3884 142.867 92.8314 145.467 90.882 146.674C90.2321 147.045 89.4895 147.323 88.654 147.323Z" fill="#263238"/>
</g>
<defs>
<clipPath id="clip0">
<rect width="360" height="234.214" fill="white"/>
</clipPath>
</defs>
</svg>
