<svg width="400" height="232" viewBox="0 0 400 232" fill="none" xmlns="http://www.w3.org/2000/svg">
<path d="M386.579 14.1881C388.36 14.1881 389.804 12.744 389.804 10.9627C389.804 9.18139 388.36 7.73734 386.579 7.73734C384.798 7.73734 383.354 9.18139 383.354 10.9627C383.354 12.744 384.798 14.1881 386.579 14.1881Z" fill="#F2F2F2"/>
<path d="M373.724 14.1881C375.506 14.1881 376.95 12.744 376.95 10.9627C376.95 9.18139 375.506 7.73734 373.724 7.73734C371.943 7.73734 370.499 9.18139 370.499 10.9627C370.499 12.744 371.943 14.1881 373.724 14.1881Z" fill="#F2F2F2"/>
<path d="M360.87 14.1881C362.651 14.1881 364.095 12.744 364.095 10.9627C364.095 9.18139 362.651 7.73734 360.87 7.73734C359.089 7.73734 357.645 9.18139 357.645 10.9627C357.645 12.744 359.089 14.1881 360.87 14.1881Z" fill="#F2F2F2"/>
<path d="M348.015 14.1881C349.797 14.1881 351.241 12.744 351.241 10.9627C351.241 9.18139 349.797 7.73734 348.015 7.73734C346.234 7.73734 344.79 9.18139 344.79 10.9627C344.79 12.744 346.234 14.1881 348.015 14.1881Z" fill="#F2F2F2"/>
<path d="M386.579 27.6544C388.36 27.6544 389.804 26.2104 389.804 24.4291C389.804 22.6477 388.36 21.2037 386.579 21.2037C384.798 21.2037 383.354 22.6477 383.354 24.4291C383.354 26.2104 384.798 27.6544 386.579 27.6544Z" fill="#F2F2F2"/>
<path d="M373.724 27.6544C375.506 27.6544 376.95 26.2104 376.95 24.4291C376.95 22.6477 375.506 21.2037 373.724 21.2037C371.943 21.2037 370.499 22.6477 370.499 24.4291C370.499 26.2104 371.943 27.6544 373.724 27.6544Z" fill="#F2F2F2"/>
<path d="M360.87 27.6544C362.651 27.6544 364.095 26.2104 364.095 24.4291C364.095 22.6477 362.651 21.2037 360.87 21.2037C359.089 21.2037 357.645 22.6477 357.645 24.4291C357.645 26.2104 359.089 27.6544 360.87 27.6544Z" fill="#F2F2F2"/>
<path d="M348.015 27.6544C349.797 27.6544 351.241 26.2104 351.241 24.4291C351.241 22.6477 349.797 21.2037 348.015 21.2037C346.234 21.2037 344.79 22.6477 344.79 24.4291C344.79 26.2104 346.234 27.6544 348.015 27.6544Z" fill="#F2F2F2"/>
<path d="M386.579 41.1208C388.36 41.1208 389.804 39.6767 389.804 37.8954C389.804 36.1141 388.36 34.67 386.579 34.67C384.798 34.67 383.354 36.1141 383.354 37.8954C383.354 39.6767 384.798 41.1208 386.579 41.1208Z" fill="#F2F2F2"/>
<path d="M373.724 41.1208C375.506 41.1208 376.95 39.6767 376.95 37.8954C376.95 36.1141 375.506 34.67 373.724 34.67C371.943 34.67 370.499 36.1141 370.499 37.8954C370.499 39.6767 371.943 41.1208 373.724 41.1208Z" fill="#F2F2F2"/>
<path d="M360.87 41.1208C362.651 41.1208 364.095 39.6767 364.095 37.8954C364.095 36.1141 362.651 34.67 360.87 34.67C359.089 34.67 357.645 36.1141 357.645 37.8954C357.645 39.6767 359.089 41.1208 360.87 41.1208Z" fill="#F2F2F2"/>
<path d="M348.015 41.1208C349.797 41.1208 351.241 39.6767 351.241 37.8954C351.241 36.1141 349.797 34.67 348.015 34.67C346.234 34.67 344.79 36.1141 344.79 37.8954C344.79 39.6767 346.234 41.1208 348.015 41.1208Z" fill="#F2F2F2"/>
<path d="M386.579 54.5871C388.36 54.5871 389.804 53.1431 389.804 51.3617C389.804 49.5804 388.36 48.1364 386.579 48.1364C384.798 48.1364 383.354 49.5804 383.354 51.3617C383.354 53.1431 384.798 54.5871 386.579 54.5871Z" fill="#F2F2F2"/>
<path d="M373.724 54.5871C375.506 54.5871 376.95 53.1431 376.95 51.3617C376.95 49.5804 375.506 48.1364 373.724 48.1364C371.943 48.1364 370.499 49.5804 370.499 51.3617C370.499 53.1431 371.943 54.5871 373.724 54.5871Z" fill="#F2F2F2"/>
<path d="M360.87 54.5871C362.651 54.5871 364.095 53.1431 364.095 51.3617C364.095 49.5804 362.651 48.1364 360.87 48.1364C359.089 48.1364 357.645 49.5804 357.645 51.3617C357.645 53.1431 359.089 54.5871 360.87 54.5871Z" fill="#F2F2F2"/>
<path d="M348.015 54.5871C349.797 54.5871 351.241 53.1431 351.241 51.3617C351.241 49.5804 349.797 48.1364 348.015 48.1364C346.234 48.1364 344.79 49.5804 344.79 51.3617C344.79 53.1431 346.234 54.5871 348.015 54.5871Z" fill="#F2F2F2"/>
<path d="M386.579 68.0534C388.36 68.0534 389.804 66.6094 389.804 64.828C389.804 63.0467 388.36 61.6027 386.579 61.6027C384.798 61.6027 383.354 63.0467 383.354 64.828C383.354 66.6094 384.798 68.0534 386.579 68.0534Z" fill="#F2F2F2"/>
<path d="M373.724 68.0534C375.506 68.0534 376.95 66.6094 376.95 64.828C376.95 63.0467 375.506 61.6027 373.724 61.6027C371.943 61.6027 370.499 63.0467 370.499 64.828C370.499 66.6094 371.943 68.0534 373.724 68.0534Z" fill="#F2F2F2"/>
<path d="M360.87 68.0534C362.651 68.0534 364.095 66.6094 364.095 64.828C364.095 63.0467 362.651 61.6027 360.87 61.6027C359.089 61.6027 357.645 63.0467 357.645 64.828C357.645 66.6094 359.089 68.0534 360.87 68.0534Z" fill="#F2F2F2"/>
<path d="M348.015 68.0534C349.797 68.0534 351.241 66.6094 351.241 64.828C351.241 63.0467 349.797 61.6027 348.015 61.6027C346.234 61.6027 344.79 63.0467 344.79 64.828C344.79 66.6094 346.234 68.0534 348.015 68.0534Z" fill="#F2F2F2"/>
<path d="M386.579 81.5197C388.36 81.5197 389.804 80.0757 389.804 78.2944C389.804 76.513 388.36 75.069 386.579 75.069C384.798 75.069 383.354 76.513 383.354 78.2944C383.354 80.0757 384.798 81.5197 386.579 81.5197Z" fill="#F2F2F2"/>
<path d="M373.724 81.5197C375.506 81.5197 376.95 80.0757 376.95 78.2944C376.95 76.513 375.506 75.069 373.724 75.069C371.943 75.069 370.499 76.513 370.499 78.2944C370.499 80.0757 371.943 81.5197 373.724 81.5197Z" fill="#F2F2F2"/>
<path d="M360.87 81.5197C362.651 81.5197 364.095 80.0757 364.095 78.2944C364.095 76.513 362.651 75.069 360.87 75.069C359.089 75.069 357.645 76.513 357.645 78.2944C357.645 80.0757 359.089 81.5197 360.87 81.5197Z" fill="#F2F2F2"/>
<path d="M348.015 81.5197C349.797 81.5197 351.241 80.0757 351.241 78.2944C351.241 76.513 349.797 75.069 348.015 75.069C346.234 75.069 344.79 76.513 344.79 78.2944C344.79 80.0757 346.234 81.5197 348.015 81.5197Z" fill="#F2F2F2"/>
<path d="M381.088 222.424C383.417 217.395 385.743 212.291 386.754 206.842C387.764 201.393 387.34 195.479 384.446 190.753C381.552 186.026 375.854 182.821 370.415 183.89C365.949 184.767 362.363 188.285 360.263 192.324C358.163 196.362 357.32 200.917 356.503 205.395C356.239 200.308 355.96 195.139 354.27 190.333C352.58 185.527 349.252 181.049 344.51 179.189C339.767 177.33 333.597 178.792 331.098 183.231C327.576 189.484 332.246 198.256 328.196 204.181C327.502 198.238 321.286 193.542 315.379 194.498C309.472 195.453 305.054 201.87 306.27 207.729C306.993 211.216 309.371 214.181 312.215 216.324C315.059 218.466 318.367 220.949 321.639 222.354L381.088 222.424Z" fill="#F2F2F2"/>
<path d="M309.372 198.697C314.064 200.337 318.8 201.996 323.084 204.56C326.923 206.858 330.342 209.952 332.501 213.915C333.684 216.041 334.387 218.4 334.559 220.827C334.59 221.335 335.384 221.338 335.353 220.827C335.075 216.308 332.873 212.172 329.823 208.902C326.48 205.316 322.147 202.866 317.673 200.966C315.021 199.839 312.302 198.882 309.583 197.931C309.1 197.763 308.892 198.529 309.372 198.697H309.372Z" fill="white"/>
<path d="M336.437 179.977C339.32 184.78 341.629 189.905 343.316 195.247C345.006 200.587 346.07 206.105 346.488 211.69C346.719 214.817 346.745 217.955 346.564 221.085C346.534 221.595 347.328 221.594 347.358 221.085C347.678 215.442 347.336 209.781 346.34 204.217C345.345 198.654 343.71 193.224 341.468 188.037C340.209 185.124 338.757 182.297 337.123 179.577C337.068 179.489 336.981 179.427 336.881 179.403C336.781 179.378 336.675 179.394 336.586 179.446C336.497 179.498 336.432 179.582 336.404 179.681C336.377 179.78 336.388 179.887 336.437 179.977Z" fill="white"/>
<path d="M375.291 184.537C371.213 193.699 368.343 203.353 366.754 213.255C366.308 216.036 365.962 218.831 365.718 221.639C365.673 222.148 366.467 222.145 366.511 221.639C367.376 211.76 369.511 202.033 372.865 192.699C373.807 190.075 374.844 187.488 375.976 184.938C376.182 184.475 375.498 184.071 375.291 184.537Z" fill="white"/>
<path d="M399.501 222.291H0.498753C0.366476 222.291 0.239615 222.239 0.146081 222.145C0.0525467 222.051 0 221.925 0 221.792C0 221.66 0.0525467 221.533 0.146081 221.44C0.239615 221.346 0.366476 221.294 0.498753 221.294H399.501C399.634 221.294 399.76 221.346 399.854 221.44C399.947 221.533 400 221.66 400 221.792C400 221.925 399.947 222.051 399.854 222.145C399.76 222.239 399.634 222.291 399.501 222.291Z" fill="#3F3D56"/>
<path d="M206.615 95.0338H137.423C136.429 95.0327 135.475 94.6371 134.772 93.9338C134.069 93.2306 133.673 92.2771 133.672 91.2825V3.75133C133.673 2.75676 134.069 1.80325 134.772 1.09999C135.475 0.39672 136.429 0.00113129 137.423 0H206.615C207.609 0.00113262 208.563 0.396723 209.266 1.1C209.969 1.80327 210.365 2.75678 210.366 3.75136V91.2825C210.365 92.2771 209.969 93.2306 209.266 93.9339C208.563 94.6371 207.609 95.0327 206.615 95.0338ZM137.423 0.833655C136.65 0.834521 135.908 1.14219 135.361 1.68918C134.814 2.23617 134.506 2.9778 134.505 3.75136V91.2825C134.506 92.0561 134.814 92.7977 135.361 93.3447C135.908 93.8917 136.65 94.1994 137.423 94.2002H206.615C207.388 94.1994 208.13 93.8917 208.677 93.3447C209.224 92.7977 209.531 92.0561 209.532 91.2825V3.75136C209.531 2.9778 209.224 2.23618 208.677 1.68919C208.13 1.1422 207.388 0.834522 206.615 0.833655H137.423Z" fill="#3F3D56"/>
<path d="M166.263 42.074H151.033C150.536 42.0735 150.059 41.8757 149.707 41.524C149.356 41.1724 149.158 40.6956 149.157 40.1983V22.2254C149.158 21.7282 149.356 21.2514 149.707 20.8997C150.059 20.5481 150.536 20.3503 151.033 20.3498H166.263C166.761 20.3503 167.237 20.5481 167.589 20.8997C167.941 21.2514 168.138 21.7282 168.139 22.2254V40.1983C168.138 40.6956 167.941 41.1724 167.589 41.524C167.237 41.8757 166.761 42.0735 166.263 42.074Z" fill="#2579F2"/>
<path d="M195.857 50.4103H180.627C180.129 50.4098 179.653 50.212 179.301 49.8603C178.949 49.5087 178.752 49.0319 178.751 48.5347V30.5617C178.752 30.0644 178.949 29.5877 179.301 29.2361C179.653 28.8844 180.129 28.6866 180.627 28.6861H195.857C196.354 28.6866 196.831 28.8844 197.183 29.2361C197.534 29.5877 197.732 30.0644 197.733 30.5617V48.5347C197.732 49.0319 197.534 49.5087 197.183 49.8603C196.831 50.212 196.354 50.4098 195.857 50.4103Z" fill="#CCCCCC"/>
<path d="M172.099 75.836H156.869C156.372 75.8355 155.895 75.6377 155.543 75.2861C155.192 74.9344 154.994 74.4576 154.993 73.9604V55.9875C154.994 55.4902 155.192 55.0134 155.543 54.6618C155.895 54.3101 156.372 54.1123 156.869 54.1118H172.099C172.597 54.1123 173.073 54.3101 173.425 54.6618C173.777 55.0134 173.974 55.4902 173.975 55.9875V73.9604C173.974 74.4576 173.777 74.9344 173.425 75.2861C173.073 75.6377 172.597 75.8355 172.099 75.836Z" fill="#FF6584"/>
<path d="M57.8211 9.12078C59.6024 9.12078 61.0465 7.67672 61.0465 5.89539C61.0465 4.11407 59.6024 2.67001 57.8211 2.67001C56.0398 2.67001 54.5957 4.11407 54.5957 5.89539C54.5957 7.67672 56.0398 9.12078 57.8211 9.12078Z" fill="#F2F2F2"/>
<path d="M57.8211 21.9753C59.6024 21.9753 61.0465 20.5312 61.0465 18.7499C61.0465 16.9686 59.6024 15.5245 57.8211 15.5245C56.0398 15.5245 54.5957 16.9686 54.5957 18.7499C54.5957 20.5312 56.0398 21.9753 57.8211 21.9753Z" fill="#F2F2F2"/>
<path d="M57.8211 34.8298C59.6024 34.8298 61.0465 33.3857 61.0465 31.6044C61.0465 29.8231 59.6024 28.379 57.8211 28.379C56.0398 28.379 54.5957 29.8231 54.5957 31.6044C54.5957 33.3857 56.0398 34.8298 57.8211 34.8298Z" fill="#F2F2F2"/>
<path d="M57.8211 47.6843C59.6024 47.6843 61.0465 46.2403 61.0465 44.4589C61.0465 42.6776 59.6024 41.2336 57.8211 41.2336C56.0398 41.2336 54.5957 42.6776 54.5957 44.4589C54.5957 46.2403 56.0398 47.6843 57.8211 47.6843Z" fill="#F2F2F2"/>
<path d="M71.2869 9.12078C73.0682 9.12078 74.5123 7.67672 74.5123 5.89539C74.5123 4.11407 73.0682 2.67001 71.2869 2.67001C69.5056 2.67001 68.0615 4.11407 68.0615 5.89539C68.0615 7.67672 69.5056 9.12078 71.2869 9.12078Z" fill="#F2F2F2"/>
<path d="M71.2869 21.9753C73.0682 21.9753 74.5123 20.5312 74.5123 18.7499C74.5123 16.9686 73.0682 15.5245 71.2869 15.5245C69.5056 15.5245 68.0615 16.9686 68.0615 18.7499C68.0615 20.5312 69.5056 21.9753 71.2869 21.9753Z" fill="#F2F2F2"/>
<path d="M71.2869 34.8298C73.0682 34.8298 74.5123 33.3857 74.5123 31.6044C74.5123 29.8231 73.0682 28.379 71.2869 28.379C69.5056 28.379 68.0615 29.8231 68.0615 31.6044C68.0615 33.3857 69.5056 34.8298 71.2869 34.8298Z" fill="#F2F2F2"/>
<path d="M71.2869 47.6843C73.0682 47.6843 74.5123 46.2403 74.5123 44.4589C74.5123 42.6776 73.0682 41.2336 71.2869 41.2336C69.5056 41.2336 68.0615 42.6776 68.0615 44.4589C68.0615 46.2403 69.5056 47.6843 71.2869 47.6843Z" fill="#F2F2F2"/>
<path d="M84.7537 9.12078C86.535 9.12078 87.9791 7.67672 87.9791 5.89539C87.9791 4.11407 86.535 2.67001 84.7537 2.67001C82.9724 2.67001 81.5283 4.11407 81.5283 5.89539C81.5283 7.67672 82.9724 9.12078 84.7537 9.12078Z" fill="#F2F2F2"/>
<path d="M84.7537 21.9753C86.535 21.9753 87.9791 20.5312 87.9791 18.7499C87.9791 16.9686 86.535 15.5245 84.7537 15.5245C82.9724 15.5245 81.5283 16.9686 81.5283 18.7499C81.5283 20.5312 82.9724 21.9753 84.7537 21.9753Z" fill="#F2F2F2"/>
<path d="M84.7537 34.8298C86.535 34.8298 87.9791 33.3857 87.9791 31.6044C87.9791 29.8231 86.535 28.379 84.7537 28.379C82.9724 28.379 81.5283 29.8231 81.5283 31.6044C81.5283 33.3857 82.9724 34.8298 84.7537 34.8298Z" fill="#F2F2F2"/>
<path d="M84.7537 47.6843C86.535 47.6843 87.9791 46.2403 87.9791 44.4589C87.9791 42.6776 86.535 41.2336 84.7537 41.2336C82.9724 41.2336 81.5283 42.6776 81.5283 44.4589C81.5283 46.2403 82.9724 47.6843 84.7537 47.6843Z" fill="#F2F2F2"/>
<path d="M98.2195 9.12078C100.001 9.12078 101.445 7.67672 101.445 5.89539C101.445 4.11407 100.001 2.67001 98.2195 2.67001C96.4382 2.67001 94.9941 4.11407 94.9941 5.89539C94.9941 7.67672 96.4382 9.12078 98.2195 9.12078Z" fill="#F2F2F2"/>
<path d="M98.2195 21.9753C100.001 21.9753 101.445 20.5312 101.445 18.7499C101.445 16.9686 100.001 15.5245 98.2195 15.5245C96.4382 15.5245 94.9941 16.9686 94.9941 18.7499C94.9941 20.5312 96.4382 21.9753 98.2195 21.9753Z" fill="#F2F2F2"/>
<path d="M98.2195 34.8298C100.001 34.8298 101.445 33.3857 101.445 31.6044C101.445 29.8231 100.001 28.379 98.2195 28.379C96.4382 28.379 94.9941 29.8231 94.9941 31.6044C94.9941 33.3857 96.4382 34.8298 98.2195 34.8298Z" fill="#F2F2F2"/>
<path d="M98.2195 47.6843C100.001 47.6843 101.445 46.2403 101.445 44.4589C101.445 42.6776 100.001 41.2336 98.2195 41.2336C96.4382 41.2336 94.9941 42.6776 94.9941 44.4589C94.9941 46.2403 96.4382 47.6843 98.2195 47.6843Z" fill="#F2F2F2"/>
<path d="M111.686 9.12078C113.468 9.12078 114.912 7.67672 114.912 5.89539C114.912 4.11407 113.468 2.67001 111.686 2.67001C109.905 2.67001 108.461 4.11407 108.461 5.89539C108.461 7.67672 109.905 9.12078 111.686 9.12078Z" fill="#F2F2F2"/>
<path d="M111.686 21.9753C113.468 21.9753 114.912 20.5312 114.912 18.7499C114.912 16.9686 113.468 15.5245 111.686 15.5245C109.905 15.5245 108.461 16.9686 108.461 18.7499C108.461 20.5312 109.905 21.9753 111.686 21.9753Z" fill="#F2F2F2"/>
<path d="M111.686 34.8298C113.468 34.8298 114.912 33.3857 114.912 31.6044C114.912 29.8231 113.468 28.379 111.686 28.379C109.905 28.379 108.461 29.8231 108.461 31.6044C108.461 33.3857 109.905 34.8298 111.686 34.8298Z" fill="#F2F2F2"/>
<path d="M111.686 47.6843C113.468 47.6843 114.912 46.2403 114.912 44.4589C114.912 42.6776 113.468 41.2336 111.686 41.2336C109.905 41.2336 108.461 42.6776 108.461 44.4589C108.461 46.2403 109.905 47.6843 111.686 47.6843Z" fill="#F2F2F2"/>
<path d="M125.152 9.12078C126.933 9.12078 128.378 7.67672 128.378 5.89539C128.378 4.11407 126.933 2.67001 125.152 2.67001C123.371 2.67001 121.927 4.11407 121.927 5.89539C121.927 7.67672 123.371 9.12078 125.152 9.12078Z" fill="#F2F2F2"/>
<path d="M125.152 21.9753C126.933 21.9753 128.378 20.5312 128.378 18.7499C128.378 16.9686 126.933 15.5245 125.152 15.5245C123.371 15.5245 121.927 16.9686 121.927 18.7499C121.927 20.5312 123.371 21.9753 125.152 21.9753Z" fill="#F2F2F2"/>
<path d="M125.152 34.8298C126.933 34.8298 128.378 33.3857 128.378 31.6044C128.378 29.8231 126.933 28.379 125.152 28.379C123.371 28.379 121.927 29.8231 121.927 31.6044C121.927 33.3857 123.371 34.8298 125.152 34.8298Z" fill="#F2F2F2"/>
<path d="M125.152 47.6843C126.933 47.6843 128.378 46.2403 128.378 44.4589C128.378 42.6776 126.933 41.2336 125.152 41.2336C123.371 41.2336 121.927 42.6776 121.927 44.4589C121.927 46.2403 123.371 47.6843 125.152 47.6843Z" fill="#F2F2F2"/>
<path d="M90.2966 226.65C101.869 226.65 111.25 217.269 111.25 205.696C111.25 194.124 101.869 184.743 90.2966 184.743C78.7241 184.743 69.3428 194.124 69.3428 205.696C69.3428 217.269 78.7241 226.65 90.2966 226.65Z" fill="#2F2E41"/>
<path d="M82.3288 219.463L72.1309 224.57L74.9813 230.262L85.1792 225.155L82.3288 219.463Z" fill="#2F2E41"/>
<path d="M76.3255 229.684C76.9303 228.767 75.4378 226.716 72.9918 225.104C70.5459 223.491 68.0728 222.927 67.4681 223.844C66.8633 224.761 68.3559 226.812 70.8018 228.425C73.2477 230.038 75.7208 230.602 76.3255 229.684Z" fill="#2F2E41"/>
<path d="M98.2645 219.463L95.4141 225.155L105.612 230.262L108.462 224.57L98.2645 219.463Z" fill="#2F2E41"/>
<path d="M109.792 228.425C112.238 226.812 113.73 224.761 113.125 223.844C112.521 222.927 110.048 223.491 107.602 225.103C105.156 226.716 103.663 228.767 104.268 229.684C104.873 230.602 107.346 230.038 109.792 228.425Z" fill="#2F2E41"/>
<path d="M88.8294 207.732C92.7845 207.732 95.9908 204.526 95.9908 200.571C95.9908 196.616 92.7845 193.41 88.8294 193.41C84.8742 193.41 81.668 196.616 81.668 200.571C81.668 204.526 84.8742 207.732 88.8294 207.732Z" fill="white"/>
<path d="M84.6365 200.744C87.1916 198.798 90.08 201.686 88.1338 204.241C85.5787 206.188 82.6904 203.299 84.6365 200.744Z" fill="#3F3D56"/>
<path d="M106.826 182.901C107.141 175.143 100.455 168.573 91.8928 168.225C83.3303 167.877 76.1337 173.884 75.8186 181.641C75.5035 189.399 81.4554 191.161 90.0179 191.509C98.5803 191.857 106.511 190.658 106.826 182.901Z" fill="#CCCCCC"/>
<path d="M118.904 216.669C120.282 215.485 118.344 210.967 114.575 206.577C110.806 202.186 106.634 199.586 105.255 200.77C103.877 201.953 105.815 206.471 109.584 210.861C113.353 215.252 117.526 217.852 118.904 216.669Z" fill="#2F2E41"/>
<path d="M71.0675 210.861C74.8364 206.471 76.7745 201.953 75.3962 200.77C74.018 199.586 69.8453 202.186 66.0763 206.577C62.3073 210.967 60.3693 215.485 61.7475 216.668C63.1258 217.852 67.2985 215.252 71.0675 210.861Z" fill="#2F2E41"/>
<path d="M96.0513 213.954C96.1642 214.571 96.1544 215.204 96.0224 215.818C95.8904 216.431 95.6389 217.012 95.2821 217.528C94.9254 218.044 94.4704 218.485 93.9433 218.825C93.4162 219.165 92.8272 219.398 92.21 219.51C91.5929 219.623 90.9596 219.612 90.3464 219.48C89.7333 219.347 89.1522 219.095 88.6365 218.738C88.1208 218.381 87.6806 217.925 87.341 217.398C87.0013 216.871 86.7689 216.281 86.6571 215.664L86.6555 215.655C86.1857 213.06 88.1918 212.142 90.7864 211.673C93.381 211.203 95.5816 211.359 96.0513 213.954Z" fill="white"/>
<path d="M311.869 163.254H283.934C283.934 163.584 283.802 163.901 283.568 164.135C283.335 164.369 283.018 164.5 282.687 164.5H255.265C254.878 164.792 254.525 165.127 254.213 165.498C253.276 166.616 252.764 168.029 252.767 169.488V170.485C252.767 172.139 253.424 173.724 254.593 174.893C255.762 176.062 257.348 176.719 259.001 176.72H311.869C313.522 176.718 315.107 176.061 316.276 174.892C317.445 173.723 318.102 172.138 318.103 170.485V169.488C318.101 167.835 317.443 166.251 316.275 165.082C315.106 163.913 313.522 163.256 311.869 163.254Z" fill="#3F3D56"/>
<path d="M288.923 176.472H282.439V222.358H288.923V176.472Z" fill="#3F3D56"/>
<path d="M307.378 222.13C307.378 222.83 297.552 222.401 285.432 222.401C273.312 222.401 263.487 222.83 263.487 222.13C263.487 221.429 273.312 215.874 285.432 215.874C297.552 215.874 307.378 221.429 307.378 222.13Z" fill="#3F3D56"/>
<path d="M310.647 164.69L309.56 157.887C309.422 157.03 308.95 156.262 308.246 155.752C307.543 155.243 306.667 155.033 305.809 155.169L294.592 156.959L275.38 160.027L269.131 161.024H282.687C283.018 161.024 283.335 161.156 283.568 161.389C283.802 161.623 283.934 161.94 283.934 162.271V163.254C283.934 163.584 283.802 163.901 283.568 164.135C283.335 164.369 283.018 164.5 282.687 164.5H248.188C247.707 164.726 247.29 165.069 246.976 165.498C246.711 165.847 246.519 166.246 246.413 166.671C246.307 167.097 246.288 167.539 246.358 167.972L246.667 169.907L247.041 172.256L247.445 174.78C247.582 175.635 248.053 176.401 248.754 176.909C249.456 177.418 250.33 177.628 251.186 177.493L260.098 176.072L285.804 171.967L307.929 168.436C308.784 168.296 309.55 167.824 310.059 167.123C310.569 166.421 310.78 165.547 310.647 164.69Z" fill="#2579F2"/>
<path d="M259.415 165.498C259.087 165.062 258.653 164.719 258.153 164.5H248.617C248.116 164.717 247.679 165.061 247.35 165.498C246.906 166.066 246.666 166.767 246.667 167.488V205.498C246.668 206.364 247.013 207.194 247.625 207.807C248.238 208.419 249.068 208.764 249.934 208.765H256.832C257.698 208.763 258.528 208.419 259.14 207.806C259.753 207.194 260.097 206.364 260.099 205.498V167.488C260.099 166.767 259.858 166.067 259.415 165.498Z" fill="#2579F2"/>
<path d="M280.173 100.76L280.108 100.675L275.829 95.4032C275.601 95.1204 275.326 94.8791 275.016 94.69C274.852 94.5787 274.674 94.4882 274.487 94.4207C274.214 94.3112 273.927 94.2407 273.634 94.2112C273.439 94.1904 273.242 94.187 273.046 94.2012C273.042 94.2016 273.038 94.2033 273.036 94.2061C272.375 94.2548 271.744 94.5055 271.23 94.9243L262.447 102.047L251.161 111.204L234.318 124.869L233.091 125.867H254.403L255.634 124.869L259.709 121.563L259.998 121.333L279.679 105.368L279.694 105.358C280.099 105.032 280.419 104.613 280.627 104.136C280.764 103.824 280.851 103.493 280.886 103.154C280.932 102.727 280.892 102.296 280.77 101.885C280.647 101.474 280.444 101.092 280.173 100.76Z" fill="#2579F2"/>
<path d="M280.108 100.675C279.833 99.331 279.222 98.0785 278.333 97.0341C277.446 95.9817 276.304 95.1746 275.016 94.69C274.816 94.6152 274.622 94.5453 274.423 94.4905C273.972 94.3564 273.512 94.2597 273.046 94.2012C273.042 94.2016 273.039 94.2033 273.036 94.2062C270.937 93.9637 268.827 94.5467 267.151 95.8321L251.959 107.443C251.636 107.732 251.375 108.082 251.191 108.474C251.006 108.865 250.903 109.29 250.886 109.722C250.863 110.231 250.957 110.738 251.161 111.204C251.211 111.308 251.265 111.413 251.325 111.513C251.442 111.715 251.582 111.903 251.744 112.071L254.178 114.805L259.839 121.154L259.998 121.333L260.363 121.747C260.652 122.065 261.002 122.322 261.391 122.505C261.781 122.687 262.202 122.79 262.632 122.809C263.061 122.828 263.49 122.762 263.894 122.615C264.298 122.468 264.669 122.243 264.986 121.952L278.088 107.877C278.769 107.146 279.308 106.296 279.679 105.368C280.278 103.879 280.427 102.248 280.108 100.675Z" fill="#2F2E41"/>
<path d="M285.901 82.6147C299.707 82.6147 310.899 71.4225 310.899 57.6162C310.899 43.8099 299.707 32.6177 285.901 32.6177C272.095 32.6177 260.902 43.8099 260.902 57.6162C260.902 71.4225 272.095 82.6147 285.901 82.6147Z" fill="#2579F2"/>
<path d="M295.276 161.249L294.592 156.959L294.188 154.441C294.051 153.584 293.579 152.818 292.877 152.309C292.174 151.801 291.299 151.591 290.443 151.727L272.273 154.625L267.346 155.413L266.348 155.573V161.024H282.687C283.018 161.024 283.335 161.156 283.569 161.39C283.802 161.623 283.934 161.94 283.934 162.271V163.254C283.934 163.584 283.802 163.901 283.569 164.135C283.335 164.369 283.018 164.5 282.687 164.5H230.981C230.981 164.51 230.986 164.52 230.986 164.53L231.296 166.466L232.074 171.333C232.211 172.189 232.682 172.955 233.383 173.463C234.084 173.972 234.959 174.182 235.814 174.047L244.727 172.625L246.667 172.316L247.041 172.256L260.099 170.171L268.981 168.75L283.076 166.5L283.286 166.466L292.557 164.989C293.413 164.852 294.18 164.381 294.689 163.68C295.199 162.979 295.41 162.105 295.276 161.249Z" fill="#2579F2"/>
<path d="M319.924 142.904C319.924 163.284 317.854 175.473 285.934 171.982C285.889 171.977 285.849 171.972 285.804 171.967C280.111 171.404 274.48 170.328 268.981 168.75C266.123 167.915 263.346 166.827 260.682 165.498C260.054 165.179 259.45 164.845 258.856 164.5H282.687C283.018 164.5 283.335 164.369 283.569 164.135C283.802 163.901 283.934 163.584 283.934 163.254V162.271C283.934 161.94 283.802 161.623 283.569 161.389C283.335 161.156 283.018 161.024 282.687 161.024H266.348V129.523C266.347 128.554 265.961 127.625 265.276 126.939C264.59 126.254 263.661 125.868 262.692 125.867H263.365C263.48 125.538 263.595 125.204 263.719 124.87C264.931 121.503 264.812 118.855 266.533 115.558C268.897 111.009 268.912 106.436 272.019 102.59C274.333 99.7325 267.246 96.6152 269.849 94.4705C274.852 90.3408 280.298 87.7872 285.824 87.7872C306.203 87.7872 319.924 122.525 319.924 142.904Z" fill="#2F2E41"/>
<path d="M286.426 66.8816L286.452 65.9474C284.714 65.899 283.182 65.79 282.03 64.9489C281.704 64.6969 281.436 64.3775 281.244 64.0125C281.052 63.6475 280.941 63.2455 280.918 62.8337C280.898 62.5821 280.936 62.3293 281.029 62.0948C281.123 61.8603 281.269 61.6505 281.456 61.4817C282.221 60.8363 283.45 61.0452 284.347 61.4562L285.12 61.8106L283.637 50.9785L282.712 51.1053L283.973 60.3194C283.457 60.128 282.901 60.0687 282.356 60.1471C281.811 60.2255 281.295 60.4391 280.853 60.7683C280.557 61.0274 280.324 61.3516 280.173 61.7156C280.022 62.0796 279.958 62.4735 279.984 62.8665C280.012 63.4198 280.16 63.9604 280.418 64.4504C280.676 64.9404 281.038 65.3681 281.479 65.7033C282.958 66.7844 284.881 66.8382 286.426 66.8816Z" fill="#2F2E41"/>
<path d="M278.135 51.8998H273.104V52.834H278.135V51.8998Z" fill="#2F2E41"/>
<path d="M294.016 51.8998H288.984V52.834H294.016V51.8998Z" fill="#2F2E41"/>
<path d="M300.762 107.907L298.781 106.53L295.096 103.972C294.383 103.479 293.504 103.289 292.651 103.443C291.799 103.597 291.042 104.083 290.547 104.795L278.532 122.086L267.345 138.186L266.348 139.623V161.024H266.437C267.215 160.947 267.939 160.593 268.477 160.027C268.593 159.908 268.698 159.779 268.792 159.643L272.273 154.625L280.876 142.241L289.794 129.413L290.642 128.191L301.575 112.456C301.634 112.372 301.689 112.286 301.739 112.196C301.789 112.111 301.834 112.022 301.874 111.932C302.187 111.237 302.248 110.454 302.045 109.719C301.842 108.983 301.388 108.343 300.762 107.907Z" fill="#2579F2"/>
<path d="M300.797 101.064C300.444 100.832 300.074 100.629 299.69 100.456C297.986 99.6746 296.065 99.5042 294.25 99.9729C292.435 100.442 290.837 101.521 289.725 103.029L278.373 118.421C278.145 118.787 277.992 119.195 277.923 119.621C277.855 120.048 277.871 120.483 277.972 120.903C278.074 121.322 278.257 121.718 278.513 122.065C278.768 122.413 279.09 122.707 279.46 122.929L289.794 129.413L289.924 129.493L290.443 129.817C291.185 130.266 292.074 130.402 292.916 130.196C293.758 129.991 294.485 129.46 294.937 128.72L302.951 112.81L303.086 112.545L303.091 112.54L303.585 111.548C304.485 109.762 304.699 107.708 304.185 105.776C303.671 103.843 302.465 102.166 300.797 101.064Z" fill="#2F2E41"/>
<path d="M231.295 164.5V202.052C231.296 202.918 231.641 203.748 232.253 204.36C232.865 204.973 233.696 205.317 234.562 205.318H241.459C242.326 205.317 243.156 204.973 243.768 204.36C244.381 203.748 244.725 202.918 244.726 202.052V164.5H231.295Z" fill="#2579F2"/>
<path d="M282.687 160.027H267.345V129.523C267.344 128.289 266.853 127.106 265.981 126.234C265.108 125.362 263.926 124.871 262.692 124.87H205.799C204.564 124.87 203.38 125.36 202.507 126.233C201.634 127.105 201.142 128.288 201.141 129.523V160.845C201.142 162.079 201.634 163.263 202.507 164.135C203.38 165.007 204.564 165.498 205.799 165.498H282.687C282.767 165.498 282.841 165.493 282.916 165.488C282.986 165.483 283.056 165.468 283.126 165.458C283.635 165.355 284.092 165.079 284.421 164.678C284.75 164.276 284.93 163.773 284.931 163.254V162.271C284.931 161.676 284.695 161.105 284.274 160.684C283.853 160.263 283.282 160.027 282.687 160.027ZM282.687 164.5H205.799C204.829 164.5 203.899 164.115 203.212 163.43C202.526 162.744 202.14 161.815 202.138 160.845V129.523C202.14 128.553 202.526 127.623 203.212 126.938C203.899 126.253 204.829 125.867 205.799 125.867H262.692C263.661 125.868 264.59 126.254 265.275 126.939C265.961 127.625 266.346 128.554 266.348 129.523V161.024H282.687C283.017 161.024 283.334 161.156 283.568 161.389C283.802 161.623 283.933 161.94 283.934 162.271V163.254C283.933 163.584 283.802 163.901 283.568 164.135C283.334 164.369 283.017 164.5 282.687 164.5Z" fill="#3F3D56"/>
<path d="M234.244 149.02C236.362 149.02 238.079 147.303 238.079 145.184C238.079 143.066 236.362 141.349 234.244 141.349C232.125 141.349 230.408 143.066 230.408 145.184C230.408 147.303 232.125 149.02 234.244 149.02Z" fill="#2579F2"/>
<path d="M267.331 160.555H266.333V165.044H267.331V160.555Z" fill="#3F3D56"/>
<path d="M112.995 129.856C115.112 124.315 115.419 119.284 113.68 118.62C111.94 117.955 108.814 121.907 106.696 127.448C104.578 132.989 104.271 138.019 106.011 138.684C107.75 139.349 110.877 135.396 112.995 129.856Z" fill="#2F2E41"/>
<path d="M111.194 148.313C113.094 136.603 105.142 125.57 93.4317 123.67C81.7218 121.769 70.6886 129.722 68.7884 141.432C66.8881 153.141 74.8404 164.175 86.5503 166.075C98.2602 167.975 109.293 160.023 111.194 148.313Z" fill="#2F2E41"/>
<path d="M86.7287 161.73H80.2031V173.422H86.7287V161.73Z" fill="#2F2E41"/>
<path d="M99.7795 161.73H93.2539V173.422H99.7795V161.73Z" fill="#2F2E41"/>
<path d="M85.6411 175.597C88.6444 175.597 91.0791 174.684 91.0791 173.558C91.0791 172.431 88.6444 171.518 85.6411 171.518C82.6378 171.518 80.2031 172.431 80.2031 173.558C80.2031 174.684 82.6378 175.597 85.6411 175.597Z" fill="#2F2E41"/>
<path d="M98.6919 175.325C101.695 175.325 104.13 174.412 104.13 173.286C104.13 172.159 101.695 171.246 98.6919 171.246C95.6886 171.246 93.2539 172.159 93.2539 173.286C93.2539 174.412 95.6886 175.325 98.6919 175.325Z" fill="#2F2E41"/>
<path d="M90.7508 146.772C94.8035 146.653 97.9924 143.271 97.8733 139.219C97.7542 135.166 94.3722 131.977 90.3195 132.096C86.2668 132.215 83.078 135.597 83.1971 139.65C83.3162 143.703 86.6981 146.891 90.7508 146.772Z" fill="white"/>
<path d="M90.535 141.881C91.8865 141.881 92.9821 140.786 92.9821 139.434C92.9821 138.083 91.8865 136.987 90.535 136.987C89.1835 136.987 88.0879 138.083 88.0879 139.434C88.0879 140.786 89.1835 141.881 90.535 141.881Z" fill="#3F3D56"/>
<path d="M69.1545 124.896C67.4201 117.129 72.9643 109.28 81.5378 107.366C90.1114 105.452 98.4676 110.196 100.202 117.964C101.936 125.731 96.2544 128.596 87.6809 130.51C79.1073 132.425 70.8889 132.664 69.1545 124.896Z" fill="#2579F2"/>
<path d="M75.501 139.508C76.299 137.825 72.6013 134.401 67.242 131.859C61.8827 129.317 56.8912 128.621 56.0933 130.303C55.2953 131.986 58.993 135.41 64.3523 137.952C69.7116 140.494 74.7031 141.19 75.501 139.508Z" fill="#2F2E41"/>
<path d="M79.4404 152.621C79.4404 154.724 84.8535 158.875 90.8602 158.875C96.8668 158.875 102.499 152.956 102.499 150.854C102.499 148.752 96.8667 151.262 90.8602 151.262C84.8536 151.262 79.4404 150.519 79.4404 152.621Z" fill="white"/>
<path d="M131.443 140.268L115.632 143.355C115.376 143.405 115.112 143.397 114.86 143.33C114.607 143.264 114.373 143.14 114.176 142.969C113.974 142.797 113.815 142.58 113.71 142.336C113.605 142.093 113.557 141.828 113.569 141.563C113.839 135.079 112.579 128.623 109.89 122.717C109.779 122.476 109.724 122.213 109.73 121.948C109.736 121.682 109.802 121.422 109.924 121.186C110.042 120.953 110.213 120.751 110.421 120.594C110.63 120.437 110.872 120.33 111.128 120.281L126.939 117.195C127.344 117.117 127.762 117.185 128.121 117.386C128.48 117.588 128.756 117.911 128.899 118.297C131.238 124.794 132.568 131.611 132.845 138.511C132.857 138.922 132.723 139.324 132.466 139.646C132.21 139.968 131.847 140.189 131.443 140.268Z" fill="#FF6584"/>
<path d="M62.1163 154.732L46.3051 157.819C46.049 157.869 45.7847 157.861 45.5324 157.794C45.28 157.728 45.0461 157.604 44.8487 157.433C44.6472 157.26 44.4878 157.044 44.3827 156.8C44.2775 156.556 44.2294 156.292 44.2419 156.027C44.5116 149.543 43.2514 143.087 40.5631 137.181C40.4518 136.94 40.397 136.677 40.4028 136.411C40.4085 136.146 40.4748 135.885 40.5965 135.649C40.7152 135.417 40.8855 135.215 41.0942 135.058C41.303 134.901 41.5448 134.794 41.8011 134.745L57.6123 131.659C58.0165 131.58 58.4353 131.648 58.7941 131.85C59.1528 132.052 59.4284 132.374 59.5716 132.76C61.9105 139.258 63.2411 146.074 63.5174 152.974C63.5298 153.386 63.3958 153.788 63.1392 154.11C62.8826 154.432 62.5202 154.652 62.1163 154.732Z" fill="#CCCCCC"/>
<path d="M293.094 40.0659C288.593 42.075 283.487 42.2525 278.857 40.5608C275.463 39.2593 272.521 36.9965 270.392 34.0493C268.263 31.1021 267.04 27.5983 266.871 23.9666L265.746 24.6126L270.492 27.952C270.591 28.009 270.702 28.0426 270.816 28.0503C270.93 28.058 271.044 28.0396 271.15 27.9965C271.256 27.9534 271.351 27.8868 271.427 27.8016C271.503 27.7164 271.559 27.6149 271.591 27.5049C271.924 26.1693 272.529 24.9168 273.369 23.8256C274.208 22.7345 275.263 21.828 276.468 21.163C279.111 19.6891 282.183 19.178 285.161 19.717C291.328 20.7174 296.879 24.8284 300.491 29.8135C302.463 32.5255 303.923 35.5743 304.801 38.8103C304.859 38.9955 304.987 39.1509 305.157 39.2438C305.328 39.3367 305.528 39.3598 305.715 39.3082C305.902 39.2566 306.062 39.1344 306.16 38.9673C306.259 38.8002 306.289 38.6013 306.244 38.4125C304.523 32.1216 300.743 26.5894 295.507 22.7006C290.148 18.7212 282.645 16.3159 276.341 19.5283C273.341 21.0572 270.899 23.7791 270.148 27.1071L271.247 26.66L266.501 23.3206C266.387 23.2556 266.258 23.2215 266.127 23.2217C265.996 23.2219 265.867 23.2563 265.753 23.3216C265.639 23.3868 265.545 23.4807 265.478 23.5938C265.412 23.707 265.376 23.8355 265.375 23.9666C265.61 29.0066 267.697 33.7826 271.235 37.3791C274.934 41.0757 279.938 43.169 285.168 43.2068C288.163 43.2397 291.128 42.6083 293.849 41.3579C294.724 40.9574 293.964 39.6674 293.094 40.0659Z" fill="#2F2E41"/>
<path d="M83.129 227.512L67.3178 230.598C67.0617 230.649 66.7974 230.641 66.545 230.574C66.2927 230.507 66.0588 230.384 65.8614 230.213C65.6599 230.04 65.5005 229.824 65.3954 229.58C65.2902 229.336 65.2421 229.072 65.2546 228.807C65.5243 222.323 64.264 215.867 61.5758 209.961C61.4645 209.72 61.4097 209.457 61.4155 209.191C61.4212 208.926 61.4875 208.665 61.6092 208.429C61.7279 208.197 61.8982 207.995 62.1069 207.838C62.3157 207.681 62.5574 207.574 62.8138 207.525L78.625 204.438C79.0292 204.36 79.448 204.428 79.8067 204.63C80.1655 204.832 80.4411 205.154 80.5843 205.54C82.9231 212.037 84.2538 218.854 84.5301 225.754C84.5425 226.166 84.4085 226.568 84.1519 226.89C83.8953 227.212 83.5328 227.432 83.129 227.512Z" fill="#2579F2"/>
</svg>
