<svg width="400" height="308" viewBox="0 0 400 308" fill="none" xmlns="http://www.w3.org/2000/svg">
<path d="M92.1037 212.622L123.073 163.939L53.7161 119.852L17.8984 176.157L75.2653 212.622H92.1037Z" fill="#F0F0F0"/>
<path d="M135.99 227.81H59.2773V212.373H135.99V227.81ZM60.2736 226.814H134.993V213.369H60.2736V226.814Z" fill="#3F3D56"/>
<path d="M126.525 225.071C129.276 225.071 131.507 222.842 131.507 220.092C131.507 217.342 129.276 215.112 126.525 215.112C123.774 215.112 121.544 217.342 121.544 220.092C121.544 222.842 123.774 225.071 126.525 225.071Z" fill="#2579F2"/>
<path d="M112.578 225.071C115.329 225.071 117.559 222.842 117.559 220.092C117.559 217.342 115.329 215.112 112.578 215.112C109.827 215.112 107.597 217.342 107.597 220.092C107.597 222.842 109.827 225.071 112.578 225.071Z" fill="#2579F2"/>
<path d="M98.6298 225.071C101.381 225.071 103.611 222.842 103.611 220.092C103.611 217.342 101.381 215.112 98.6298 215.112C95.8786 215.112 93.6484 217.342 93.6484 220.092C93.6484 222.842 95.8786 225.071 98.6298 225.071Z" fill="#2579F2"/>
<path d="M84.6825 225.071C87.4336 225.071 89.6638 222.842 89.6638 220.092C89.6638 217.342 87.4336 215.112 84.6825 215.112C81.9314 215.112 79.7012 217.342 79.7012 220.092C79.7012 222.842 81.9314 225.071 84.6825 225.071Z" fill="#2579F2"/>
<path d="M70.7352 225.071C73.4863 225.071 75.7165 222.842 75.7165 220.092C75.7165 217.342 73.4863 215.112 70.7352 215.112C67.9841 215.112 65.7539 217.342 65.7539 220.092C65.7539 222.842 67.9841 225.071 70.7352 225.071Z" fill="#2579F2"/>
<path d="M227.148 56.2678V18.424H246.077V0H153.425V92.6177H232.628V83.5623C232.628 81.8743 232.96 80.2028 233.607 78.6432C234.253 77.0837 235.2 75.6667 236.394 74.4731C237.588 73.2794 239.006 72.3326 240.566 71.6866C242.126 71.0406 243.798 70.7082 245.487 70.7082H246.077V56.2678H227.148Z" fill="#F0F0F0"/>
<path d="M329.763 239.013H267.995V251.96H329.763V239.013Z" fill="#2579F2"/>
<path d="M343.213 175.277H252.553V187.227H343.213V175.277Z" fill="#F0F0F0"/>
<path d="M387.547 306.236H0V307.232H387.547V306.236Z" fill="#3F3D56"/>
<path d="M358.748 307.232H245.487C241.946 307.228 238.551 305.82 236.047 303.317C233.543 300.814 232.134 297.42 232.13 293.88V83.5623C232.134 80.0224 233.542 76.6285 236.047 74.1254C238.551 71.6223 241.946 70.2142 245.487 70.2102H358.748C362.289 70.2142 365.684 71.6223 368.188 74.1254C370.692 76.6285 372.101 80.0224 372.105 83.5623V293.88C372.101 297.42 370.692 300.814 368.188 303.317C365.684 305.82 362.289 307.228 358.748 307.232ZM245.487 71.2061C242.21 71.2098 239.068 72.5128 236.751 74.8293C234.433 77.1457 233.13 80.2864 233.126 83.5623V293.88C233.13 297.156 234.433 300.296 236.751 302.613C239.068 304.929 242.21 306.232 245.487 306.236H358.748C362.025 306.232 365.167 304.929 367.484 302.613C369.801 300.296 371.105 297.156 371.109 293.88V83.5623C371.105 80.2864 369.801 77.1457 367.484 74.8293C365.167 72.5128 362.025 71.2098 358.748 71.2061H245.487Z" fill="#3F3D56"/>
<path d="M288.668 80.1691C288.076 80.1691 287.499 79.9939 287.007 79.6656C286.516 79.3373 286.132 78.8707 285.906 78.3248C285.68 77.7789 285.621 77.1781 285.736 76.5986C285.851 76.019 286.136 75.4867 286.554 75.0689C286.972 74.651 287.505 74.3665 288.084 74.2512C288.664 74.1359 289.265 74.1951 289.811 74.4212C290.357 74.6473 290.824 75.0303 291.153 75.5216C291.481 76.0129 291.656 76.5905 291.656 77.1815C291.655 77.9736 291.34 78.733 290.78 79.2931C290.22 79.8532 289.46 80.1683 288.668 80.1691ZM288.668 75.1897C288.273 75.1897 287.888 75.3065 287.561 75.5254C287.233 75.7442 286.977 76.0553 286.827 76.4192C286.676 76.7832 286.636 77.1837 286.713 77.57C286.79 77.9564 286.98 78.3113 287.259 78.5899C287.537 78.8684 287.892 79.0581 288.279 79.135C288.665 79.2118 289.066 79.1724 289.43 79.0216C289.794 78.8709 290.105 78.6156 290.324 78.288C290.543 77.9605 290.66 77.5754 290.66 77.1815C290.659 76.6534 290.449 76.1471 290.076 75.7737C289.702 75.4003 289.196 75.1902 288.668 75.1897Z" fill="#3F3D56"/>
<path d="M318.057 76.6835H296.14V77.6794H318.057V76.6835Z" fill="#3F3D56"/>
<path d="M363.139 84.6506V124.486C352.57 124.486 342.434 120.289 334.961 112.818C327.487 105.348 323.289 95.2155 323.288 84.6506H363.139Z" fill="#2579F2"/>
<path d="M363.636 293.787H240.598V84.1527H363.636V293.787ZM241.594 292.792H362.64V85.1486H241.594V292.792Z" fill="#3F3D56"/>
<path opacity="0.1" d="M334.246 121.996C341.674 121.996 347.696 115.977 347.696 108.552C347.696 101.127 341.674 95.1075 334.246 95.1075C326.818 95.1075 320.797 101.127 320.797 108.552C320.797 115.977 326.818 121.996 334.246 121.996Z" fill="black"/>
<path d="M332.254 123.49C339.682 123.49 345.704 117.471 345.704 110.046C345.704 102.621 339.682 96.6013 332.254 96.6013C324.826 96.6013 318.805 102.621 318.805 110.046C318.805 117.471 324.826 123.49 332.254 123.49Z" fill="#2579F2"/>
<path d="M265.006 92.6177H246.077V99.589H265.006V92.6177Z" fill="#3F3D56"/>
<path d="M275.467 158.844H256.538V165.816H275.467V158.844Z" fill="#3F3D56"/>
<path d="M348.194 184.738H256.538V171.791H348.194V184.738ZM257.534 183.742H347.198V172.787H257.534V183.742Z" fill="#3F3D56"/>
<path d="M343.213 213.12H252.553V225.071H343.213V213.12Z" fill="#F0F0F0"/>
<path d="M275.467 196.688H256.538V203.659H275.467V196.688Z" fill="#3F3D56"/>
<path d="M348.194 222.581H256.538V209.635H348.194V222.581ZM257.534 221.585H347.198V210.631H257.534V221.585Z" fill="#3F3D56"/>
<path d="M333.748 248.972H270.983V235.03H333.748V248.972ZM271.98 247.977H332.752V236.026H271.98V247.977Z" fill="#3F3D56"/>
<path d="M345.704 179.758C345.704 180.783 345.387 181.783 344.797 182.622C344.207 183.46 343.373 184.097 342.408 184.444C341.443 184.791 340.395 184.831 339.406 184.56C338.416 184.29 337.535 183.72 336.882 182.93L336.877 182.925C336.401 182.348 336.061 181.67 335.883 180.944C335.704 180.217 335.692 179.459 335.847 178.727C336.002 177.995 336.32 177.307 336.778 176.715C337.235 176.123 337.82 175.641 338.49 175.306C339.159 174.971 339.895 174.791 340.644 174.779C341.392 174.768 342.134 174.925 342.813 175.239C343.492 175.554 344.092 176.017 344.567 176.595C345.043 177.173 345.382 177.851 345.559 178.578C345.559 178.579 345.559 178.579 345.56 178.58C345.56 178.58 345.56 178.581 345.561 178.581C345.561 178.582 345.562 178.582 345.562 178.583C345.563 178.583 345.564 178.583 345.564 178.583C345.656 178.968 345.703 179.362 345.704 179.758Z" fill="#2579F2"/>
<path opacity="0.1" d="M345.704 179.758C345.704 180.783 345.387 181.783 344.797 182.622C344.207 183.46 343.373 184.097 342.408 184.444C341.443 184.791 340.394 184.831 339.405 184.56C338.416 184.29 337.535 183.72 336.882 182.93L336.877 182.925C336.785 182.54 336.738 182.146 336.737 181.75C336.737 180.725 337.054 179.725 337.644 178.886C338.234 178.047 339.068 177.411 340.033 177.064C340.998 176.717 342.047 176.677 343.036 176.947C344.025 177.218 344.906 177.788 345.559 178.578C345.559 178.579 345.559 178.579 345.56 178.58C345.56 178.58 345.56 178.581 345.561 178.582C345.561 178.582 345.562 178.582 345.562 178.583C345.563 178.583 345.564 178.583 345.564 178.583C345.656 178.968 345.703 179.362 345.704 179.758Z" fill="black"/>
<path d="M342.715 187.725C345.466 187.725 347.696 185.496 347.696 182.746C347.696 179.996 345.466 177.766 342.715 177.766C339.964 177.766 337.733 179.996 337.733 182.746C337.733 185.496 339.964 187.725 342.715 187.725Z" fill="#2579F2"/>
<path d="M345.704 217.602C345.704 218.627 345.387 219.627 344.797 220.466C344.207 221.304 343.373 221.94 342.408 222.287C341.443 222.634 340.395 222.675 339.406 222.404C338.416 222.133 337.535 221.564 336.882 220.774L336.877 220.769C336.401 220.191 336.061 219.514 335.883 218.787C335.704 218.061 335.692 217.303 335.847 216.571C336.002 215.839 336.32 215.151 336.778 214.559C337.235 213.966 337.82 213.485 338.49 213.15C339.159 212.815 339.895 212.635 340.644 212.623C341.392 212.612 342.134 212.769 342.813 213.083C343.492 213.398 344.092 213.861 344.567 214.439C345.043 215.017 345.382 215.695 345.559 216.422C345.559 216.422 345.559 216.423 345.56 216.424C345.56 216.424 345.56 216.425 345.561 216.425C345.561 216.426 345.562 216.426 345.562 216.426C345.563 216.427 345.564 216.427 345.564 216.427C345.656 216.812 345.703 217.206 345.704 217.602Z" fill="#2579F2"/>
<path opacity="0.1" d="M345.704 217.602C345.704 218.627 345.387 219.627 344.797 220.466C344.207 221.304 343.373 221.94 342.408 222.287C341.443 222.634 340.394 222.675 339.405 222.404C338.416 222.133 337.535 221.564 336.882 220.774L336.877 220.769C336.785 220.384 336.738 219.989 336.737 219.594C336.737 218.569 337.054 217.568 337.644 216.73C338.234 215.891 339.068 215.255 340.033 214.908C340.998 214.561 342.047 214.52 343.036 214.791C344.025 215.062 344.906 215.632 345.559 216.422C345.559 216.422 345.559 216.423 345.56 216.424C345.56 216.424 345.56 216.425 345.561 216.425C345.561 216.426 345.562 216.426 345.562 216.426C345.563 216.427 345.564 216.427 345.564 216.427C345.656 216.812 345.703 217.206 345.704 217.602Z" fill="black"/>
<path d="M342.715 225.569C345.466 225.569 347.696 223.34 347.696 220.59C347.696 217.839 345.466 215.61 342.715 215.61C339.964 215.61 337.733 217.839 337.733 220.59C337.733 223.34 339.964 225.569 342.715 225.569Z" fill="#2579F2"/>
<path d="M259.029 23.9014H233.126V49.7945H259.029V23.9014Z" fill="#F0F0F0"/>
<path d="M334.246 42.8233C333.064 42.8233 331.908 42.4728 330.925 41.8162C329.942 41.1597 329.176 40.2264 328.724 39.1346C328.271 38.0427 328.153 36.8413 328.383 35.6822C328.614 34.5231 329.183 33.4584 330.019 32.6227C330.855 31.7871 331.92 31.218 333.08 30.9874C334.24 30.7568 335.441 30.8752 336.534 31.3274C337.626 31.7797 338.56 32.5456 339.216 33.5282C339.873 34.5108 340.224 35.6661 340.224 36.8479C340.222 38.4321 339.592 39.951 338.471 41.0712C337.35 42.1914 335.831 42.8215 334.246 42.8233ZM334.246 31.8685C333.261 31.8685 332.298 32.1605 331.479 32.7077C330.659 33.2548 330.021 34.0325 329.644 34.9424C329.267 35.8523 329.168 36.8534 329.361 37.8194C329.553 38.7853 330.027 39.6725 330.724 40.3689C331.42 41.0653 332.308 41.5396 333.274 41.7317C334.241 41.9238 335.242 41.8252 336.152 41.4483C337.063 41.0715 337.841 40.4332 338.388 39.6144C338.935 38.7955 339.227 37.8328 339.227 36.8479C339.226 35.5278 338.701 34.2621 337.767 33.3286C336.833 32.3951 335.567 31.87 334.246 31.8685Z" fill="#3F3D56"/>
<path d="M202.74 125.98H189.788V113.033H202.74V125.98ZM190.784 124.984H201.743V114.029H190.784V124.984Z" fill="#3F3D56"/>
<path d="M400 222.581H387.049V209.635H400V222.581ZM388.045 221.585H399.004V210.631H388.045V221.585Z" fill="#3F3D56"/>
<path d="M144.46 135.773L146.683 136.969L154.245 141.044L166.455 147.62L173.57 134.423C174.24 133.183 174.659 131.824 174.803 130.422C174.946 129.02 174.812 127.603 174.407 126.253C174.003 124.903 173.336 123.646 172.445 122.554C171.554 121.462 170.456 120.556 169.214 119.889C166.561 118.457 163.521 117.903 160.532 118.308C157.544 118.714 154.762 120.057 152.586 122.144L152.582 122.148C151.512 123.176 150.608 124.364 149.905 125.671L144.46 135.773Z" fill="#2F2E41"/>
<path d="M177.783 270.353L176.292 286.754L170.698 287.5L166.969 268.861L177.783 270.353Z" fill="#FFB8B8"/>
<path d="M169.206 287.5C169.206 287.5 176.291 283.772 177.783 286.755C177.783 286.755 176.664 295.701 181.139 296.82C185.614 297.938 187.479 305.766 181.139 306.512C174.8 307.257 170.698 305.021 168.46 305.021C166.223 305.021 168.46 297.192 168.46 297.192L169.206 287.5Z" fill="#2F2E41"/>
<path d="M132.66 270.353L134.152 286.754L139.746 287.5L143.475 268.861L132.66 270.353Z" fill="#FFB8B8"/>
<path d="M141.237 287.5C141.237 287.5 134.152 283.772 132.66 286.755C132.66 286.755 133.779 295.701 129.304 296.82C124.829 297.938 122.964 305.766 129.304 306.512C135.643 307.257 139.746 305.021 141.983 305.021C144.221 305.021 141.983 297.192 141.983 297.192L141.237 287.5Z" fill="#2F2E41"/>
<path d="M163.24 138.763C168.595 138.763 172.936 134.423 172.936 129.07C172.936 123.717 168.595 119.378 163.24 119.378C157.885 119.378 153.544 123.717 153.544 129.07C153.544 134.423 157.885 138.763 163.24 138.763Z" fill="#FFB8B8"/>
<path d="M132.288 148.082L140.119 160.384L149.442 159.638L164.732 160.756C164.732 160.756 166.175 157.871 167.353 155.064C167.999 153.662 168.495 152.197 168.834 150.691C169.207 148.082 163.986 145.473 163.986 145.473C163.986 145.473 163.781 145.435 163.438 145.353C162.983 145.245 162.282 145.066 161.513 144.805C159.779 144.216 157.695 143.217 157.273 141.745C156.528 139.135 162.121 135.408 162.121 135.408L155.409 129.07C155.409 129.07 149.446 137.35 142.204 139.236C141.784 139.347 141.358 139.434 140.929 139.497C140.906 139.501 140.888 139.504 140.865 139.508C133.034 140.626 132.288 148.082 132.288 148.082Z" fill="#FFB8B8"/>
<path d="M136.39 144.727L132.288 148.082C132.288 148.082 128.932 164.111 130.05 168.585C131.169 173.058 129.677 177.158 129.677 177.904C129.677 178.65 126.321 206.608 126.321 206.608C126.321 206.608 119.609 221.519 126.694 220.028C133.779 218.537 131.169 203.626 131.169 203.626L139.746 177.531V155.537L136.39 144.727Z" fill="#FFB8B8"/>
<path d="M165.85 147.709L168.833 149.946L170.325 181.259L181.513 208.099C181.513 208.099 189.717 221.146 184.496 221.519C179.275 221.892 175.919 208.099 175.919 208.099L165.85 182.377L164.358 157.401L165.85 147.709Z" fill="#FFB8B8"/>
<path d="M147.204 149.946C147.204 149.946 154.662 155.165 166.595 153.301C166.595 153.301 169.952 160.011 168.087 163.739C166.223 167.466 170.325 176.413 171.07 177.531C171.816 178.65 180.393 201.762 183.377 226.738C186.36 251.714 194.564 268.861 187.479 271.098C180.393 273.335 165.85 275.944 164.358 273.707C162.866 271.471 160.629 215.927 160.629 215.927L156.527 237.175C156.527 237.175 162.12 273.335 158.018 274.08C153.916 274.826 128.185 272.589 128.931 268.116C129.677 263.642 137.135 240.158 137.135 240.158C137.135 240.158 136.762 193.188 144.221 184.241C144.221 184.241 147.204 179.395 143.102 173.058C139 166.721 139.373 156.656 139.373 156.656C139.373 156.656 142.356 156.656 147.204 149.946Z" fill="#2F2E41"/>
<path d="M140.928 139.497L147.204 153.301L148.696 152.555L142.203 139.236L140.928 139.497Z" fill="#2F2E41"/>
<path d="M161.513 144.805L166.223 155.165L167.353 155.064L166.968 153.301L163.437 145.353C162.982 145.245 162.281 145.066 161.513 144.805Z" fill="#2F2E41"/>
<path d="M146.682 136.969C147.041 138.123 147.732 139.144 148.669 139.907C149.606 140.669 150.747 141.138 151.949 141.255C153.152 141.372 154.362 141.132 155.428 140.565C156.495 139.997 157.37 139.128 157.944 138.065C153.227 131.9 157.273 128.027 164.937 125.097C165.514 124.026 165.759 122.807 165.642 121.596C165.524 120.386 165.049 119.237 164.277 118.297C162.164 118.027 160.018 118.232 157.995 118.898C155.973 119.564 154.124 120.673 152.586 122.144L152.582 122.148L147.137 132.243C146.75 132.96 146.51 133.748 146.431 134.56C146.353 135.372 146.439 136.191 146.682 136.969Z" fill="#2F2E41"/>
<path d="M157.459 132.425C158.18 132.425 158.765 131.424 158.765 130.189C158.765 128.953 158.18 127.952 157.459 127.952C156.739 127.952 156.154 128.953 156.154 130.189C156.154 131.424 156.739 132.425 157.459 132.425Z" fill="#FFB8B8"/>
<path d="M161.349 126.539L172.558 131.616L174.613 127.083C174.259 125.427 173.518 123.877 172.45 122.562L164.735 119.069L161.349 126.539Z" fill="#2F2E41"/>
<path d="M188.294 226.565C191.045 226.565 193.275 224.336 193.275 221.585C193.275 218.835 191.045 216.606 188.294 216.606C185.543 216.606 183.312 218.835 183.312 221.585C183.312 224.336 185.543 226.565 188.294 226.565Z" fill="#2579F2"/>
<path d="M28.3717 256.166C30.1696 256.166 31.6272 254.709 31.6272 252.912C31.6272 251.115 30.1696 249.658 28.3717 249.658C26.5737 249.658 25.1162 251.115 25.1162 252.912C25.1162 254.709 26.5737 256.166 28.3717 256.166Z" fill="#FF6584"/>
<path d="M44.8195 269.872H43.8232V306.925H44.8195V269.872Z" fill="#3F3D56"/>
<path d="M44.3218 275.112C47.2168 275.112 49.5636 272.766 49.5636 269.872C49.5636 266.978 47.2168 264.633 44.3218 264.633C41.4269 264.633 39.0801 266.978 39.0801 269.872C39.0801 272.766 41.4269 275.112 44.3218 275.112Z" fill="#3F3D56"/>
<path d="M44.3213 292.709C44.3213 292.709 43.5725 276.609 28.2217 278.481L44.3213 292.709Z" fill="#3F3D56"/>
</svg>
