<svg width="500" height="373" viewBox="0 0 500 373" fill="none" xmlns="http://www.w3.org/2000/svg">
<g clip-path="url(#clip0)">
<path d="M500 327.4H0V327.6H500V327.4Z" fill="#EBEBEB"/>
<path d="M449.9 343.5H428.2V343.7H449.9V343.5Z" fill="#EBEBEB"/>
<path d="M344.7 338.4H310.6V338.6H344.7V338.4Z" fill="#EBEBEB"/>
<path d="M441.1 334.3H396.6V334.5H441.1V334.3Z" fill="#EBEBEB"/>
<path d="M173 339.3H161.9V339.5H173V339.3Z" fill="#EBEBEB"/>
<path d="M153 339.3H114.6V339.5H153V339.3Z" fill="#EBEBEB"/>
<path d="M93.9998 335.1H66.2998V335.3H93.9998V335.1Z" fill="#EBEBEB"/>
<path d="M237 282.8H43.9002C40.8002 282.8 38.2002 280.2 38.2002 277.1V5.7C38.2002 2.6 40.8002 0 43.9002 0H237C240.1 0 242.7 2.6 242.7 5.7V277.1C242.7 280.3 240.2 282.8 237 282.8ZM43.9002 0.2C40.9002 0.2 38.4002 2.6 38.4002 5.7V277.1C38.4002 280.1 40.8002 282.6 43.9002 282.6H237C240 282.6 242.5 280.2 242.5 277.1V5.7C242.5 2.7 240.1 0.2 237 0.2H43.9002Z" fill="#EBEBEB"/>
<path d="M453.3 282.8H260.2C257.1 282.8 254.5 280.2 254.5 277.1V5.7C254.5 2.6 257.1 0 260.2 0H453.3C456.4 0 459 2.6 459 5.7V277.1C459 280.3 456.5 282.8 453.3 282.8ZM260.2 0.2C257.2 0.2 254.7 2.6 254.7 5.7V277.1C254.7 280.1 257.1 282.6 260.2 282.6H453.3C456.3 282.6 458.8 280.2 458.8 277.1V5.7C458.8 2.7 456.4 0.2 453.3 0.2H260.2Z" fill="#EBEBEB"/>
<path d="M216.1 145.9L216.6 132.8L208.5 130.2C208.2 125.7 207.4 121.3 206.3 117L213.1 112L208.5 99.7L200 100.4C198 96.4 195.6 92.6 193 89.1L197.4 81.8L188.4 72.2L180.8 76.1C177.4 73.2 173.8 70.6 170 68.3L171.2 59.9L159.2 54.5L153.7 60.9C149.5 59.5 145.2 58.5 140.7 57.9L138.7 49.7L125.5 49.2L122.9 57.3C118.4 57.7 114 58.4 109.7 59.5L104.6 52.7L92.2996 57.3L92.9996 65.8C88.9996 67.8 85.1996 70.2 81.5996 72.9L74.2996 68.5L64.6996 77.5L68.5996 85.1C65.6996 88.5 63.0996 92.1 60.7996 95.9L52.3996 94.6L46.8996 106.6L53.3996 112.1C51.9996 116.3 50.9996 120.7 50.3996 125.1L42.0996 127.2L41.5996 140.3L49.6996 142.9C49.9996 147.4 50.7996 151.8 51.8996 156.1L45.0996 161.1L49.6996 173.4L58.1996 172.7C60.1996 176.7 62.5996 180.5 65.1996 184.1L60.7996 191.4L69.7996 201L77.3996 197.1C80.7996 200 84.3996 202.6 88.1996 204.9L86.8996 213.3L98.8996 218.7L104.4 212.3C108.6 213.7 112.9 214.7 117.4 215.3L119.4 223.5L132.6 224L135.2 215.9C139.7 215.5 144.1 214.8 148.4 213.7L153.4 220.5L165.7 215.9L165.1 207.4C169.1 205.4 172.9 203 176.5 200.3L183.8 204.7L193.4 195.7L189.5 188.1C192.4 184.7 195 181.1 197.3 177.3L205.7 178.6L211.2 166.6L204.7 161.1C206.1 156.9 207.1 152.6 207.7 148.1L216.1 145.9ZM127.3 188.5C98.4996 187.5 75.9996 163.4 76.9996 134.6C77.9996 105.8 102.1 83.3 130.9 84.2C159.7 85.2 182.2 109.3 181.2 138.1C180.2 166.9 156.1 189.5 127.3 188.5Z" fill="#EBEBEB"/>
<path d="M441 102.5L444.3 99.4001L443 96.8001C444 95.6001 444.9 94.4 445.7 93.1L448.6 93.5L450.5 89.4001L448.3 87.5C448.8 86 449.1 84.5 449.4 83L452.3 82.3001L452.4 77.8001L449.6 76.9001C449.5 75.4001 449.2 73.8001 448.9 72.3001L451.2 70.6L449.6 66.3001L446.7 66.5C446 65.1 445.2 63.8 444.3 62.6L445.8 60.1L442.7 56.8L440.1 58.1C438.9 57.1 437.7 56.2001 436.4 55.4001L436.8 52.5L432.7 50.6L430.8 52.8C429.3 52.3 427.8 52 426.3 51.8L425.6 49L421.1 48.8L420.2 51.6C418.7 51.7 417.1 52 415.7 52.3L414 49.9001L409.7 51.5L409.9 54.4001C408.5 55.1001 407.2 55.9 406 56.8L403.5 55.3L400.2 58.4001L401.5 61C400.5 62.2 399.6 63.4 398.8 64.7L395.9 64.3001L394 68.4001L396.2 70.3001C395.7 71.8001 395.4 73.3001 395.1 74.8001L392.2 75.5L392.1 80L394.9 80.9001C395 82.4001 395.3 84 395.6 85.5L393.2 87.2L394.8 91.5L397.7 91.3001C398.4 92.7001 399.2 94 400.1 95.2L398.6 97.7L401.7 101L404.3 99.7C405.5 100.7 406.7 101.6 408 102.4L407.6 105.3L411.7 107.2L413.6 105C415.1 105.5 416.6 105.8 418.1 106L418.8 108.8L423.3 109L424.2 106.2C425.7 106.1 427.3 105.8 428.7 105.5L430.4 107.9L434.7 106.3L434.5 103.4C435.9 102.7 437.2 101.9 438.4 101L441 102.5ZM417.3 83.3001C414.9 80.7001 415 76.6 417.6 74.2C420.2 71.8 424.3 71.9 426.7 74.5C429.1 77.1 429 81.2 426.4 83.6C423.9 86.1 419.8 86.0001 417.3 83.3001Z" fill="#EBEBEB"/>
<path d="M320 237.4L309.7 230.3C308.7 226.5 307.3 222.9 305.5 219.5L308.1 209.1L293.1 193L282.5 194.9C279.2 192.9 275.7 191.3 272 190L265.6 179.2L243.6 178.4L236.5 188.7C232.7 189.7 229.1 191.1 225.7 192.9L215.3 190.3L199.2 205.3L201.1 215.8C199.1 219.1 197.5 222.6 196.2 226.3L185.4 232.7L184.6 254.7L195 261.8C196 265.6 197.4 269.2 199.1 272.6L196.5 283L211.5 299.1L222 297.2C225.3 299.2 228.8 300.8 232.5 302.1L238.9 312.9L260.9 313.7L268 303.4C271.8 302.4 275.4 301 278.9 299.2L289.2 301.8L305.3 286.8L303.4 276.3C305.4 273 307 269.5 308.3 265.8L319.1 259.4L320 237.4ZM251.5 270.8C237.8 270.3 227.2 258.9 227.6 245.3C228.1 231.6 239.5 221 253.1 221.4C266.8 221.9 277.4 233.3 277 246.9C276.6 260.5 265.2 271.2 251.5 270.8Z" fill="#EBEBEB"/>
<path d="M343.5 175L326.1 174.4C325.4 174.4 324.7 174 324.4 173.4L319.7 165.5C317.2 164.6 314.8 163.5 312.4 162.1L304.9 163.5C304.2 163.6 303.5 163.4 303 162.9L291.2 150.2C290.7 149.7 290.5 148.9 290.7 148.2L292.6 140.8C291.5 138.5 290.5 135.9 289.7 133.3L282.2 128.1C281.6 127.7 281.3 127 281.3 126.3L281.9 109C281.9 108.3 282.3 107.6 282.9 107.3L290.8 102.6C291.7 100 292.9 97.6 294.2 95.4L292.8 87.9C292.7 87.2 292.9 86.5 293.4 86L306.1 74.2C306.6 73.7 307.4 73.5 308.1 73.7L315.5 75.6C317.9 74.4 320.4 73.5 322.9 72.7L328.1 65.2C328.5 64.6 329.2 64.2 329.9 64.3L347.2 64.9C347.9 64.9 348.6 65.3 348.9 65.9L353.6 73.8C356.1 74.7 358.5 75.8 360.8 77.2L368.4 75.8C369.1 75.7 369.8 75.9 370.3 76.4L382.2 89C382.7 89.5 382.9 90.3 382.7 91L380.8 98.4C382 100.8 382.9 103.3 383.7 105.8L391.2 111C391.8 111.4 392.1 112.1 392.1 112.8L391.5 130.1C391.5 130.8 391.1 131.5 390.5 131.8L382.6 136.5C381.7 139.1 380.5 141.5 379.2 143.7L380.6 151.2C380.7 151.9 380.5 152.6 380 153.1L367.3 164.9C366.8 165.4 366 165.6 365.3 165.4L357.9 163.5C355.5 164.7 352.9 165.6 350.4 166.4L345.2 173.9C344.9 174.7 344.2 175 343.5 175ZM327.5 170.2L342.5 170.7L347.5 163.5C347.8 163.1 348.2 162.8 348.7 162.7C351.5 162 354.2 160.9 356.9 159.6C357.3 159.4 357.9 159.3 358.4 159.4L365.4 161.2L376.4 151L375.1 143.8C375 143.3 375.1 142.8 375.4 142.3C376.8 139.9 378.1 137.3 379.1 134.5C379.3 134 379.6 133.6 380 133.3L387.5 128.8L388 113.8L380.8 108.8C380.4 108.5 380.1 108.2 380 107.7C380 107.6 380 107.6 380 107.5C379.2 104.7 378.2 102 376.9 99.4C376.7 98.9 376.6 98.4 376.7 97.9L378.5 90.8L368.3 79.8L361.1 81.1C360.6 81.2 360.1 81.1 359.6 80.8C357.1 79.3 354.5 78.1 351.8 77.1C351.6 77 351.5 77 351.4 76.9C351.1 76.7 350.9 76.5 350.7 76.2L346 69L331 68.5L326 75.7C325.7 76.1 325.3 76.4 324.8 76.6C322 77.4 319.3 78.4 316.7 79.7C316.2 79.9 315.7 80 315.2 79.9L308.1 78.1L297.1 88.4L298.4 95.6C298.5 96.1 298.4 96.5 298.2 96.9C298.2 97 298.1 97 298.1 97.1C296.6 99.5 295.4 102.2 294.4 105C294.2 105.5 293.9 105.9 293.5 106.1L286 110.6L285.5 125.6L292.7 130.6C293.1 130.9 293.4 131.3 293.5 131.8C294.3 134.7 295.3 137.4 296.6 139.9C296.7 140 296.7 140.2 296.8 140.4C296.9 140.7 296.9 141.1 296.8 141.4L295 148.5L305.2 159.5L312.3 158.2C312.8 158.1 313.3 158.2 313.8 158.5C316.3 160 319 161.2 321.7 162.2C322.2 162.4 322.6 162.7 322.9 163.1L327.5 170.2ZM336.7 151.3C336.3 151.3 336 151.3 335.6 151.3C318.2 150.7 304.4 136 305 118.6C305.6 101.2 320.3 87.5 337.7 88C355.1 88.6 368.9 103.3 368.3 120.7C368 129.1 364.4 137 358.3 142.7C352.4 148.3 344.8 151.3 336.7 151.3ZM336.7 92.2C322 92.2 309.8 103.9 309.3 118.7C308.8 133.8 320.7 146.5 335.8 147.1C343.1 147.3 350.1 144.7 355.5 139.7C360.9 134.7 363.9 127.9 364.2 120.6C364.7 105.5 352.8 92.8 337.7 92.2C337.3 92.2 337 92.2 336.7 92.2Z" fill="#EBEBEB"/>
<path d="M383.4 50.4L376.3 48.4L374.3 41.3L377.1 38.5L380.1 44.6L386.2 47.6L383.4 50.4Z" fill="#E0E0E0"/>
<path d="M383.9 45.6C385.2 44.3 385.2 42.2 383.9 40.9C382.6 39.6 380.5 39.6 379.2 40.9L382.8 35.5L387.6 37.9L388.6 42.9L383.9 45.6Z" fill="#E0E0E0"/>
<path d="M376.6 39L381.9 33.7L389.1 35.6L391 42.8L385.7 48.1L378.5 46.2L376.6 39ZM386.1 43.3C387.4 42 387.4 39.9 386.1 38.6C384.8 37.3 382.7 37.3 381.4 38.6C380.1 39.9 380.1 42 381.4 43.3C382.7 44.6 384.8 44.6 386.1 43.3Z" fill="#F0F0F0"/>
<path d="M90.2002 241.8L94.1002 240.7L95.1002 236.9L93.6002 235.4L92.0002 238.7L88.7002 240.2L90.2002 241.8Z" fill="#E0E0E0"/>
<path d="M89.9994 239.2C89.2994 238.5 89.2994 237.4 89.9994 236.7C90.6994 236 91.7994 236 92.4994 236.7L90.5994 233.8L87.9994 235.1L87.3994 237.8L89.9994 239.2Z" fill="#E0E0E0"/>
<path d="M93.8998 235.7L91.0998 232.9L87.2998 233.9L86.2998 237.7L89.0998 240.5L92.8998 239.5L93.8998 235.7ZM88.7998 238C88.0998 237.3 88.0998 236.2 88.7998 235.5C89.4998 234.8 90.5998 234.8 91.2998 235.5C91.9998 236.2 91.9998 237.3 91.2998 238C90.5998 238.7 89.4998 238.7 88.7998 238Z" fill="#F0F0F0"/>
<path d="M76.3996 30.7L79.5996 33.9C80.3996 34.7 81.7996 34.7 82.5996 33.9C83.3996 33.1 83.3996 31.7 82.5996 30.9L79.3996 27.7C78.5996 26.9 77.1996 26.9 76.3996 27.7C75.4996 28.5 75.4996 29.9 76.3996 30.7Z" fill="#F0F0F0"/>
<path d="M74.0995 22.8C76.5995 21.9 79.1995 23.1 80.0995 25.4C80.8995 27.7 79.5995 30.3 77.0995 31.2C74.5995 32.1 71.9995 30.9 71.0995 28.6C70.2995 26.2 71.5995 23.6 74.0995 22.8Z" fill="#E0E0E0"/>
<path d="M70.645 27.9982L71.1182 29.3157L80.6233 25.9019L80.1501 24.5844L70.645 27.9982Z" fill="#F0F0F0"/>
<path d="M250 372.6C357.088 372.6 443.9 367.541 443.9 361.3C443.9 355.059 357.088 350 250 350C142.912 350 56.0996 355.059 56.0996 361.3C56.0996 367.541 142.912 372.6 250 372.6Z" fill="#F5F5F5"/>
<path d="M86.7002 65.7C85.7002 61.3 86.1002 57.6 88.0002 54.6C89.9002 51.6 93.0002 49.6 97.4002 48.6C101.9 47.6 105.6 48 108.6 49.9C111.6 51.8 113.6 54.9 114.5 59.2C115.2 62.4 115.3 65.1 114.7 67.3C114.1 69.6 112.9 71.5 111.2 73.1C109.4 74.7 107.1 75.8 104.1 76.5C101.1 77.2 98.4002 77.3 96.2002 76.8C94.0002 76.3 92.0002 75.1 90.3002 73.3C88.6002 71.3 87.4002 68.8 86.7002 65.7ZM95.1002 63.8C95.7002 66.5 96.7002 68.4 98.0002 69.3C99.3002 70.3 100.8 70.5 102.5 70.1C104.3 69.7 105.5 68.8 106.3 67.4C107.1 66 107 63.8 106.3 60.8C105.7 58.3 104.8 56.5 103.5 55.6C102.2 54.7 100.7 54.4 98.9002 54.8C97.2002 55.2 96.0002 56.1 95.3002 57.5C94.5002 59 94.4002 61.1 95.1002 63.8Z" fill="#263238"/>
<path d="M118.6 62.4C117.9 59.4 118.4 56.7 119.9 54.3C121.5 51.9 124 50.3 127.4 49.5C131.3 48.6 134.5 49.1 137 50.9C139 52.4 140.3 54.4 140.9 57.1C141.6 60.1 141.1 62.8 139.6 65.2C138 67.6 135.5 69.2 132 70C128.9 70.7 126.1 70.5 123.8 69.3C121.1 67.9 119.3 65.6 118.6 62.4ZM126.1 60.7C126.5 62.4 127.1 63.6 128 64.3C128.9 65 129.9 65.2 130.9 64.9C132 64.7 132.8 64 133.3 63.1C133.8 62.1 133.9 60.7 133.4 58.9C133 57.2 132.4 56 131.5 55.4C130.6 54.7 129.7 54.5 128.6 54.7C127.5 54.9 126.7 55.6 126.2 56.6C125.8 57.6 125.7 59 126.1 60.7Z" fill="#263238"/>
<path d="M148.6 73.6L142.5 46.6L149.5 45L150.2 47.9C150.9 46.5 151.6 45.4 152.3 44.8C153.3 44 154.4 43.4 155.7 43.1C158.3 42.5 160.6 43 162.4 44.7C164.3 46.4 165.6 48.7 166.2 51.6C166.9 54.9 166.7 57.5 165.6 59.6C164.4 61.7 162.7 63 160.3 63.5C159.1 63.8 158.1 63.8 157 63.6C156 63.4 155 63 154.1 62.4L156.2 71.7L148.6 73.6ZM152.2 54.8C152.6 56.3 153.1 57.4 154 58C154.8 58.6 155.7 58.8 156.7 58.6C157.6 58.4 158.2 57.9 158.6 57C159 56.1 159 54.9 158.7 53.1C158.3 51.5 157.8 50.4 157 49.8C156.2 49.2 155.4 49 154.5 49.2C153.5 49.4 152.8 50 152.4 50.9C151.9 51.8 151.8 53.1 152.2 54.8Z" fill="#263238"/>
<path d="M169.401 55.3L176.701 52.9C177.201 53.7 177.801 54.2 178.401 54.5C179.001 54.8 179.801 54.8 180.701 54.6C181.701 54.4 182.401 54 182.901 53.4C183.301 53 183.401 52.5 183.301 52.1C183.201 51.6 182.801 51.2 182.201 51C181.701 50.9 180.601 50.9 178.801 51C176.101 51.1 174.201 51.1 173.101 51C172.001 50.8 171.001 50.4 170.101 49.6C169.201 48.8 168.601 47.9 168.301 46.7C168.001 45.4 168.101 44.2 168.701 43.1C169.201 42 170.101 41.1 171.301 40.3C172.501 39.5 174.201 38.9 176.401 38.4C178.701 37.9 180.501 37.7 181.701 37.8C182.901 37.9 183.901 38.2 184.901 38.8C185.801 39.4 186.701 40.3 187.401 41.4L180.501 43.7C180.201 43.1 179.801 42.7 179.301 42.5C178.601 42.2 177.901 42.2 177.001 42.4C176.201 42.6 175.601 42.9 175.301 43.3C175.001 43.7 174.901 44.1 175.001 44.5C175.101 45 175.401 45.3 176.001 45.4C176.501 45.5 177.701 45.5 179.401 45.3C182.001 45 183.901 45 185.201 45.2C186.501 45.4 187.601 45.9 188.501 46.7C189.401 47.5 189.901 48.4 190.201 49.6C190.501 50.7 190.401 51.9 189.901 53.1C189.501 54.3 188.601 55.4 187.301 56.4C186.001 57.4 184.101 58.1 181.501 58.7C177.901 59.5 175.301 59.6 173.501 58.9C171.601 58.4 170.301 57.1 169.401 55.3Z" fill="#263238"/>
<path d="M193.8 30.6H202V36.9L200.5 49.6H195.4L193.8 36.9V30.6ZM194.2 51.5H201.9V58.3H194.2V51.5Z" fill="#263238"/>
<path d="M128.7 116.6C128.6 116.6 128.6 116.6 128.5 116.6C124 114.9 121.3 113.2 119.9 111.1C118.9 111.3 117.7 111.2 116.7 110.7C115.7 110.2 114.6 109.3 113.9 108.1C113.2 108.6 112.4 108.8 111.5 108.5C110.5 108.2 109.4 107.3 108.5 106.1C107.9 106.5 107.4 106.6 106.9 106.5C103.9 106.3 99.8996 100.3 99.5996 94C99.5996 93.7 99.7996 93.5 100.1 93.5C100.4 93.5 100.6 93.7 100.6 94C100.9 100 104.7 105.3 107 105.5C107.4 105.5 107.7 105.4 107.9 105.2C106.5 102.8 105.8 99.4 106.9 95.8C107.8 92.8 108.5 91.6 109.4 91.8C111.1 92.2 110.9 98.8 110 103.1C109.8 104.1 109.5 104.8 109.2 105.3C110 106.5 110.9 107.2 111.7 107.5C112.4 107.7 113 107.5 113.4 107.2C112.6 105.3 112.5 102.6 113.5 99.3C114.9 94.9 115.5 94.8 115.8 94.7C116 94.6 116.3 94.7 116.4 94.9C117.3 95.9 116.2 102.8 115.1 106.2C114.9 106.6 114.8 107 114.5 107.4C115.1 108.6 116 109.4 117 109.9C117.8 110.3 118.6 110.4 119.3 110.3C119.2 110.1 119.1 109.9 119.1 109.7C118.3 107.6 118.7 105.1 120.3 102.1C121.4 100.1 122.2 99.2 123 99.2C123.2 99.2 123.7 99.3 124 99.9C124.9 101.5 124.2 106.8 122.5 109.5C122.1 110.1 121.5 110.6 120.9 110.9C122.2 112.7 124.8 114.2 128.8 115.8C129.1 115.9 129.2 116.2 129.1 116.4C129.1 116.5 128.9 116.6 128.7 116.6ZM123 100.2C123 100.2 122.4 100.2 121.2 102.5C119.8 105.2 119.4 107.4 120.1 109.3C120.2 109.5 120.3 109.8 120.4 110C120.9 109.8 121.4 109.4 121.7 108.9C123.1 106.8 123.8 102.4 123.2 100.6C123.1 100.2 123 100.2 123 100.2ZM115.9 95.9C115.6 96.4 115.2 97.4 114.6 99.4C113.7 102.1 113.7 104.3 114.2 105.9C114.2 105.8 114.3 105.7 114.3 105.6C115.4 102.3 116 97.6 115.9 95.9ZM109.3 92.8C109.1 93 108.6 93.6 107.9 96C107 99.2 107.5 102.1 108.6 104.2C108.8 103.8 109 103.3 109.1 102.8C110.1 97.9 109.8 93.5 109.3 92.8Z" fill="#263238"/>
<path d="M166.7 169C165.2 169 163.6 168.7 162.1 167.8C161.9 167.7 161.8 167.4 161.9 167.1C162 166.9 162.3 166.8 162.6 166.9C166.2 169 170.8 167.5 171.7 166C171.8 165.8 171.9 165.6 171.8 165.3C170.4 165.4 168.7 165.1 166.7 163.8C164.2 162.2 164 161.7 164 161.4C164 161.2 164.1 161 164.3 160.9C165.3 160.4 169.8 162.5 171.7 163.7C171.9 163.9 172.2 164 172.3 164.2C173.1 164 173.8 163.6 174.2 163.1C174.5 162.7 174.7 162.4 174.8 162C174.7 162 174.7 162 174.6 162C173 162.2 171.4 161.5 169.7 159.9C168.5 158.8 168.1 158.1 168.2 157.5C168.2 157.3 168.4 157 168.9 156.8C170.3 156.5 173.7 157.9 175.1 159.4C175.4 159.7 175.6 160.1 175.7 160.6C177 160 178.4 158.6 180 156.3C180.2 156.1 180.5 156 180.7 156.2C180.9 156.4 181 156.7 180.8 156.9C178.9 159.5 177.3 161 175.8 161.6C175.7 162.3 175.4 163 174.9 163.6C174.4 164.2 173.7 164.7 172.7 165C172.8 165.5 172.7 165.9 172.4 166.4C171.8 168 169.4 169 166.7 169ZM165.8 162.1C166.1 162.3 166.6 162.7 167.3 163.1C168.7 163.9 169.9 164.3 170.9 164.4C169.3 163.4 167.1 162.5 165.8 162.1ZM169.3 157.9C169.4 158.1 169.6 158.5 170.5 159.3C172 160.7 173.3 161.3 174.6 161.1C174.7 161.1 174.8 161.1 174.9 161.1C174.8 160.8 174.7 160.5 174.5 160.3C173.1 158.7 170 157.7 169.3 157.9Z" fill="#263238"/>
<path d="M179.9 167.7L164.3 170.5L150.2 93.3L120.1 98.8L71.0996 185.8L76.3996 214.5L139.2 203.1L143.5 226.6L173.6 221.1L169.3 197.6L184.9 194.8L179.9 167.7ZM101.1 182L127.1 136.4L134.3 175.9L101.1 182Z" fill="#2579F2"/>
<path d="M305.399 88C304.799 82.7 303.799 77.9 302.199 73.8C300.699 69.7 298.299 65.6 295.199 61.6C292.099 57.6 287.899 54.2 282.499 51.2C277.099 48.3 270.099 46.2 261.299 45.1C242.999 42.7 228.699 46 218.499 54.8C208.299 63.7 201.499 80.7 198.299 105.8C196.999 116 196.699 125.5 197.299 134.1C197.999 142.8 199.599 149.8 202.099 155C205.599 162.4 210.399 168.3 216.699 172.8C222.999 177.2 231.699 180.2 242.599 181.6C262.199 184.2 276.699 180.4 286.199 170.3C295.599 160.2 301.899 143.2 304.999 119.2C306.499 108.7 306.599 98.2 305.399 88Z" fill="#2579F2"/>
<path d="M251.8 171.5C249.4 171.4 246.8 171.2 244.2 170.9C235 169.7 228 167.4 223.1 164C218.3 160.7 214.8 156.3 212.1 150.6V150.5C210.2 146.5 208.9 140.7 208.4 133.5C207.8 125.6 208.1 116.8 209.3 107.4C212.9 79.7 220.2 68.1 225.8 63.3C232.3 57.7 241 55.1 252.5 55.5C254.9 55.6 257.4 55.8 259.9 56.1C267.3 57.1 273.1 58.7 277.3 61C281.3 63.2 284.4 65.7 286.6 68.5C289 71.6 290.8 74.7 292 77.8C293.2 81.1 294.1 85 294.6 89.4C295.7 98.7 295.6 108.4 294.3 118.1C291.5 139.6 286.2 154.8 278.4 163.1C272.5 169.1 263.8 171.9 251.8 171.5Z" fill="#263238"/>
<path d="M271.299 88.3L271.399 84.5L269.099 83.7C268.999 82.4 268.799 81.1 268.499 79.9L270.499 78.4L269.199 74.8L266.799 75C266.199 73.8 265.499 72.8 264.799 71.7L266.099 69.6L263.499 66.8L261.299 67.9C260.299 67.1 259.299 66.3 258.199 65.6L258.599 63.2L255.099 61.6L253.499 63.5C252.299 63.1 250.999 62.8 249.699 62.6L249.099 60.2L245.299 60.1L244.499 62.4C243.199 62.5 241.899 62.7 240.699 63L239.199 61L235.599 62.3L235.799 64.7C234.599 65.3 233.599 66 232.499 66.7L230.399 65.4L227.599 68L228.699 70.2C227.899 71.2 227.099 72.2 226.499 73.3L224.099 72.9L222.499 76.4L224.399 78C223.999 79.2 223.699 80.5 223.499 81.8L221.099 82.4L220.999 86.2L223.299 87C223.399 88.3 223.599 89.6 223.899 90.8L221.899 92.3L223.199 95.9L225.599 95.7C226.199 96.9 226.899 97.9 227.599 99L226.299 101.1L228.899 103.9L231.099 102.8C232.099 103.6 233.099 104.4 234.199 105.1L233.799 107.5L237.299 109.1L238.899 107.2C240.099 107.6 241.399 107.9 242.699 108.1L243.299 110.5L247.099 110.6L247.899 108.3C249.199 108.2 250.499 108 251.699 107.7L253.199 109.7L256.799 108.4L256.599 106C257.799 105.4 258.799 104.7 259.899 104L261.999 105.3L264.799 102.7L263.699 100.5C264.499 99.5 265.299 98.5 265.899 97.4L268.299 97.8L269.899 94.3L267.999 92.7C268.399 91.5 268.699 90.2 268.899 88.9L271.299 88.3ZM245.699 100.6C237.399 100.3 230.899 93.4 231.199 85.1C231.499 76.8 238.399 70.3 246.699 70.6C254.999 70.9 261.499 77.8 261.199 86.1C260.999 94.4 253.999 100.9 245.699 100.6Z" fill="#2579F2"/>
<path opacity="0.3" d="M287.1 157.9L287.4 155.3L285.9 154.7C285.9 153.8 285.8 153 285.7 152.1L287.1 151.2L286.4 148.7H284.7C284.4 147.9 284 147.1 283.5 146.4L284.4 145L282.8 143L281.3 143.6C280.7 143 280 142.4 279.3 141.9L279.7 140.3L277.4 139.1L276.2 140.3C275.4 140 274.6 139.7 273.7 139.5L273.4 137.9L270.8 137.6L270.2 139.1C269.3 139.1 268.5 139.2 267.6 139.3L266.7 137.9L264.2 138.6V140.3C263.4 140.6 262.6 141 261.9 141.5L260.5 140.5L258.5 142.1L259.1 143.6C258.5 144.2 257.9 144.9 257.4 145.6L255.8 145.2L254.6 147.5L255.8 148.7C255.5 149.5 255.2 150.3 255 151.2L253.4 151.5L253.1 154.1L254.6 154.7C254.6 155.6 254.7 156.4 254.8 157.3L253.4 158.2L254.1 160.7H255.8C256.1 161.5 256.5 162.3 257 163L256 164.4L257.6 166.4L259.1 165.8C259.7 166.4 260.4 167 261.1 167.5L260.7 169.1L263 170.3L264.2 169.1C265 169.4 265.8 169.7 266.7 169.9L267 171.5L269.6 171.8L270.2 170.3C271.1 170.3 271.9 170.2 272.8 170.1L273.7 171.5L276.2 170.8V169.1C277 168.8 277.8 168.4 278.5 167.9L279.8 168.9L281.8 167.3L281.2 165.8C281.8 165.2 282.4 164.5 282.9 163.8L284.5 164.2L285.7 161.9L284.5 160.7C284.8 159.9 285.1 159.1 285.3 158.2L287.1 157.9ZM274.2 156.9C273 159.1 270.3 159.9 268.1 158.7C265.9 157.5 265.2 154.8 266.3 152.6C267.5 150.4 270.2 149.7 272.4 150.8C274.6 152.1 275.4 154.8 274.2 156.9Z" fill="#2579F2"/>
<path d="M301.299 114.7L298.299 112.6C297.999 111.5 297.599 110.5 297.099 109.5L297.899 106.5L293.599 101.9L290.599 102.5C289.699 101.9 288.599 101.5 287.599 101.1L285.699 98L279.399 97.8L277.299 100.8C276.199 101.1 275.199 101.5 274.199 102L271.199 101.2L266.599 105.5L267.199 108.5C266.599 109.5 266.199 110.5 265.799 111.5L262.699 113.3L262.499 119.6L265.499 121.7C265.799 122.8 266.199 123.8 266.699 124.8L265.899 127.8L270.199 132.4L273.199 131.8C274.199 132.4 275.199 132.8 276.199 133.2L277.999 136.3L284.299 136.5L286.399 133.5C287.499 133.2 288.499 132.8 289.499 132.3L292.499 133.1L297.099 128.8L296.499 125.8C297.099 124.8 297.499 123.8 297.899 122.8L300.999 120.9L301.299 114.7ZM281.599 124.3C277.699 124.2 274.599 120.9 274.699 116.9C274.799 113 278.099 109.9 282.099 110C285.999 110.1 289.099 113.4 288.999 117.4C288.799 121.4 285.499 124.5 281.599 124.3Z" fill="white"/>
<path d="M322.999 64.1999L323.499 62.9C323.899 62.7 324.199 62.5 324.499 62.2H325.699L327.099 60.2L326.699 59.0999C326.799 58.6999 326.899 58.3 326.999 57.9L327.999 57L327.599 54.7L326.299 54.2C326.099 53.8 325.899 53.5 325.599 53.2V52L323.599 50.5999L322.499 51C322.099 50.9 321.699 50.8 321.299 50.7L320.399 49.7L318.099 50.0999L317.599 51.4C317.199 51.6 316.899 51.7999 316.499 52.0999H315.299L313.899 54.0999L314.299 55.2C314.199 55.6 314.099 56 313.999 56.4L312.999 57.2999L313.399 59.5999L314.699 60.0999C314.899 60.4999 315.099 60.8 315.399 61.2V62.4L317.399 63.7999L318.499 63.4C318.899 63.5 319.299 63.6 319.699 63.7L320.599 64.6999L322.999 64.1999ZM317.999 57.7C317.699 56.2 318.699 54.8999 320.199 54.5999C321.699 54.2999 322.999 55.2999 323.299 56.7999C323.599 58.2999 322.599 59.6 321.099 59.9C319.599 60.1 318.199 59.1 317.999 57.7Z" fill="#2579F2"/>
<path d="M295.599 57.5L294.799 56.9C296.099 55.3 297.999 53.3 300.799 51.9L301.299 52.8C298.299 54.3 296.399 56.6 295.599 57.5Z" fill="#2579F2"/>
<path d="M303.599 51.8L303.199 50.9C306.999 49.3 310.899 48.6 314.899 49L314.799 50C310.999 49.7 307.199 50.3 303.599 51.8Z" fill="#2579F2"/>
<path d="M301.699 58.8L300.899 58.2C302.999 55.2 306.999 52.6 310.799 51.8L310.999 52.8C307.399 53.5 303.599 56 301.699 58.8Z" fill="#2579F2"/>
<path d="M235.3 155C235.2 155 235 154.9 234.9 154.8L232.8 152.6C231.7 152.5 230.7 152.3 229.7 152L226.4 153.4C226.2 153.5 226.1 153.5 225.9 153.4L220.4 149.8C220.3 149.7 220.2 149.5 220.2 149.4L220.3 145.8C219.6 145 219 144.1 218.5 143.1L215.7 142C215.5 141.9 215.4 141.8 215.4 141.6L214.1 135.2C214.1 135 214.1 134.9 214.2 134.7L216.4 132.6C216.5 131.5 216.7 130.5 217 129.5L215.6 126.2C215.5 126 215.5 125.9 215.6 125.7L219.2 120.2C219.3 120.1 219.4 120 219.6 120L223.2 120.1C224 119.4 224.9 118.8 225.9 118.3L227 115.5C227.1 115.3 227.2 115.2 227.4 115.2L233.8 113.9C234 113.9 234.1 113.9 234.3 114L236.4 116.2C237.5 116.3 238.5 116.5 239.6 116.8L242.9 115.4C243.1 115.3 243.2 115.3 243.4 115.4L248.9 119C249 119.1 249.1 119.3 249.1 119.4L249 123C249.7 123.8 250.3 124.7 250.8 125.7L253.6 126.8C253.8 126.9 253.9 127 253.9 127.2L255.2 133.6C255.2 133.8 255.2 133.9 255.1 134.1L252.9 136.2C252.8 137.3 252.6 138.3 252.3 139.3L253.7 142.6C253.8 142.8 253.8 142.9 253.7 143.1L250.1 148.6C250 148.7 249.9 148.8 249.7 148.8L246.1 148.7C245.3 149.4 244.4 150 243.4 150.5L242.3 153.3C242.2 153.5 242.1 153.6 241.9 153.6L235.3 155C235.4 155 235.4 155 235.3 155ZM229.7 151.1H229.8C230.9 151.4 232 151.6 233.1 151.7C233.2 151.7 233.3 151.8 233.4 151.9L235.4 154L241.3 152.8L242.4 150.1C242.4 150 242.5 149.9 242.6 149.8C243.6 149.3 244.6 148.7 245.4 147.9C245.5 147.8 245.6 147.8 245.7 147.8L249.2 147.9L252.5 142.9L251.1 139.7C251.1 139.6 251 139.5 251.1 139.4C251.4 138.3 251.6 137.2 251.7 136.1C251.7 136 251.8 135.9 251.8 135.8L253.9 133.8L252.7 127.9L250 126.8C249.9 126.8 249.8 126.7 249.7 126.6C249.2 125.6 248.6 124.7 247.8 123.8C247.7 123.7 247.7 123.6 247.7 123.5L247.8 120L242.8 116.7L239.6 118.1C239.5 118.1 239.4 118.2 239.3 118.1C238.2 117.8 237.1 117.6 236 117.5C235.9 117.5 235.8 117.4 235.7 117.4L233.7 115.3L227.8 116.5L226.7 119.2C226.7 119.3 226.6 119.4 226.5 119.5C225.5 120 224.6 120.6 223.7 121.4C223.6 121.5 223.5 121.5 223.4 121.5L219.9 121.4L216.6 126.4L218 129.6C218.1 129.7 218.1 129.9 218 130C217.7 131 217.5 132.1 217.4 133.2C217.4 133.3 217.3 133.4 217.3 133.5L215.2 135.5L216.4 141.4L219.1 142.5C219.2 142.5 219.3 142.6 219.4 142.8C219.9 143.8 220.5 144.7 221.2 145.6C221.3 145.7 221.3 145.8 221.3 145.9L221.2 149.4L226.2 152.7L229.4 151.3C229.6 151.1 229.6 151.1 229.7 151.1ZM234.6 147.8C232.1 147.8 229.5 147.1 227.3 145.6C224.3 143.6 222.3 140.6 221.6 137.1C220.9 133.6 221.6 130.1 223.5 127.1C227.6 121 235.9 119.3 242 123.3C248.1 127.4 249.8 135.6 245.7 141.8C243.2 145.7 238.9 147.8 234.6 147.8ZM224.4 127.7C222.6 130.4 221.9 133.7 222.6 137C223.3 140.2 225.1 143 227.9 144.8C233.6 148.6 241.2 147 245 141.3C248.8 135.6 247.2 128 241.5 124.2C235.8 120.5 228.1 122 224.4 127.7Z" fill="white"/>
<path d="M425.8 176.7L410.1 174.6L420.5 96.8L390.2 92.7L316.7 160.3L312.8 189.2L376.1 197.7L372.9 221.4L403.2 225.5L406.4 201.8L422.1 203.9L425.8 176.7ZM346.4 166L385.2 130.7L379.9 170.5L346.4 166Z" fill="#2579F2"/>
<path d="M394.1 224.8C393.7 224.7 393.6 224.5 393.6 224.2L417 96.3C417 96 417.3 95.9 417.6 95.9C417.9 95.9 418.1 96.2 418 96.5L394.7 224.4C394.6 224.6 394.4 224.8 394.1 224.8Z" fill="#263238"/>
<path d="M414.799 98.4C414.799 98.9 414.399 99.2 413.999 99.2C413.599 99.2 413.199 98.8 413.199 98.4C413.199 98 413.599 97.6 413.999 97.6C414.499 97.6 414.799 98 414.799 98.4Z" fill="#263238"/>
<path d="M411.499 115.7C411.499 116.2 411.099 116.5 410.699 116.5C410.199 116.5 409.899 116.1 409.899 115.7C409.899 115.2 410.299 114.9 410.699 114.9C411.199 114.9 411.499 115.3 411.499 115.7Z" fill="#263238"/>
<path d="M408.2 133C408.2 133.5 407.8 133.8 407.4 133.8C406.9 133.8 406.6 133.4 406.6 133C406.6 132.5 407 132.2 407.4 132.2C407.8 132.2 408.2 132.6 408.2 133Z" fill="#263238"/>
<path d="M401.599 151C401.599 151.5 401.199 151.8 400.799 151.8C400.399 151.8 399.999 151.4 399.999 151C399.999 150.5 400.399 150.2 400.799 150.2C401.199 150.2 401.599 150.6 401.599 151Z" fill="#263238"/>
<path d="M401.499 167.6C401.499 168.1 401.099 168.4 400.699 168.4C400.299 168.4 399.899 168 399.899 167.6C399.899 167.2 400.299 166.8 400.699 166.8C401.099 166.8 401.499 167.2 401.499 167.6Z" fill="#263238"/>
<path d="M398.2 184.9C398.2 185.4 397.8 185.7 397.4 185.7C397 185.7 396.6 185.3 396.6 184.9C396.6 184.4 397 184.1 397.4 184.1C397.8 184.1 398.2 184.5 398.2 184.9Z" fill="#263238"/>
<path d="M394.799 202.2C394.799 202.7 394.399 203 393.999 203C393.499 203 393.199 202.6 393.199 202.2C393.199 201.7 393.599 201.4 393.999 201.4C394.499 201.4 394.899 201.8 394.799 202.2Z" fill="#263238"/>
<path d="M391.499 219.5C391.499 220 391.099 220.3 390.699 220.3C390.199 220.3 389.899 219.9 389.899 219.5C389.899 219.1 390.299 218.7 390.699 218.7C391.199 218.7 391.499 219.1 391.499 219.5Z" fill="#263238"/>
<path d="M400.799 151.5C400.599 151.5 400.399 151.3 400.299 151.1C400.199 150.8 400.399 150.6 400.699 150.5L403.199 150C403.499 149.9 403.699 150.1 403.799 150.4C403.899 150.7 403.699 150.9 403.399 151L400.899 151.5H400.799Z" fill="#263238"/>
<path d="M409.1 142.3C409.1 142.3 406.9 148.1 406.1 151.7C405.3 155.2 405.3 163.1 405.3 163.1" fill="#263238"/>
<path d="M405.3 163.6C405 163.6 404.8 163.4 404.8 163.1C404.8 162.8 404.9 155.1 405.6 151.6C406.4 148.1 408.5 142.4 408.6 142.2C408.7 141.9 409 141.8 409.2 141.9C409.5 142 409.6 142.3 409.5 142.5C409.5 142.6 407.3 148.3 406.5 151.8C405.8 155.2 405.7 163 405.7 163.1C405.8 163.4 405.6 163.6 405.3 163.6Z" fill="#263238"/>
<path d="M222.5 249.9C223.9 227.5 221.3 186.8 263.4 192.2C308.5 198 295.6 250.8 295.6 250.8L222.5 249.9Z" fill="#263238"/>
<path d="M251.501 236.4C261.663 236.4 269.901 228.162 269.901 218C269.901 207.838 261.663 199.6 251.501 199.6C241.339 199.6 233.101 207.838 233.101 218C233.101 228.162 241.339 236.4 251.501 236.4Z" fill="white"/>
<path d="M253.901 199.7C245.201 198.2 235.901 204.6 235.001 211.1L269.501 214.3C268.301 206.9 260.801 200.9 253.901 199.7Z" fill="#263238"/>
<path d="M265.601 217.6C265.401 222.4 262.701 226.2 259.801 226C256.801 225.8 254.601 221.8 254.801 217C255.001 212.2 257.701 208.4 260.601 208.6C263.601 208.8 265.801 212.8 265.601 217.6Z" fill="#263238"/>
<path d="M251.501 237.4C240.801 237.4 232.101 228.7 232.101 218C232.101 207.3 240.801 198.6 251.501 198.6C262.201 198.6 270.901 207.3 270.901 218C270.901 228.7 262.201 237.4 251.501 237.4ZM251.501 200.7C241.901 200.7 234.101 208.5 234.101 218.1C234.101 227.7 241.901 235.5 251.501 235.5C261.101 235.5 268.901 227.7 268.901 218.1C268.901 208.5 261.101 200.7 251.501 200.7Z" fill="#2579F2"/>
<path opacity="0.3" d="M290.5 249.3H290.4C290.1 249.2 290 249 290 248.7C290 248.6 293.2 235 289.9 221.3C289.8 221 290 220.8 290.3 220.7C290.6 220.6 290.8 220.8 290.9 221.1C294.3 235.1 291 248.8 291 249C290.9 249.2 290.7 249.3 290.5 249.3Z" fill="white"/>
<path opacity="0.3" d="M287.701 213.8C287.501 213.8 287.301 213.7 287.201 213.5C285.901 210.7 284.301 208.1 282.501 205.8C282.301 205.6 282.401 205.3 282.601 205.1C282.801 204.9 283.101 205 283.301 205.2C285.201 207.5 286.901 210.2 288.201 213.1C288.301 213.4 288.201 213.6 288.001 213.8C287.801 213.8 287.801 213.8 287.701 213.8Z" fill="white"/>
<path d="M128.7 355C128.6 355 128.5 355 128.3 355C125.5 354.9 123.4 352.6 123.4 349.9C123.5 347.1 125.7 345 128.5 345H128.6C131.5 345 138.4 341.5 153 318.6C153.8 317.4 155.1 316.5 156.5 316.3C157.9 316.1 159.4 316.5 160.5 317.5C178.4 333.1 197.5 342.9 197.6 343C200.1 344.2 201 347.3 199.8 349.7C198.6 352.2 195.5 353.1 193.1 351.9C192.3 351.5 175.7 343 158.3 328.8C146.3 347 137.2 355 128.7 355Z" fill="#263238"/>
<path d="M159.7 316.5C159.6 316.5 159.4 316.5 159.3 316.5C157.7 316.3 156.5 314.7 156.8 313.1C157.5 308.1 156.6 289.5 150.3 275C149.7 273.7 150.2 272.1 151.4 271.3C165.1 262 194.3 260.8 195.5 260.8C197.1 260.8 198.5 262 198.6 263.7C198.7 265.4 197.4 266.7 195.7 266.8C195.4 266.8 169.9 267.8 156.8 275C162.4 289.4 163.6 307.4 162.7 313.9C162.4 315.5 161.1 316.5 159.7 316.5Z" fill="#263238"/>
<path d="M164.701 312.7C162.701 308 153.701 308.5 148.401 312.6C145.601 314.8 141.801 321.2 141.401 323.6C141.001 326 142.601 328.1 145.401 327.8C148.801 327.5 153.601 322.5 153.601 322.5C150.501 325.6 154.501 327.8 160.601 323.3C163.901 320.8 166.901 317.9 164.701 312.7Z" fill="#2579F2"/>
<path d="M336.7 251.2H336.6C336.3 251.1 336.2 250.8 336.3 250.6C337.6 246 339.1 243.1 341 241.5C340.7 240.5 340.7 239.4 341.2 238.2C341.6 237.1 342.4 236 343.6 235.2C343 234.6 342.8 233.8 343 232.8C343.2 231.8 344 230.6 345.1 229.6C344.6 229.1 344.5 228.5 344.5 228.1C344.5 225.1 350 220.6 356.3 219.7C356.6 219.6 356.8 219.9 356.9 220.1C356.9 220.4 356.7 220.6 356.5 220.7C350.6 221.5 345.6 225.8 345.6 228.1C345.6 228.5 345.7 228.8 346 229C348.3 227.4 351.6 226.4 355.3 227.1C358.4 227.7 359.6 228.3 359.5 229.3C359.2 231.1 352.7 231.4 348.3 230.9C347.3 230.8 346.6 230.5 346.1 230.3C345 231.2 344.3 232.2 344.1 233C343.9 233.7 344.2 234.3 344.6 234.6C346.5 233.6 349.1 233.2 352.5 234C357 235 357.2 235.6 357.3 235.9C357.4 236.1 357.3 236.4 357.1 236.6C356.1 237.6 349.2 237.1 345.7 236.3C345.2 236.2 344.8 236 344.5 235.8C343.3 236.5 342.6 237.5 342.2 238.5C341.9 239.3 341.8 240.1 342 240.8C342.2 240.7 342.4 240.6 342.6 240.5C344.7 239.5 347.2 239.7 350.3 241C352.3 241.9 353.3 242.7 353.4 243.4C353.4 243.6 353.4 244.1 352.8 244.4C351.3 245.4 345.9 245.3 343.2 243.8C342.5 243.5 342 242.9 341.7 242.3C340.1 243.8 338.7 246.5 337.5 250.7C337.1 251.1 336.9 251.2 336.7 251.2ZM342.1 241.9C342.4 242.4 342.8 242.8 343.3 243.1C345.6 244.3 350 244.6 351.7 243.9C352 243.8 352.1 243.6 352.1 243.6C352.1 243.6 352 243 349.6 242C346.8 240.8 344.6 240.6 342.8 241.5C342.6 241.6 342.3 241.7 342.1 241.9ZM345.5 235.3C345.6 235.3 345.7 235.3 345.8 235.4C349.3 236.3 354.1 236.4 355.7 236.1C355.2 235.9 354.2 235.5 352.1 235.1C349.2 234.5 347.1 234.7 345.5 235.3ZM346.7 229.7C347.2 229.9 347.7 230 348.1 230C353.1 230.6 357.5 229.9 358.1 229.3C357.9 229.1 357.3 228.7 354.8 228.2C351.6 227.6 348.7 228.4 346.7 229.7Z" fill="#263238"/>
<path d="M206.5 353.3C207.2 353.1 206.9 352.5 206.2 352.5H192.7C166.9 349.8 148.9 353.4 160.3 354.3C171.7 355.2 159.5 355 151.2 358.1C142.9 361.2 212.9 362 219.2 358.1C225 354.4 197.4 356.2 206.5 353.3Z" fill="#263238"/>
<path d="M303.501 357.3L185.701 353.4L180.801 239.2L319.901 242.3L303.501 357.3Z" fill="#2579F2"/>
<path d="M222.501 355.1C222.201 355.1 222.001 354.9 222.001 354.6L212.601 239.9C212.601 239.6 212.801 239.4 213.101 239.4C213.401 239.4 213.601 239.6 213.601 239.9L223.001 354.6C223.001 354.8 222.801 355.1 222.501 355.1Z" fill="#263238"/>
<path d="M303.5 357.3L335.1 352.5L345.1 246.3L319.9 242.3L303.5 357.3Z" fill="#2579F2"/>
<path opacity="0.2" d="M303.5 357.3L335.1 352.5L345.1 246.3L319.9 242.3L303.5 357.3Z" fill="black"/>
<path d="M195.7 331.4L192.8 263.5C192.5 256.4 198.2 250.6 205.3 250.7L293.4 252.7C300.8 252.9 306.3 259.4 305.3 266.7L295.5 335.1C294.6 341.3 289.2 345.8 282.9 345.6L207.5 343.1C201.2 342.9 196 337.8 195.7 331.4Z" fill="#263238"/>
<path d="M205.2 271.5L218.8 271.9L218.7 275.4L210.2 275.1L210.1 277.7L218 278L217.9 281.4L210 281.1L209.9 284.3L218.7 284.6L218.6 288.3L204.7 287.9L205.2 271.5Z" fill="white"/>
<path d="M221.4 288.5L221.9 272L230.4 272.3C232 272.3 233.2 272.5 234 272.8C234.8 273.1 235.5 273.6 236 274.4C236.5 275.1 236.7 276 236.7 277.1C236.7 278 236.5 278.8 236 279.4C235.6 280 235 280.6 234.3 281C233.9 281.2 233.3 281.4 232.5 281.6C233.1 281.8 233.5 282 233.8 282.2C234 282.3 234.2 282.6 234.6 283.1C234.9 283.6 235.2 283.9 235.3 284.1L237.6 288.9L231.9 288.7L229.3 283.6C229 282.9 228.7 282.5 228.4 282.3C228 282 227.6 281.9 227.2 281.9H226.8L226.6 288.6L221.4 288.5ZM226.8 278.9L228.9 279C229.1 279 229.6 278.9 230.3 278.8C230.6 278.7 230.9 278.6 231.1 278.3C231.3 278 231.4 277.7 231.5 277.4C231.5 276.9 231.4 276.5 231 276.2C230.7 275.9 230 275.7 229.1 275.7L226.9 275.6L226.8 278.9Z" fill="white"/>
<path d="M239.3 289.1L239.8 272.6L248.3 272.9C249.9 273 251.1 273.1 251.9 273.4C252.7 273.7 253.4 274.2 253.9 275C254.4 275.7 254.6 276.6 254.6 277.7C254.6 278.6 254.4 279.4 253.9 280C253.5 280.6 252.9 281.2 252.2 281.6C251.8 281.8 251.2 282 250.4 282.2C251 282.4 251.4 282.6 251.7 282.8C251.9 282.9 252.1 283.2 252.5 283.7C252.8 284.2 253.1 284.5 253.2 284.7L255.5 289.5L249.8 289.3L247.2 284.2C246.9 283.5 246.6 283.1 246.3 282.9C245.9 282.6 245.5 282.5 245.1 282.5H244.7L244.5 289.2L239.3 289.1ZM244.7 279.5L246.8 279.6C247 279.6 247.5 279.5 248.2 279.4C248.5 279.3 248.8 279.2 249 278.9C249.2 278.6 249.3 278.3 249.4 278C249.4 277.5 249.3 277.1 248.9 276.8C248.6 276.5 247.9 276.3 247 276.3L244.8 276.2L244.7 279.5Z" fill="white"/>
<path d="M256.3 281.4C256.4 278.7 257.2 276.6 258.7 275.2C260.2 273.8 262.4 273.1 265 273.2C267.7 273.3 269.8 274.1 271.3 275.6C272.7 277.1 273.4 279.2 273.3 281.8C273.2 283.7 272.9 285.3 272.2 286.5C271.5 287.7 270.5 288.6 269.3 289.3C268.1 289.9 266.5 290.2 264.7 290.2C262.8 290.1 261.3 289.8 260.1 289.2C258.9 288.6 257.9 287.6 257.2 286.3C256.6 284.9 256.3 283.3 256.3 281.4ZM261.4 281.6C261.3 283.3 261.6 284.5 262.2 285.2C262.8 285.9 263.6 286.3 264.7 286.4C265.8 286.4 266.6 286.1 267.3 285.4C267.9 284.7 268.3 283.4 268.3 281.6C268.3 280.1 268.1 278.9 267.5 278.2C266.9 277.5 266.1 277.1 265 277C264 277 263.1 277.3 262.5 278C261.8 278.7 261.5 279.9 261.4 281.6Z" fill="white"/>
<path d="M275.9 290.3L276.4 273.8L284.9 274.1C286.5 274.2 287.7 274.3 288.5 274.6C289.3 274.9 290 275.4 290.5 276.2C291 276.9 291.2 277.8 291.2 278.9C291.2 279.8 291 280.6 290.5 281.2C290.1 281.8 289.5 282.4 288.8 282.8C288.4 283 287.8 283.2 287 283.4C287.6 283.6 288 283.8 288.3 284C288.5 284.1 288.7 284.4 289.1 284.9C289.4 285.4 289.7 285.7 289.8 285.9L292.1 290.7L286.4 290.5L283.8 285.4C283.5 284.7 283.2 284.3 282.9 284.1C282.5 283.8 282.1 283.7 281.7 283.7H281.3L281.1 290.4L275.9 290.3ZM281.3 280.6L283.4 280.7C283.6 280.7 284.1 280.6 284.8 280.5C285.1 280.4 285.4 280.3 285.6 280C285.8 279.7 285.9 279.4 286 279.1C286 278.6 285.9 278.2 285.5 277.9C285.2 277.6 284.5 277.4 283.6 277.4L281.4 277.3L281.3 280.6Z" fill="white"/>
<path d="M284.001 318.2C283.601 318.2 283.301 318.1 283.001 317.8L274.401 308.4L265.201 316.8C264.701 317.3 263.801 317.3 263.301 316.7L254.701 307.3L245.501 315.7C245.001 316.2 244.101 316.2 243.601 315.6L235.001 306.2L225.801 314.6C225.501 314.8 225.201 315 224.901 314.9C224.601 314.9 224.201 314.7 224.001 314.5L215.401 305.1L206.201 313.5C205.701 314 204.801 314 204.301 313.4C203.801 312.9 203.801 312 204.401 311.5L214.601 302.2C215.101 301.7 216.001 301.7 216.501 302.3L225.101 311.7L234.301 303.3C234.601 303.1 234.901 302.9 235.201 303C235.501 303 235.901 303.2 236.101 303.4L244.701 312.8L253.901 304.4C254.401 303.9 255.301 303.9 255.801 304.5L264.401 313.9L273.601 305.5C274.101 305 275.001 305 275.501 305.6L285.001 316C285.501 316.5 285.501 317.4 284.901 317.9C284.601 318.1 284.301 318.2 284.001 318.2Z" fill="white"/>
<path d="M125.8 359.7L119.5 356.7L113.9 329.6L116.9 326.2L125.8 359.7Z" fill="#2579F2"/>
<path d="M125.8 359.7L134.1 354.9L126.9 332.5L116.9 326.2L125.8 359.7Z" fill="#2579F2"/>
<path opacity="0.2" d="M125.8 359.7L134.1 354.9L126.9 332.5L116.9 326.2L125.8 359.7Z" fill="black"/>
<path d="M261.901 364.7C261.701 364.7 261.401 364.7 261.201 364.7C258.401 364.6 256.301 362.3 256.301 359.6C256.401 356.8 258.701 354.7 261.401 354.7C269.101 355 285.401 350.2 294.701 341.2C295.301 340.6 296.001 340.2 296.701 340C312.501 335.3 318.401 344.8 318.601 345.2L310.001 350.3C310.001 350.3 310.001 350.4 310.101 350.5C310.001 350.4 307.801 347.5 300.601 349.3C289.201 359.9 271.201 364.7 261.901 364.7Z" fill="#263238"/>
<path d="M261.4 371.3L243.2 370.2L241.7 336.6L266.2 337.5L261.4 371.3Z" fill="#2579F2"/>
<path d="M261.4 371.3L265.7 367.1L268.3 346.1L266.2 337.5L261.4 371.3Z" fill="#2579F2"/>
<path opacity="0.2" d="M261.4 371.3L265.7 367.1L268.3 346.1L266.2 337.5L261.4 371.3Z" fill="black"/>
<path d="M366.9 358.6C366.3 358.6 365.6 358.4 365.1 358C354.7 350.1 340.7 336.1 335.3 322.5C335.2 322.3 335.2 322.1 335.1 321.9C332.5 306.3 330 273.4 329.9 272C329.8 270.3 331 268.9 332.7 268.8C334.3 268.7 335.8 269.9 335.9 271.6C335.9 271.9 338.5 305.2 341 320.7C346.4 333.9 361 347.4 368.8 353.3C370.1 354.3 370.4 356.2 369.4 357.5C368.7 358.2 367.8 358.6 366.9 358.6Z" fill="#263238"/>
<path d="M380.801 360.1C378.501 360.1 375.901 359 373.001 357C371.701 356 371.401 354.2 372.301 352.8C373.301 351.5 375.101 351.2 376.501 352.1C379.001 353.9 380.301 354.1 380.801 354.1C382.501 354.1 383.801 355.4 383.801 357.1C383.801 358.8 382.401 360.1 380.801 360.1Z" fill="#263238"/>
<path d="M373.8 356.9C377 347.4 390.2 349.2 394.7 350.7C399.2 352.1 403.3 353.9 405.8 355.5C408.3 357.1 408.3 359.8 405 361.3C401 363.2 390.8 361.5 390.8 361.5C396 363.8 390.8 367.5 381.6 363.9C378.6 362.7 372.7 360.4 373.8 356.9Z" fill="#2579F2"/>
<path d="M341.9 276.1C340.7 284.2 334 290.2 328.5 289.4C323 288.6 322.8 281.4 324 273.3C325.2 265.2 327.3 259.3 332.8 260.1C338.3 260.8 343.1 268 341.9 276.1Z" fill="#263238"/>
<path d="M209.901 243.7C210.342 243.7 210.701 243.342 210.701 242.9C210.701 242.458 210.342 242.1 209.901 242.1C209.459 242.1 209.101 242.458 209.101 242.9C209.101 243.342 209.459 243.7 209.901 243.7Z" fill="#263238"/>
<path d="M218.201 248.8C218.201 249.3 217.801 249.6 217.401 249.6C217.001 249.6 216.601 249.2 216.601 248.8C216.601 248.3 217.001 248 217.401 248C217.801 248 218.201 248.4 218.201 248.8Z" fill="#263238"/>
<path d="M219.1 345.7C219.1 346.2 218.7 346.5 218.3 346.5C217.8 346.5 217.5 346.1 217.5 345.7C217.5 345.2 217.9 344.9 218.3 344.9C218.8 344.9 219.1 345.3 219.1 345.7Z" fill="#263238"/>
<path d="M226.6 351.6C226.6 352.1 226.2 352.4 225.8 352.4C225.3 352.4 225 352 225 351.6C225 351.1 225.4 350.8 225.8 350.8C226.3 350.8 226.6 351.2 226.6 351.6Z" fill="#263238"/>
<path d="M82.4998 361.5C80.0998 361.5 76.8998 360.1 75.1998 357.6C74.9998 357.4 75.0998 357.1 75.2998 356.9C75.4998 356.7 75.7998 356.8 75.9998 357C77.8998 359.7 81.9998 361.1 83.7998 360.3C83.9998 360.2 84.0998 360.1 84.2998 360C82.6998 359.2 81.1998 357.8 80.7998 355.5C80.5998 354.2 80.3998 352.5 81.3998 352.3C82.7998 352 84.6998 355.4 85.3998 358.1C85.4998 358.6 85.5998 359 85.4998 359.4C86.0998 359.6 86.7998 359.6 87.2998 359.5C87.6998 359.4 88.2998 359.3 88.6998 358.8C87.4998 358 86.6998 356.5 86.3998 354.6C85.9998 351.9 86.2998 351.4 86.5998 351.2C86.7998 351 86.9998 351 87.2998 351.1C88.3998 351.6 89.6998 355.4 89.8998 357.6C89.8998 357.8 89.8998 358.1 89.8998 358.3C90.2998 358.5 90.7998 358.6 91.1998 358.6C92.0998 358.6 92.8998 358.4 93.5998 358C93.4998 357.9 93.2998 357.8 93.1998 357.7C92.1998 356.8 91.6998 355.4 91.8998 353.4C91.9998 351.8 92.3998 351 92.9998 350.7C93.1998 350.6 93.6998 350.5 94.1998 350.9C95.2998 351.8 96.2998 354.5 95.8998 356.5C95.7998 356.9 95.6998 357.3 95.3998 357.7C97.1998 358 99.7998 357.5 102 357C102.3 356.9 102.5 357.1 102.6 357.4C102.7 357.7 102.5 357.9 102.2 358C99.4998 358.7 96.5998 359.2 94.4998 358.6C93.5998 359.3 92.2998 359.8 90.9998 359.8C90.3998 359.8 89.8998 359.7 89.3998 359.5C88.9998 360.2 88.2998 360.6 87.2998 360.8C86.5998 360.9 85.8998 360.8 85.0998 360.6C84.8998 361 84.4998 361.3 84.0998 361.5C83.6998 361.4 83.1998 361.5 82.4998 361.5ZM81.5998 353.2C81.4998 353.4 81.3998 353.9 81.6998 355.2C81.9998 357 83.1998 358.3 84.4998 358.9C84.4998 358.7 84.4998 358.5 84.3998 358.2C83.6998 355.4 82.1998 353.4 81.5998 353.2ZM87.1998 352.3C87.1998 352.7 87.1998 353.3 87.3998 354.4C87.5998 355.8 88.0998 356.9 88.8998 357.6C88.6998 355.6 87.7998 353.3 87.1998 352.3ZM93.4998 351.4C93.4998 351.4 93.0998 351.6 92.9998 353.3C92.8998 355 93.1998 356.1 93.8998 356.8C94.0998 357 94.2998 357.1 94.4998 357.2C94.7998 356.9 94.9998 356.5 94.9998 356.2C95.2998 354.8 94.5998 352.6 93.7998 351.8C93.6998 351.5 93.4998 351.4 93.4998 351.4Z" fill="#263238"/>
<path d="M228.9 369L231.6 364.3L228.9 359.6H226L227.6 364.3L226 369H228.9Z" fill="#263238"/>
<path d="M226.2 366.8C224.9 366.8 223.8 365.7 223.8 364.3C223.8 363 224.9 361.9 226.2 361.9L221.6 361L220.4 364.7L222.5 367.8L226.2 366.8Z" fill="#263238"/>
<path d="M226.6 359.6H221.2L218.5 364.3L221.2 369H226.6L229.3 364.3L226.6 359.6ZM223.8 366.8C222.5 366.8 221.4 365.7 221.4 364.3C221.4 363 222.5 361.9 223.8 361.9C225.2 361.9 226.2 363 226.2 364.3C226.3 365.7 225.2 366.8 223.8 366.8Z" fill="#2579F2"/>
<path d="M417.899 359.3L415.899 355.8L417.899 352.3H419.999L418.799 355.8L419.999 359.3H417.899Z" fill="#2579F2"/>
<path d="M419.899 357.6C420.899 357.6 421.699 356.8 421.699 355.8C421.699 354.8 420.899 354 419.899 354L423.299 353.3L424.199 356.1L422.699 358.4L419.899 357.6Z" fill="#2579F2"/>
<path d="M419.6 352.3H423.6L425.6 355.8L423.6 359.3H419.6L417.6 355.8L419.6 352.3ZM421.6 357.6C422.6 357.6 423.4 356.8 423.4 355.8C423.4 354.8 422.6 354 421.6 354C420.6 354 419.8 354.8 419.8 355.8C419.8 356.8 420.6 357.6 421.6 357.6Z" fill="#263238"/>
<path d="M342.9 363.9H347.4C348.6 363.9 349.5 362.9 349.5 361.8C349.5 360.6 348.5 359.7 347.4 359.7H342.9C341.7 359.7 340.8 360.7 340.8 361.8C340.8 363 341.8 363.9 342.9 363.9Z" fill="#263238"/>
<path d="M335.7 359.9C336.8 357.5 339.5 356.5 341.7 357.5C343.9 358.5 344.8 361.3 343.7 363.7C342.6 366.1 339.9 367.1 337.7 366.1C335.5 365 334.6 362.3 335.7 359.9Z" fill="#2579F2"/>
<path d="M336.96 366.003L338.227 366.6L342.534 357.465L341.268 356.868L336.96 366.003Z" fill="#263238"/>
</g>
<defs>
<clipPath id="clip0">
<rect width="500" height="372.6" fill="white"/>
</clipPath>
</defs>
</svg>
