<svg width="24" height="24" viewBox="0 0 24 24" fill="currentColor" xmlns="http://www.w3.org/2000/svg">
<g clip-path="url(#clip0_2180_6638)">
<path d="M18.0026 5.59505H6.00001C5.01073 5.59491 4.03676 5.83904 3.16482 6.30572C2.29287 6.77241 1.55001 7.44715 1.00237 8.26988C0.454722 9.09262 0.119287 10.0378 0.0259257 11.0213C-0.0674359 12.0048 0.0841729 12.9961 0.467255 13.907C0.850336 14.8178 1.453 15.6199 2.2216 16.2419C2.9902 16.8639 3.90088 17.2865 4.87257 17.4719C5.84425 17.6574 6.84679 17.6001 7.79093 17.3051C8.73507 17.0101 9.59151 16.4865 10.284 15.781H13.716C14.4084 16.4864 15.2648 17.01 16.2088 17.305C17.1528 17.6001 18.1552 17.6574 19.1268 17.4721C20.0984 17.2867 21.009 16.8643 21.7777 16.2425C22.5463 15.6208 23.149 14.8188 23.5323 13.9082C23.9155 12.9975 24.0673 12.0064 23.9742 11.023C23.8812 10.0395 23.5461 9.09434 22.9987 8.27152C22.4514 7.4487 21.7089 6.77377 20.8372 6.30681C19.9656 5.83985 18.9918 5.59534 18.0026 5.59505V5.59505ZM9.30001 12.0362C9.30001 12.1553 9.2526 12.2696 9.16821 12.3539C9.08381 12.4382 8.96936 12.4855 8.85001 12.4855H6.90001V14.4329C6.90001 14.552 6.8526 14.6663 6.7682 14.7506C6.68381 14.8349 6.56935 14.8822 6.45001 14.8822H5.55001C5.43066 14.8822 5.3162 14.8349 5.23181 14.7506C5.14742 14.6663 5.10001 14.552 5.10001 14.4329V12.4855H3.15001C3.03066 12.4855 2.9162 12.4382 2.83181 12.3539C2.74742 12.2696 2.70001 12.1553 2.70001 12.0362V11.1374C2.70001 11.0182 2.74742 10.9039 2.83181 10.8196C2.9162 10.7354 3.03066 10.688 3.15001 10.688H5.10001V8.74071C5.10001 8.62153 5.14742 8.50722 5.23181 8.42295C5.3162 8.33867 5.43066 8.29133 5.55001 8.29133H6.45001C6.56935 8.29133 6.68381 8.33867 6.7682 8.42295C6.8526 8.50722 6.90001 8.62153 6.90001 8.74071V10.688H8.85001C8.96936 10.688 9.08381 10.7354 9.16821 10.8196C9.2526 10.9039 9.30001 11.0182 9.30001 11.1374V12.0362ZM17.4 14.8822C17.1033 14.8822 16.8133 14.7944 16.5667 14.6298C16.32 14.4652 16.1277 14.2312 16.0142 13.9575C15.9007 13.6838 15.871 13.3826 15.9288 13.0921C15.9867 12.8015 16.1296 12.5346 16.3394 12.3251C16.5491 12.1156 16.8164 11.9729 17.1074 11.9152C17.3983 11.8574 17.6999 11.887 17.974 12.0004C18.2481 12.1138 18.4824 12.3058 18.6472 12.5521C18.812 12.7984 18.9 13.088 18.9 13.3843C18.9 13.7816 18.742 14.1626 18.4607 14.4435C18.1794 14.7244 17.7978 14.8822 17.4 14.8822V14.8822ZM19.8 11.2872C19.5033 11.2872 19.2133 11.1993 18.9667 11.0347C18.72 10.8702 18.5277 10.6362 18.4142 10.3625C18.3007 10.0888 18.271 9.7876 18.3288 9.49703C18.3867 9.20646 18.5296 8.93955 18.7394 8.73006C18.9491 8.52057 19.2164 8.37791 19.5074 8.32011C19.7983 8.26231 20.0999 8.29198 20.374 8.40535C20.6481 8.51873 20.8824 8.71072 21.0472 8.95705C21.212 9.20339 21.3 9.493 21.3 9.78926C21.3 10.1865 21.142 10.5675 20.8607 10.8485C20.5794 11.1294 20.1978 11.2872 19.8 11.2872Z"/>
</g>
<defs>
<clipPath id="clip0_2180_6638">
<rect width="24" height="24" fill="white"/>
</clipPath>
</defs>
</svg>
