<svg width="24" height="24" viewBox="0 0 24 24" fill="currentColor" xmlns="http://www.w3.org/2000/svg">
<path d="M23.3377 8.34211L12.8774 5.13123C12.3074 4.95626 11.6924 4.95626 11.1227 5.13123L0.662065 8.34211C-0.220688 8.61299 -0.220688 9.77933 0.662065 10.0502L2.4857 10.61C2.08557 11.1041 1.83957 11.707 1.81519 12.3671C1.45407 12.574 1.19982 12.9471 1.19982 13.3926C1.19982 13.7965 1.41282 14.1363 1.71957 14.3536L0.762191 18.6578C0.67894 19.0321 0.963941 19.3872 1.34757 19.3872H3.4517C3.8357 19.3872 4.1207 19.0321 4.03745 18.6578L3.08007 14.3536C3.38683 14.1363 3.59983 13.7965 3.59983 13.3926C3.59983 12.9591 3.3572 12.5964 3.01257 12.3859C3.04107 11.8231 3.32908 11.3256 3.78845 11.0101L11.1224 13.2615C11.4621 13.3656 12.1139 13.4956 12.877 13.2615L23.3377 10.0506C24.2208 9.77933 24.2208 8.61337 23.3377 8.34211V8.34211ZM13.2295 14.4076C12.1596 14.7358 11.248 14.5544 10.7699 14.4076L5.33158 12.7384L4.79983 16.9894C4.79983 18.3138 8.02334 19.3872 11.9999 19.3872C15.9764 19.3872 19.1999 18.3138 19.1999 16.9894L18.6681 12.7381L13.2295 14.4076V14.4076Z" fill="currentColor"/>
</svg>
