<svg width="40" height="40" viewBox="0 0 40 40" fill="#D4D4D4" xmlns="http://www.w3.org/2000/svg">
<mask id="mask0" mask-type="alpha" maskUnits="userSpaceOnUse" x="0" y="0" width="40" height="40">
<path d="M28 0H12C5.37258 0 0 5.37258 0 12V28C0 34.6274 5.37258 40 12 40H28C34.6274 40 40 34.6274 40 28V12C40 5.37258 34.6274 0 28 0Z" fill="#C4C4C4"/>
</mask>
<g mask="url(#mask0)">
<path d="M28 0H12C5.37258 0 0 5.37258 0 12V28C0 34.6274 5.37258 40 12 40H28C34.6274 40 40 34.6274 40 28V12C40 5.37258 34.6274 0 28 0Z" fill="rgba(50, 138, 224, 0.8)"/>
<path d="M27.6 47.2C36.8784 47.2 44.4001 39.6784 44.4001 30.4C44.4001 21.1216 36.8784 13.6 27.6 13.6C18.3217 13.6 10.8 21.1216 10.8 30.4C10.8 39.6784 18.3217 47.2 27.6 47.2Z" fill="rgba(37, 109, 205, 0.6)"/>
<g filter="url(#filter0_d)">
<path d="M24.2532 12.6H20.8938C20.5813 12.6 20.3078 12.7172 20.0735 12.9516L16.2063 16.4672C15.5813 17.0922 15.5813 18.0688 16.1282 18.6547C16.636 19.2016 17.6516 19.3578 18.3157 18.7719C18.3157 18.7719 18.3157 18.7719 18.3547 18.7719L21.4407 15.9203C21.7141 15.6859 22.1047 15.6859 22.3391 15.9594C22.5735 16.1938 22.5735 16.5844 22.3 16.8188L21.2844 17.7562L26.9876 22.3656C27.0657 22.4828 27.1828 22.5609 27.261 22.6781V15.1L25.1516 12.9906C24.9172 12.7562 24.6047 12.6 24.2532 12.6ZM28.55 15.1391V23.8891C28.55 24.5531 29.0969 25.1391 29.8 25.1391H32.3V15.1391H28.55ZM30.425 23.8891C30.0735 23.8891 29.8 23.5766 29.8 23.2641C29.8 22.9125 30.0735 22.6391 30.425 22.6391C30.7376 22.6391 31.05 22.9125 31.05 23.2641C31.05 23.5766 30.7376 23.8891 30.425 23.8891ZM7.30005 25.1H9.80005C10.4641 25.1 11.05 24.5531 11.05 23.85V15.1391H7.30005V25.1ZM9.17505 22.6391C9.48757 22.6391 9.80005 22.9125 9.80005 23.2641C9.80005 23.5766 9.48757 23.8891 9.17505 23.8891C8.82349 23.8891 8.55005 23.5766 8.55005 23.2641C8.55005 22.9125 8.82349 22.6391 9.17505 22.6391ZM26.1672 23.3422L20.3469 18.6156L19.175 19.6703C18.0032 20.7641 16.2454 20.6469 15.1907 19.5141C14.175 18.3812 14.2532 16.5844 15.386 15.5297L18.5891 12.6H15.3078C14.9563 12.6 14.6438 12.7562 14.4094 12.9906L12.3 15.1V23.85H13.0032L16.5188 27.0531C17.6125 27.9516 19.175 27.7562 20.0344 26.7016H20.0735L20.7376 27.2875C21.3625 27.7953 22.3 27.7172 22.8078 27.0922L24.0188 25.5688L24.2532 25.7641C24.761 26.1938 25.5422 26.1156 26.011 25.5688L26.3625 25.1C26.7922 24.5531 26.7141 23.7719 26.1672 23.3422Z" fill="white"/>
</g>
</g>
<defs>
<filter id="filter0_d" x="-1.69995" y="7.60001" width="43" height="33.024" filterUnits="userSpaceOnUse" color-interpolation-filters="sRGB">
<feFlood flood-opacity="0" result="BackgroundImageFix"/>
<feColorMatrix in="SourceAlpha" type="matrix" values="0 0 0 0 0 0 0 0 0 0 0 0 0 0 0 0 0 0 127 0"/>
<feOffset dy="4"/>
<feGaussianBlur stdDeviation="4.5"/>
<feColorMatrix type="matrix" values="0 0 0 0 0 0 0 0 0 0.255 0 0 0 0 0.6375 0 0 0 0.4 0"/>
<feBlend mode="normal" in2="BackgroundImageFix" result="effect1_dropShadow"/>
<feBlend mode="normal" in="SourceGraphic" in2="effect1_dropShadow" result="shape"/>
</filter>
<linearGradient id="paint0_linear" x1="0" y1="0" x2="40" y2="40" gradientUnits="userSpaceOnUse">
<stop stop-color="#4CA9F1"/>
<stop offset="1" stop-color="#0352C7"/>
</linearGradient>
<linearGradient id="paint1_linear" x1="10.8" y1="13.6" x2="44.4001" y2="47.2" gradientUnits="userSpaceOnUse">
<stop stop-color="#4CA9F1"/>
<stop offset="1" stop-color="#0E49B8"/>
</linearGradient>
</defs>
</svg>
