<?xml version="1.0" encoding="UTF-8" standalone="no"?>
<svg
xmlns:dc="http://purl.org/dc/elements/1.1/"
xmlns:cc="http://creativecommons.org/ns#"
xmlns:rdf="http://www.w3.org/1999/02/22-rdf-syntax-ns#"
xmlns:svg="http://www.w3.org/2000/svg"
xmlns="http://www.w3.org/2000/svg"
xmlns:sodipodi="http://sodipodi.sourceforge.net/DTD/sodipodi-0.dtd"
xmlns:inkscape="http://www.inkscape.org/namespaces/inkscape"
viewBox="0 0 146.8 120.41"
version="1.1"
id="svg22"
sodipodi:docname="mc_vrt_pos.svg"
inkscape:version="1.0.2-2 (e86c870879, 2021-01-15)">
<metadata
id="metadata26">
<rdf:RDF>
<cc:Work
rdf:about="">
<dc:format>image/svg+xml</dc:format>
<dc:type
rdf:resource="http://purl.org/dc/dcmitype/StillImage" />
</cc:Work>
</rdf:RDF>
</metadata>
<sodipodi:namedview
pagecolor="#ffffff"
bordercolor="#666666"
borderopacity="1"
objecttolerance="10"
gridtolerance="10"
guidetolerance="10"
inkscape:pageopacity="0"
inkscape:pageshadow="2"
inkscape:window-width="1920"
inkscape:window-height="1027"
id="namedview24"
showgrid="false"
inkscape:zoom="7.0980925"
inkscape:cx="48.74549"
inkscape:cy="67.040644"
inkscape:window-x="-8"
inkscape:window-y="-8"
inkscape:window-maximized="1"
inkscape:current-layer="Layer_1-2"
inkscape:document-rotation="0"
showguides="true"
inkscape:guide-bbox="true" />
<defs
id="defs4">
<style
id="style2">.cls-1{fill:none;}.cls-2{fill:#231f20;}.cls-3{fill:#ff5f00;}.cls-4{fill:#eb001b;}.cls-5{fill:#f79e1b;}</style>
</defs>
<title
id="title6">mc_vrt_rgb_pos</title>
<g
id="Layer_2"
data-name="Layer 2">
<g
id="Layer_1-2"
data-name="Layer 1">
<rect
class="cls-1"
width="146.8"
height="120.41"
id="rect8" />
<path
class="cls-2"
d="m 26.257611,115.53066 v -7.16675 a 4.252186,4.2521863 0 0 0 -4.491046,-4.53895 4.4194081,4.4194084 0 0 0 -4.013316,2.03068 4.1924658,4.1924661 0 0 0 -3.774419,-2.03068 3.7744129,3.7744132 0 0 0 -3.344405,1.69644 v -1.40945 H 8.15 v 11.41872 h 2.508312 v -6.2829 a 2.6755336,2.6755338 0 0 1 2.794974,-3.0342 c 1.648315,0 2.484419,1.0751 2.484419,3.01036 v 6.3544 h 2.508318 v -6.33057 a 2.6874776,2.6874778 0 0 1 2.79499,-3.0342 c 1.696096,0 2.508303,1.07511 2.508303,3.01037 v 6.3544 z m 37.111098,-11.41872 h -4.084983 v -3.46415 h -2.50831 v 3.46415 h -2.269423 v 2.26933 h 2.317235 v 5.25547 c 0,2.65155 1.027181,4.22825 3.965505,4.22825 a 5.828842,5.8288423 0 0 0 3.105514,-0.8838 l -0.716649,-2.12601 a 4.5866272,4.5866275 0 0 1 -2.197768,0.6446 c -1.194424,0 -1.648328,-0.76422 -1.648328,-1.91072 v -5.20779 h 4.061105 z m 21.18927,-0.28698 a 3.3683035,3.3683038 0 0 0 -3.009985,1.67204 v -1.38505 h -2.460525 v 11.41872 h 2.484416 v -6.40258 c 0,-1.88698 0.812229,-2.93822 2.388854,-2.93822 a 4.0491323,4.0491324 0 0 1 1.552792,0.28667 l 0.764439,-2.38901 a 5.3152326,5.3152329 0 0 0 -1.767786,-0.31047 z m -32.034719,1.1945 a 8.5402068,8.5402072 0 0 0 -4.658328,-1.1945 c -2.890531,0 -4.777733,1.38544 -4.777733,3.65473 0,1.86376 1.38553,3.01038 3.941653,3.36844 l 1.194434,0.16738 c 1.361634,0.1912 2.006653,0.54919 2.006653,1.19442 0,0.88376 -0.907799,1.38566 -2.603895,1.38566 a 6.0796692,6.0796695 0 0 1 -3.798287,-1.19473 l -1.194436,1.935 a 8.2415985,8.2415989 0 0 0 4.944974,1.48149 c 3.296634,0 5.20771,-1.55275 5.20771,-3.72705 0,-2.1736 -1.504987,-3.05786 -3.989403,-3.41577 l -1.194449,-0.16724 c -1.07498,-0.14337 -1.934975,-0.35854 -1.934975,-1.12288 0,-0.76458 0.812227,-1.33785 2.173868,-1.33785 a 7.3577162,7.3577166 0 0 1 3.58333,0.97937 z m 66.54197,-1.1945 a 3.3683035,3.3683038 0 0 0 -3.01014,1.67204 v -1.38505 h -2.46033 v 11.41872 h 2.48446 v -6.40258 c 0,-1.88698 0.81207,-2.93822 2.38894,-2.93822 a 4.0491323,4.0491324 0 0 1 1.55275,0.28667 l 0.76435,-2.38901 a 5.3152326,5.3152329 0 0 0 -1.76798,-0.31047 z m -32.01087,5.97233 a 5.7691181,5.7691184 0 0 0 6.091601,5.97184 5.9721714,5.9721717 0 0 0 4.108827,-1.3612 l -1.194412,-2.00707 a 5.0166234,5.0166237 0 0 1 -2.986073,1.02754 3.6669128,3.6669131 0 0 1 0,-7.30993 5.0166234,5.0166237 0 0 1 2.986073,1.02695 l 1.194412,-2.00647 a 5.9721714,5.9721717 0 0 0 -4.108827,-1.36189 5.7691181,5.7691184 0 0 0 -6.091601,5.97258 z m 23.26756,0 v -5.68534 h -2.48454 v 1.38505 a 4.3357972,4.3357973 0 0 0 -3.58318,-1.67204 5.9721714,5.9721717 0 0 0 0,11.94416 4.3357972,4.3357973 0 0 0 3.58318,-1.67223 v 1.38563 h 2.48454 z m -9.24505,0 a 3.4519176,3.4519179 0 1 1 3.46403,3.65499 3.4280281,3.4280284 0 0 1 -3.46403,-3.65499 z M 71.0967,103.82496 a 5.9727582,5.9727585 0 0 0 0.167231,11.94416 6.9396638,6.9396641 0 0 0 4.741882,-1.55272 l -1.194449,-1.83939 a 5.4346775,5.4346778 0 0 1 -3.320494,1.19477 3.1652503,3.1652506 0 0 1 -3.416081,-2.7951 h 8.480471 c 0,-0.31048 0,-0.6214 0,-0.9557 0,-3.58306 -2.221636,-5.97197 -5.422708,-5.97197 z m 0,2.2216 a 2.8308102,2.8308103 0 0 1 2.89052,2.77129 h -5.972175 a 2.9383076,2.9383078 0 0 1 3.033885,-2.77129 z m 62.24198,3.77442 V 99.525 h -2.38894 v 5.97199 a 4.3357972,4.3357973 0 0 0 -3.58316,-1.67203 5.9721714,5.9721717 0 0 0 0,11.94416 4.3357972,4.3357973 0 0 0 3.58316,-1.67223 v 1.38563 h 2.38894 z m 4.14459,4.04927 a 1.1944339,1.1944339 0 0 1 0.45399,0.0817 1.1944339,1.1944339 0 0 1 0.37018,0.23893 1.1944339,1.1944339 0 0 1 0.25088,0.35867 1.1108253,1.1108253 0 0 1 0,0.88381 1.1944339,1.1944339 0 0 1 -0.25088,0.35812 1.1944339,1.1944339 0 0 1 -0.37018,0.23885 1.1227672,1.1227672 0 0 1 -0.45399,0.0951 1.1944339,1.1944339 0 0 1 -1.07479,-0.69283 1.1227672,1.1227672 0 0 1 0,-0.88381 1.1944339,1.1944339 0 0 1 0.25085,-0.35867 1.1944339,1.1944339 0 0 1 0.37014,-0.23883 1.1944339,1.1944339 0 0 1 0.48979,-0.0817 z m 0,2.01836 a 0.84804834,0.84804838 0 0 0 0.34659,-0.0706 0.8958259,0.89582594 0 0 0 0.27467,-0.19126 0.88388167,0.88388171 0 0 0 0,-1.19417 0.88388167,0.88388171 0 0 0 -0.27467,-0.19138 0.85999283,0.85999287 0 0 0 -0.34659,-0.0686 0.8958259,0.89582594 0 0 0 -0.34617,0.0686 0.87193732,0.87193736 0 0 0 -0.28662,0.19138 0.88388167,0.88388171 0 0 0 0,1.19417 0.88388167,0.88388171 0 0 0 0.28662,0.19126 0.88388167,0.88388171 0 0 0 0.38216,0.0706 z m 0.071,-1.42122 a 0.47777383,0.47777386 0 0 1 0.31033,0.0944 0.29860851,0.29860853 0 0 1 0.1077,0.25069 0.28666417,0.28666419 0 0 1 -0.0819,0.21508 0.41805197,0.418052 0 0 1 -0.25089,0.10758 l 0.34661,0.39429 h -0.27481 l -0.32252,-0.39429 h -0.1074 v 0.39429 h -0.22709 v -1.05153 z m -0.263,0.20283 v 0.2867 h 0.26295 a 0.25083115,0.25083117 0 0 0 0.14331,0 0.11944339,0.11944339 0 0 0 0,-0.10722 0.11944339,0.11944339 0 0 0 0,-0.10747 0.25083115,0.25083117 0 0 0 -0.14331,0 z m -13.1386,-4.84924 a 3.4519176,3.4519179 0 1 1 3.46358,3.65512 3.4280281,3.4280284 0 0 1 -3.46358,-3.65512 z m -83.885252,0 v -5.70903 h -2.484522 v 1.38505 a 4.3357972,4.3357973 0 0 0 -3.583312,-1.67204 5.9721714,5.9721717 0 0 0 0,11.94416 4.3357972,4.3357973 0 0 0 3.583312,-1.67223 v 1.38563 h 2.48446 z m -9.244915,0 a 3.4519176,3.4519179 0 1 1 3.463858,3.65512 3.4280281,3.4280284 0 0 1 -3.487754,-3.65512 z"
id="path10"
style="stroke-width:1.19412" />
<g
id="_Group_"
data-name="&lt;Group&gt;"
transform="matrix(1.2532758,0,0,1.2532758,-18.493762,-15.18818)">
<rect
class="cls-3"
x="57.650002"
y="22.85"
width="31.5"
height="56.610001"
id="rect12" />
<path
id="_Path_"
data-name="&lt;Path&gt;"
class="cls-4"
d="M 59.65,51.16 A 35.94,35.94 0 0 1 73.4,22.85 36,36 0 1 0 73.4,79.46 35.94,35.94 0 0 1 59.65,51.16 Z" />
<path
class="cls-5"
d="m 131.65,51.16 a 36,36 0 0 1 -58.25,28.3 36,36 0 0 0 0,-56.61 36,36 0 0 1 58.25,28.3 z"
id="path15" />
<path
class="cls-5"
d="M 128.21,73.46 V 72.3 h 0.47 v -0.24 h -1.19 V 72.3 H 128 v 1.16 z m 2.31,0 v -1.4 h -0.36 l -0.42,1 -0.42,-1 H 129 v 1.4 h 0.26 v -1.05 l 0.39,0.91 h 0.27 l 0.39,-0.91 v 1.06 z"
id="path17" />
</g>
</g>
</g>
</svg>
