<svg width="96" height="87" xmlns="http://www.w3.org/2000/svg">
<g>
<title>Momo</title>
<rect stroke="null" id="svg_1" fill="#AE2070" stroke-width="0" height="87" width="96" ry="10" rx="10" y="0" x="0"/>
<path stroke="null" id="svg_2" fill="#fff" d="m69.79664,9.19443c-8.94916,0 -16.20344,6.92584 -16.20344,15.46988c0,8.54398 7.25428,15.46988 16.20344,15.46988c8.94916,0 16.20336,-6.9259 16.20336,-15.46988c0,-8.54404 -7.2542,-15.46988 -16.20336,-15.46988zm0,22.07206c-3.79668,0 -6.8814,-2.94508 -6.8814,-6.5698c0,-3.6248 3.08473,-6.56988 6.8814,-6.56988c3.7966,0 6.88133,2.94508 6.88133,6.56988c0,3.62473 -3.08473,6.5698 -6.88133,6.5698zm-20.8814,-10.45348l0,19.35348l-9.32203,0l0,-19.45054c0,-1.45643 -1.22035,-2.62153 -2.74574,-2.62153c-1.52546,0 -2.74582,1.1651 -2.74582,2.62153l0,19.45054l-9.32203,0l0,-19.45054c0,-1.45643 -1.22028,-2.62153 -2.74574,-2.62153c-1.52538,0 -2.74574,1.1651 -2.74574,2.62153l0,19.45054l-9.28815,0l0,-19.35348c0,-6.40802 5.45763,-11.61858 12.1695,-11.61858c2.74574,0 5.25421,0.87382 7.28816,2.33019c2.03387,-1.45637 4.57623,-2.33019 7.28808,-2.33019c6.71191,0 12.1695,5.21056 12.1695,11.61858zm20.8814,26.02042c-8.94916,0 -16.20344,6.9259 -16.20344,15.46988c0,8.54406 7.25428,15.46988 16.20344,15.46988c8.94916,0 16.20336,-6.92582 16.20336,-15.46988c0,-8.54398 -7.2542,-15.46988 -16.20336,-15.46988zm0,22.07206c-3.79668,0 -6.8814,-2.94508 -6.8814,-6.5698c0,-3.62473 3.08473,-6.56988 6.8814,-6.56988c3.7966,0 6.88133,2.94516 6.88133,6.56988c0,3.62473 -3.08473,6.5698 -6.88133,6.5698zm-20.8814,-10.45348l0,19.35356l-9.32203,0l0,-19.45062c0,-1.45635 -1.22035,-2.62145 -2.74574,-2.62145c-1.52546,0 -2.74582,1.1651 -2.74582,2.62145l0,19.45062l-9.32203,0l0,-19.45062c0,-1.45635 -1.22028,-2.62145 -2.74574,-2.62145c-1.52538,0 -2.74574,1.1651 -2.74574,2.62145l0,19.45062l-9.28815,0l0,-19.35356c0,-6.40799 5.45763,-11.61858 12.1695,-11.61858c2.74574,0 5.25421,0.87384 7.28816,2.33019c2.03387,-1.45635 4.54235,-2.33019 7.28808,-2.33019c6.71191,0 12.1695,5.21059 12.1695,11.61858z"/>
</g>
</svg>
