<svg width="40" height="40" viewBox="0 0 40 40" fill="none" xmlns="http://www.w3.org/2000/svg">
<mask id="mask0" mask-type="alpha" maskUnits="userSpaceOnUse" x="0" y="0" width="40" height="40">
<path d="M28 0H12C5.37258 0 0 5.37258 0 12V28C0 34.6274 5.37258 40 12 40H28C34.6274 40 40 34.6274 40 28V12C40 5.37258 34.6274 0 28 0Z" fill="#C4C4C4"/>
</mask>
<g mask="url(#mask0)">
<path d="M28 0H12C5.37258 0 0 5.37258 0 12V28C0 34.6274 5.37258 40 12 40H28C34.6274 40 40 34.6274 40 28V12C40 5.37258 34.6274 0 28 0Z" fill="url(#paint0_linear)"/>
<path d="M27.6 47.2C36.8784 47.2 44.4001 39.6784 44.4001 30.4C44.4001 21.1216 36.8784 13.6 27.6 13.6C18.3217 13.6 10.8 21.1216 10.8 30.4C10.8 39.6784 18.3217 47.2 27.6 47.2Z" fill="url(#paint1_linear)"/>
<g filter="url(#filter0_d)">
<path d="M24.375 10.1H15.625C14.5703 10.1 13.75 10.9594 13.75 11.975V28.225C13.75 29.2797 14.5703 30.1 15.625 30.1H24.375C25.3906 30.1 26.25 29.2797 26.25 28.225V11.975C26.25 10.9594 25.3906 10.1 24.375 10.1ZM20 28.85C19.2969 28.85 18.75 28.3031 18.75 27.6C18.75 26.9359 19.2969 26.35 20 26.35C20.6641 26.35 21.25 26.9359 21.25 27.6C21.25 28.3031 20.6641 28.85 20 28.85ZM24.375 24.6312C24.375 24.9047 24.1406 25.1 23.9062 25.1H16.0938C15.8203 25.1 15.625 24.9047 15.625 24.6312V12.4438C15.625 12.2094 15.8203 11.975 16.0938 11.975H23.9062C24.1406 11.975 24.375 12.2094 24.375 12.4438V24.6312Z" fill="white"/>
<path d="M24.375 24.6312V12.4438C24.375 12.2094 24.1406 11.975 23.9062 11.975H16.0938C15.8203 11.975 15.625 12.2094 15.625 12.4438V24.6312C15.625 24.9047 15.8203 25.1 16.0938 25.1H23.9062C24.1406 25.1 24.375 24.9047 24.375 24.6312Z" fill="white" fill-opacity="0.75"/>
</g>
</g>
<defs>
<filter id="filter0_d" x="4.75" y="5.10001" width="30.5" height="38" filterUnits="userSpaceOnUse" color-interpolation-filters="sRGB">
<feFlood flood-opacity="0" result="BackgroundImageFix"/>
<feColorMatrix in="SourceAlpha" type="matrix" values="0 0 0 0 0 0 0 0 0 0 0 0 0 0 0 0 0 0 127 0"/>
<feOffset dy="4"/>
<feGaussianBlur stdDeviation="4.5"/>
<feColorMatrix type="matrix" values="0 0 0 0 0 0 0 0 0 0.166614 0 0 0 0 0.779167 0 0 0 0.4 0"/>
<feBlend mode="normal" in2="BackgroundImageFix" result="effect1_dropShadow"/>
<feBlend mode="normal" in="SourceGraphic" in2="effect1_dropShadow" result="shape"/>
</filter>
<linearGradient id="paint0_linear" x1="0" y1="0" x2="40" y2="40" gradientUnits="userSpaceOnUse">
<stop stop-color="#FB50FF"/>
<stop offset="1" stop-color="#0073DD"/>
</linearGradient>
<linearGradient id="paint1_linear" x1="10.8" y1="13.6" x2="44.4001" y2="47.2" gradientUnits="userSpaceOnUse">
<stop stop-color="#FB50FF"/>
<stop offset="1" stop-color="#0073DD"/>
</linearGradient>
</defs>
</svg>
