<svg width="24" height="24" viewBox="0 0 24 24" fill="currentColor" xmlns="http://www.w3.org/2000/svg">
<path d="M11.9437 3.65111C11.372 3.65111 10.8176 3.70162 10.2732 3.78116C10.8027 2.77402 11.3857 1.9797 11.9437 1.50138C12.1861 1.29178 11.9587 0.946753 11.6181 1.00695C6.73322 1.88833 2 6.94126 2 12.25C2 14.5306 3.04764 16.7177 4.91246 18.3303C6.77727 19.9429 9.3065 20.8489 11.9437 20.8489C12.5155 20.8489 13.0699 20.7984 13.6143 20.7188C13.0848 21.726 12.5018 22.5203 11.9437 22.9986C11.7014 23.2082 11.9288 23.5532 12.2694 23.4931C17.1543 22.6117 21.8875 17.5577 21.8875 12.25C21.8875 9.96943 20.8398 7.78227 18.975 6.16966C17.1102 4.55706 14.581 3.65111 11.9437 3.65111V3.65111ZM11.9437 15.4746C10.9544 15.4743 10.0058 15.1342 9.3065 14.5291C8.60719 13.9239 8.21451 13.1034 8.21484 12.2479C8.21517 11.3924 8.60848 10.572 9.30825 9.96728C10.008 9.36255 10.9569 9.02298 11.9462 9.02327C12.9355 9.02355 13.8842 9.36367 14.5835 9.9688C15.2828 10.5739 15.6755 11.3945 15.6751 12.25C15.6748 13.1055 15.2815 13.9258 14.5817 14.5306C13.8819 15.1353 12.933 15.4749 11.9437 15.4746Z" fill="currentColor"/>
</svg>
