<svg width="24" height="24" viewBox="0 0 24 24" fill="currentColor" xmlns="http://www.w3.org/2000/svg">
<path d="M12.25 9.5625C11.0391 9.5625 10.0625 10.5781 10.0625 11.75C10.0625 12.9609 11.0391 13.9375 12.25 13.9375C13.4219 13.9375 14.4375 12.9609 14.4375 11.75C14.4375 10.5781 13.4219 9.5625 12.25 9.5625ZM3.5 11.75C3.5 9.99219 4.4375 7.45313 5.64844 6.125C5.88281 5.89063 5.84375 5.53906 5.60938 5.30469L4.75 4.44531C4.63281 4.36719 4.4375 4.28906 4.28125 4.28906C4.125 4.28906 3.92969 4.36719 3.8125 4.48438C1.97656 6.47656 1 9.05469 1 11.75C1 14.4844 1.97656 17.0234 3.8125 19.0547C3.92969 19.1719 4.125 19.2891 4.28125 19.2891C4.4375 19.2891 4.63281 19.2109 4.75 19.0938L5.60938 18.2344C5.84375 18 5.88281 17.6484 5.64844 17.4141C4.4375 16.0859 3.5 13.5469 3.5 11.7891V11.75ZM8.73438 8.35156L7.83594 7.49219C7.71875 7.375 7.52344 7.29688 7.40625 7.29688C7.21094 7.29688 7.01563 7.41406 6.89844 7.53125C6.03906 8.54688 5.33594 10.4609 5.33594 11.75C5.33594 13.0781 6.03906 14.9922 6.89844 16.0078C7.01563 16.125 7.21094 16.2422 7.40625 16.2422C7.52344 16.2422 7.71875 16.1641 7.83594 16.0469L8.73438 15.1875C8.8125 15.1094 8.89063 14.9141 8.89063 14.7578C8.89063 14.6406 8.85156 14.4844 8.77344 14.4063C8.26563 13.7813 7.875 12.5703 7.875 11.75C7.875 10.9688 8.26563 9.75781 8.77344 9.13281C8.85156 9.05469 8.89063 8.89844 8.89063 8.78125C8.89063 8.625 8.8125 8.42969 8.73438 8.35156ZM20.6484 4.48438C20.5313 4.36719 20.3359 4.25 20.1797 4.25C20.0234 4.25 19.8281 4.32813 19.75 4.44531L18.8516 5.30469C18.6172 5.53906 18.5781 5.89063 18.8125 6.125C20.0234 7.45313 20.9609 9.99219 20.9609 11.75C20.9609 13.5469 20.0234 16.0859 18.8125 17.4141C18.5781 17.6484 18.6172 18 18.8516 18.2344L19.75 19.0938C19.8281 19.1719 20.0234 19.25 20.1797 19.25C20.3359 19.25 20.5313 19.1719 20.6484 19.0547C22.4844 17.0234 23.5 14.4844 23.5 11.75C23.5 9.05469 22.4844 6.47656 20.6484 4.48438ZM17.5625 7.53125C17.4453 7.41406 17.25 7.29688 17.0547 7.29688C16.9375 7.29688 16.7422 7.375 16.625 7.49219L15.7266 8.35156C15.6484 8.42969 15.5703 8.625 15.5703 8.78125C15.5703 8.89844 15.6094 9.05469 15.6875 9.13281C16.1953 9.75781 16.5859 10.9688 16.5859 11.7891C16.5859 12.5703 16.1953 13.7813 15.6875 14.4063C15.6094 14.4844 15.5703 14.6406 15.5703 14.7578C15.5703 14.9141 15.6484 15.1094 15.7266 15.1875L16.625 16.0469C16.7422 16.1641 16.9375 16.2422 17.0547 16.2422C17.25 16.2422 17.4453 16.125 17.5625 16.0078C18.4219 14.9922 19.125 13.0781 19.125 11.7891C19.125 10.4609 18.4219 8.54688 17.5625 7.53125Z" fill="currentColor"/>
</svg>
