<svg width="24" height="24" viewBox="0 0 24 24" fill="currentColor" xmlns="http://www.w3.org/2000/svg">
<rect x="4" y="1" width="15.6522" height="22.5" rx="1" fill="currentColor"/>
<rect x="6.93475" y="3.93478" width="9.78261" height="0.978261" rx="0.48913" fill="currentColor"/>
<circle cx="11.8261" cy="3.93479" r="0.978261" fill="currentColor"/>
<path d="M16.7174 13.7174C16.7174 11.0153 14.5084 8.82608 11.8063 8.82608C9.24234 8.82608 7.13198 10.8181 6.93475 13.3426L9.55791 14.4274C9.79459 14.2499 10.1102 14.171 10.406 14.171L11.5697 12.4946V12.4748C11.5697 11.4492 12.398 10.6209 13.4236 10.6209C14.4492 10.6209 15.2776 11.4492 15.2776 12.4748C15.2776 13.5004 14.4098 14.3288 13.3842 14.3091L11.7077 15.4925C11.7472 16.3011 11.0963 16.952 10.3271 16.952C9.65653 16.952 9.10428 16.4589 8.96622 15.8277L7.09254 15.0585C7.68423 17.1097 9.55791 18.6087 11.8063 18.6087C14.5084 18.6087 16.7174 16.4194 16.7174 13.7174ZM9.99182 16.2617L9.40013 16.0053C9.49874 16.2025 9.73542 16.4392 9.93265 16.5181C10.4652 16.735 11.0766 16.4786 11.2935 15.9658C11.3922 15.7094 11.3922 15.4136 11.2935 15.1572C11.1949 14.9008 10.9977 14.7035 10.7413 14.6049C10.4849 14.4866 10.2088 14.4866 9.9721 14.5852L10.5835 14.8416C10.978 14.9994 11.1555 15.453 10.9977 15.8475C10.8399 16.2419 10.3863 16.4194 9.99182 16.2617ZM13.4236 13.6977C14.1139 13.6977 14.6464 13.1454 14.6464 12.4748C14.6464 11.7845 14.0942 11.2323 13.4236 11.2323C12.753 11.2323 12.2008 11.7845 12.2008 12.4748C12.2008 13.1454 12.753 13.6977 13.4236 13.6977ZM13.4236 13.3821C12.9108 13.3821 12.4966 12.9679 12.4966 12.4551C12.4966 11.962 12.9108 11.5479 13.4236 11.5479C13.9364 11.5479 14.3506 11.962 14.3506 12.4551C14.3506 12.9679 13.9364 13.3821 13.4236 13.3821Z" fill="white"/>
</svg>
