<svg width="24" height="24" viewBox="0 0 24 24" fill="currentColor" xmlns="http://www.w3.org/2000/svg">
<path d="M23.5 12.25C23.5 6.03528 18.4194 1 12.2046 1C6.30746 1 1.45363 5.58165 1 11.3881L7.03327 13.8831C7.57762 13.4748 8.30343 13.2933 8.98387 13.2933L11.6603 9.4375V9.39214C11.6603 7.03327 13.5655 5.12802 15.9244 5.12802C18.2833 5.12802 20.1885 7.03327 20.1885 9.39214C20.1885 11.751 18.1925 13.6562 15.8337 13.6109L11.9778 16.3327C12.0685 18.1925 10.5716 19.6895 8.80242 19.6895C7.26008 19.6895 5.98992 18.5554 5.67238 17.1038L1.3629 15.3347C2.72379 20.0524 7.03327 23.5 12.2046 23.5C18.4194 23.5 23.5 18.4647 23.5 12.25ZM8.03125 18.1018L6.67036 17.5121C6.89718 17.9657 7.44153 18.5101 7.89516 18.6915C9.11996 19.1905 10.5262 18.6008 11.0252 17.4214C11.252 16.8317 11.252 16.1512 11.0252 15.5615C10.7984 14.9718 10.3448 14.5181 9.75504 14.2913C9.16532 14.0192 8.53024 14.0192 7.98589 14.246L9.39214 14.8357C10.2994 15.1986 10.7077 16.2419 10.3448 17.1492C9.98185 18.0565 8.93851 18.4647 8.03125 18.1018ZM15.9244 12.2046C17.5121 12.2046 18.7369 10.9345 18.7369 9.39214C18.7369 7.80444 17.4667 6.53427 15.9244 6.53427C14.3821 6.53427 13.1119 7.80444 13.1119 9.39214C13.1119 10.9345 14.3821 12.2046 15.9244 12.2046ZM15.9244 11.4788C14.745 11.4788 13.7923 10.5262 13.7923 9.34677C13.7923 8.2127 14.745 7.26008 15.9244 7.26008C17.1038 7.26008 18.0564 8.2127 18.0564 9.34677C18.0564 10.5262 17.1038 11.4788 15.9244 11.4788Z" fill="currentColor"/>
</svg>
