<?xml version="1.0" encoding="UTF-8" standalone="no"?>
<svg
xmlns:dc="http://purl.org/dc/elements/1.1/"
xmlns:cc="http://creativecommons.org/ns#"
xmlns:rdf="http://www.w3.org/1999/02/22-rdf-syntax-ns#"
xmlns:svg="http://www.w3.org/2000/svg"
xmlns="http://www.w3.org/2000/svg"
xmlns:sodipodi="http://sodipodi.sourceforge.net/DTD/sodipodi-0.dtd"
xmlns:inkscape="http://www.inkscape.org/namespaces/inkscape"
preserveAspectRatio="xMidYMid"
version="1.1"
viewBox="0 0 218.718 83"
id="svg79"
sodipodi:docname="visasymbol.svg"
width="218.718"
height="83"
inkscape:version="1.0.2-2 (e86c870879, 2021-01-15)">
<metadata
id="metadata83">
<rdf:RDF>
<cc:Work
rdf:about="">
<dc:format>image/svg+xml</dc:format>
<dc:type
rdf:resource="http://purl.org/dc/dcmitype/StillImage" />
<dc:title></dc:title>
</cc:Work>
</rdf:RDF>
</metadata>
<sodipodi:namedview
pagecolor="#ffffff"
bordercolor="#666666"
borderopacity="1"
objecttolerance="10"
gridtolerance="10"
guidetolerance="10"
inkscape:pageopacity="0"
inkscape:pageshadow="2"
inkscape:window-width="1920"
inkscape:window-height="1027"
id="namedview81"
showgrid="false"
inkscape:zoom="4.0703125"
inkscape:cx="128"
inkscape:cy="41.5"
inkscape:window-x="-8"
inkscape:window-y="-8"
inkscape:window-maximized="1"
inkscape:current-layer="svg79" />
<defs
id="defs73">
<linearGradient
id="linearGradient-1"
x1="66.880997"
x2="79.832001"
y1="-2.9184999"
y2="145.48"
gradientTransform="scale(1.7597,0.56826)"
gradientUnits="userSpaceOnUse">
<stop
stop-color="#222357"
offset="0"
id="stop68" />
<stop
stop-color="#254AA5"
offset="1"
id="stop70" />
</linearGradient>
</defs>
<g
transform="matrix(0.85438,0,0,0.85438,-5.297156e-4,6.185)"
id="g77">
<path
transform="matrix(1,0,0,-1,0,82.668)"
d="m 132.4,56.24 c -0.14605,-11.515 10.262,-17.942 18.103,-21.763 8.0562,-3.9205 10.762,-6.4342 10.731,-9.9396 -0.0615,-5.3657 -6.4265,-7.7333 -12.384,-7.8256 -10.393,-0.16143 -16.435,2.8058 -21.24,5.0505 l -3.7437,-17.519 c 4.8199,-2.2216 13.745,-4.1588 23,-4.2433 21.724,0 35.938,10.724 36.015,27.351 0.0846,21.101 -29.188,22.27 -28.989,31.702 0.0692,2.8596 2.7982,5.9115 8.7788,6.6879 2.9596,0.39205 11.131,0.69185 20.394,-3.5746 l 3.6361,16.95 c -4.9813,1.8142 -11.385,3.5515 -19.356,3.5515 -20.448,0 -34.831,-10.87 -34.946,-26.429 m 89.241,24.968 c -3.9666,0 -7.3106,-2.3139 -8.8019,-5.8654 l -31.033,-74.097 h 21.709 l 4.3202,11.938 h 26.529 l 2.506,-11.938 h 19.134 l -16.697,79.963 h -17.665 m 3.0364,-21.601 6.2651,-30.026 h -17.158 l 10.893,30.026 m -118.6,21.601 -17.112,-79.963 h 20.686 l 17.104,79.963 h -20.679 m -30.603,0 -21.532,-54.426 -8.7096,46.277 c -1.0224,5.1658 -5.0582,8.1485 -9.5398,8.1485 h -35.2 L 6.2e-4,78.8854 c 7.226,-1.5682 15.436,-4.0973 20.41,-6.8032 3.0441,-1.6528 3.9128,-3.098 4.9121,-7.0261 l 16.497,-63.812 h 21.862 l 33.516,79.963 h -21.724"
fill="url(#linearGradient-1)"
id="path75"
style="fill:url(#linearGradient-1)" />
</g>
</svg>
