<svg id="Layer_1" data-name="Layer 1" xmlns="http://www.w3.org/2000/svg" viewBox="0 0 194.31 59">
<defs><style>.cls-1,.cls-4{fill:#005baa;}.cls-2,.cls-5{fill:#ed1c24;}.cls-3{fill:#009edb;}.cls-4,.cls-5{fill-rule:evenodd;}</style></defs>
<path class="cls-1" d="M42.4,19.22l-5.61,5.61-.28.27-1.78,1.79L33.4,28.22,31.62,30l-.28.28-.77.77-.28.28h0L27.66,34h0l-.28.28a11.41,11.41,0,0,1-2.58,1.94,11.71,11.71,0,0,1-1.44.67,11.38,11.38,0,0,1-3.39.74,10.82,10.82,0,0,1-2.13-.06,11.45,11.45,0,0,1-4.39-1.46,8,8,0,0,1-1.68-1.18h0l-.32-.33L1.23,24.35,1,24.13a3.63,3.63,0,0,1-.47-.64,3.84,3.84,0,0,1-.54-2c0-.11,0-.23,0-.34a4,4,0,0,1,.08-.48c0-.06,0-.12,0-.18l0-.08a4,4,0,0,1,.71-1.34l.28-.3.18-.18L12.2,7.74h0l6.59-6.59A3.94,3.94,0,0,1,24.15,1Z"/>
<path class="cls-2" d="M22.54,43.72A6.13,6.13,0,0,1,20,43.14l-2.09-2.08-.51-.51-.09-.09-1-1-4.87-4.93.32.33a7.78,7.78,0,0,0,1.69,1.18,11.45,11.45,0,0,0,4.39,1.46,10.82,10.82,0,0,0,2.13.06,11.38,11.38,0,0,0,3.39-.74,11.71,11.71,0,0,0,1.44-.67,11.41,11.41,0,0,0,2.58-1.94l.28-.28h0l2.63-2.63h0l.28-.28.77-.77.28-.28,1.78-1.78,1.33-1.33,1.78-1.79.28-.27,11.3-11.3,4.66-5,0,0L53,8.2a3.66,3.66,0,0,1,5.16,0l2.55,2.55h0l.09.09A4.16,4.16,0,0,0,57.71,12l-8.64,8.5-.09.1L34,35.41l0,0L28.4,40.83l0,.05s-.13.15-.33.34A9.85,9.85,0,0,1,25.46,43a7.14,7.14,0,0,1-1.67.56,6.85,6.85,0,0,1-1,.13Z"/>
<path class="cls-2" d="M74.56,29.74l-.27.27L62.05,42.44,49.19,55.49A11.15,11.15,0,0,1,47.9,56.6l0,0-.19.13,0,0a11.86,11.86,0,0,1-15-1.06h0l-.29-.25-2.21-2.22-6.21-6.21L21.81,45l-.3-.29a7,7,0,0,0,1,.08h.29A6.67,6.67,0,0,0,24,44.62,8.76,8.76,0,0,0,25.91,44a11,11,0,0,0,2.85-2,5.52,5.52,0,0,0,.39-.41l4.78-4.69,0,0L50.37,20.73l.09-.11,8-7.85a3.16,3.16,0,0,1,4-.35l1.89,1.9h0L74.56,24.58a3.45,3.45,0,0,1,.26.28A3.65,3.65,0,0,1,74.56,29.74Z"/>
<path class="cls-3" d="M34.92,16.13a.75.75,0,0,1-1.06,0A12.46,12.46,0,1,0,16.17,33.68L20,37.5a.47.47,0,0,1,.06.09H20a11,11,0,0,1-2.07-.05l-2.79-2.81A14,14,0,0,1,34.92,15.07h0A.74.74,0,0,1,34.92,16.13Z"/>
<path class="cls-3" d="M40.71,20.91,39.66,22,37.81,20.1a.74.74,0,1,1,1.06-1Z"/>
<path class="cls-3" d="M24.83,36.16l0,0a12.73,12.73,0,0,1-1.4.66l-5.16-5.21a9.56,9.56,0,0,1-1.1-12.13.74.74,0,1,1,1.22.84,8.09,8.09,0,0,0,.93,10.24Z"/>
<path class="cls-3" d="M37.6,24l0,0-.78.78-.25.24-5.81-5.85a8,8,0,0,0-8.21-2,.74.74,0,1,1-.46-1.41,9.51,9.51,0,0,1,9.73,2.35Z"/>
<path class="cls-3" d="M34.48,27.14l-1,1.05-5.82-5.86a3.66,3.66,0,1,0-5.19,5.15l3.75,3.78a.73.73,0,0,1,0,1.05.74.74,0,0,1-1.05,0l-3.75-3.78a5.15,5.15,0,1,1,7.31-7.25Z"/>
<path class="cls-3" d="M31.37,30.25l0,0-.77.77-.25.25-5.84-5.87a.75.75,0,0,1,0-1.06.74.74,0,0,1,1.05,0Z"/>
<path class="cls-4" d="M178,29.92l-8.68-12.44-.88-.81H177l5.79,9.4.47-.38,3.5-5.21a2.73,2.73,0,0,0-.48-3.81h8.08L185,29.91v9.61l1.64,2h-10L178,39.55c0-3.2-.12-6.44,0-9.63ZM154.4,16.67a3.63,3.63,0,0,1,1,2.13,3.11,3.11,0,0,1-.18,1.48L148.75,39a6.94,6.94,0,0,1-1.84,2.45H154a2.86,2.86,0,0,1-1-1.67,2.8,2.8,0,0,1,0-1.41l1.43-4.44h8.2l1.27,3.42a4,4,0,0,1,.25,1.08,3.21,3.21,0,0,1-1.32,3.07h11a10.25,10.25,0,0,1-2.64-3.2l-8-21.61Zm7,14h-5.87l2.85-8.1,3,8.1Zm-29.35-14,5.55,0h6.73a6.75,6.75,0,0,1,6.74,6.73v.83a6.76,6.76,0,0,1-6.74,6.65l-3.07.09c2.47-1.14,3.5-4,3.2-6.59-.25-2.07-1.32-4.07-3.1-4.11l-1.12,0V38.71a1.33,1.33,0,0,0,.25.83,12.16,12.16,0,0,0,1.12,1.5l.32.39h-9.55l.42-.53a6.73,6.73,0,0,0,.73-1.28,1.91,1.91,0,0,0,.19-.84V18.94C133.71,17.91,132.68,17.32,132.08,16.69Z"/>
<path class="cls-5" d="M80.28,16.56H88l6.47,18.56L100,19.74a1.77,1.77,0,0,0-.22-1.3c-.3-.62-.62-1.23-.93-1.85h5.76c-.34,1.25-.84,2.63-1.28,3.89L95.85,42.1a12.16,12.16,0,0,1-6-2.87,10.56,10.56,0,0,1-2.44-4.36L81.15,18.4a14,14,0,0,0-.87-1.84Zm30.8,8.7V38.52c0,.54.12.63.45,1.06l1.52,2h-7.26L107,39.69a2,2,0,0,0,.45-1.28V19.88l-2-3.32H113l12.18,15.69V19.74a2,2,0,0,0-.43-1.3c-.41-.62-.84-1.23-1.25-1.85h7.26l-1.52,2c-.33.43-.45.52-.45,1.06V42.2c-2.75-.36-5.31-1-7.58-3.94Z"/>
<path class="cls-3" d="M88,50c0,1,.42,1.5,1.51,1.5a3.32,3.32,0,0,0,1.23-.22c.2-.08.25,0,.25.19v.1c0,.18,0,.25-.25.34a2.89,2.89,0,0,1-1.22.22c-1.49,0-2.19-.67-2.19-2.13V48.58a1.93,1.93,0,0,1,2.18-2.22,3.15,3.15,0,0,1,1.19.22c.2.08.25.15.25.33V47c0,.21-.09.27-.27.19a3.09,3.09,0,0,0-1.2-.23c-1,0-1.48.51-1.48,1.6Z"/>
<path class="cls-3" d="M89.51,52.09c-1.5,0-2.2-.68-2.2-2.14V48.58a1.94,1.94,0,0,1,2.19-2.23,3.18,3.18,0,0,1,1.19.22c.22.08.25.17.25.33V47c0,.11,0,.18-.07.21a.22.22,0,0,1-.21,0A3,3,0,0,0,89.47,47c-1,0-1.47.49-1.47,1.59V50c0,1,.46,1.49,1.5,1.49a3.36,3.36,0,0,0,1.23-.22c.1,0,.16,0,.2,0s.06.09.06.21v.1c0,.19,0,.25-.26.35A2.8,2.8,0,0,1,89.51,52.09Zm0-5.72a1.93,1.93,0,0,0-2.18,2.21V50c0,1.44.7,2.12,2.19,2.12a2.83,2.83,0,0,0,1.22-.22c.2-.09.24-.15.24-.33v-.1c0-.11,0-.17,0-.2s-.09,0-.19,0a3.36,3.36,0,0,1-1.23.22C88.45,51.46,88,51,88,50V48.58c0-1.11.45-1.61,1.48-1.61a3.09,3.09,0,0,1,1.2.23c.09,0,.15,0,.19,0a.25.25,0,0,0,.07-.2V46.9c0-.15,0-.23-.25-.31A3.1,3.1,0,0,0,89.5,46.37Z"/>
<path class="cls-3" d="M91.89,46.28c0-.23.06-.27.28-.27h.09c.23,0,.27,0,.27.27v2a1.51,1.51,0,0,1,1.35-.58c1.05,0,1.58.5,1.58,1.5v2.53c0,.23,0,.27-.27.27h-.11c-.23,0-.27,0-.27-.27V49.26c0-.67-.3-1-1.09-1s-1.19.32-1.19,1.11v2.31c0,.23,0,.27-.27.27h-.09c-.22,0-.28,0-.28-.27Z"/>
<path class="cls-3" d="M95.19,52h-.11c-.23,0-.28,0-.28-.28V49.26c0-.68-.31-.95-1.08-.95s-1.18.33-1.18,1.1v2.31c0,.23-.05.28-.28.28h-.09c-.23,0-.28,0-.28-.28V46.28c0-.24.06-.28.28-.28h.09c.23,0,.28,0,.28.28v2a1.54,1.54,0,0,1,1.34-.56c1.05,0,1.59.51,1.59,1.51v2.53C95.47,52,95.42,52,95.19,52Zm-1.47-3.71c.78,0,1.1.28,1.1,1v2.46c0,.22,0,.26.26.26h.11c.22,0,.26,0,.26-.26V49.19c0-1-.53-1.49-1.57-1.49a1.48,1.48,0,0,0-1.34.58l0,0v-2c0-.22,0-.26-.26-.26h-.09c-.21,0-.27,0-.27.26v5.44c0,.23.06.26.27.26h.09c.23,0,.26,0,.26-.26V49.41C92.52,48.62,92.88,48.29,93.72,48.29Z"/>
<path class="cls-3" d="M96.37,50.28v-.79c0-1.2.62-1.8,1.88-1.8s1.86.62,1.86,1.8v.79a1.62,1.62,0,0,1-1.86,1.8C96.92,52.08,96.37,51.45,96.37,50.28Zm3.11-.79c0-.83-.3-1.19-1.23-1.19S97,48.66,97,49.49v.79c0,.82.31,1.19,1.24,1.19s1.23-.37,1.23-1.19Z"/>
<path class="cls-3" d="M98.25,52.09c-1.29,0-1.89-.58-1.89-1.81v-.79a1.82,1.82,0,0,1,.47-1.36,2,2,0,0,1,1.42-.45c1.28,0,1.87.58,1.87,1.81v.79A1.63,1.63,0,0,1,98.25,52.09Zm0-4.39a2,2,0,0,0-1.4.45,1.76,1.76,0,0,0-.47,1.34v.79c0,1.22.59,1.79,1.87,1.79a1.92,1.92,0,0,0,1.39-.45,1.76,1.76,0,0,0,.47-1.34v-.79C100.11,48.27,99.52,47.7,98.25,47.7Zm0,3.78c-.9,0-1.25-.34-1.25-1.2v-.79c0-.88.34-1.2,1.25-1.2s1.23.32,1.23,1.2v.79C99.48,51.16,99.15,51.48,98.25,51.48Zm0-3.17c-.9,0-1.23.32-1.23,1.18v.79c0,.85.35,1.18,1.23,1.18s1.22-.32,1.22-1.18v-.79C99.47,48.63,99.14,48.31,98.25,48.31Z"/>
<path class="cls-3" d="M103.22,49.46c0-1.12.61-1.77,1.91-1.77a2.47,2.47,0,0,1,.75.11c.21.07.26.13.26.33v.08c0,.22,0,.28-.26.21a2.09,2.09,0,0,0-.74-.12c-1,0-1.28.37-1.28,1.17v.83c0,.86.39,1.17,1.34,1.17a2.31,2.31,0,0,0,.77-.11c.19-.07.25,0,.25.21v.09c0,.18-.06.25-.27.31a2.81,2.81,0,0,1-.8.11c-1.31,0-1.93-.57-1.93-1.77Z"/>
<path class="cls-3" d="M105.15,52.09a2.11,2.11,0,0,1-1.46-.44,1.71,1.71,0,0,1-.48-1.34v-.85a1.75,1.75,0,0,1,.47-1.31,2,2,0,0,1,1.45-.47,2.42,2.42,0,0,1,.75.11c.21.07.27.14.27.34v.08c0,.12,0,.19-.06.22a.25.25,0,0,1-.21,0,2.21,2.21,0,0,0-.74-.12c-.9,0-1.27.33-1.27,1.16v.83c0,.85.36,1.16,1.33,1.16a2.44,2.44,0,0,0,.76-.11c.1,0,.16,0,.2,0s.07.1.07.22v.09c0,.18-.06.26-.28.31A2.45,2.45,0,0,1,105.15,52.09Zm0-4.39c-1.24,0-1.9.61-1.9,1.76v.85c0,1.2.61,1.76,1.92,1.76A2.81,2.81,0,0,0,106,52c.21-.06.26-.12.26-.3v-.09c0-.12,0-.18-.06-.21s-.09,0-.18,0a2.55,2.55,0,0,1-.77.11c-1,0-1.35-.33-1.35-1.18v-.83c0-.84.38-1.18,1.29-1.18a2.17,2.17,0,0,1,.74.12.28.28,0,0,0,.2,0,.3.3,0,0,0,0-.21v-.08c0-.19,0-.25-.25-.32A2.47,2.47,0,0,0,105.13,47.7Z"/>
<path class="cls-3" d="M107.46,50.48c0,.67.28,1,1.15,1s1.13-.31,1.13-1V48.05c0-.21.06-.27.28-.27h.09c.23,0,.27.06.27.27v2.43c0,1-.52,1.6-1.77,1.6s-1.79-.53-1.79-1.6V48.05c0-.21.06-.27.27-.27h.09c.24,0,.28.06.28.27Z"/>
<path class="cls-3" d="M108.61,52.09c-1.19,0-1.8-.54-1.8-1.61V48.05c0-.22.06-.28.28-.28h.09c.25,0,.29.07.29.28v2.43c0,.71.32,1,1.14,1s1.12-.26,1.12-1V48.05c0-.22.07-.28.29-.28h.09c.24,0,.28.07.28.28v2.43a1.5,1.5,0,0,1-.42,1.19A1.89,1.89,0,0,1,108.61,52.09Zm-1.52-4.3c-.21,0-.26.05-.26.26v2.43a1.53,1.53,0,0,0,.44,1.19,2,2,0,0,0,1.34.4,1.93,1.93,0,0,0,1.35-.41,1.53,1.53,0,0,0,.41-1.18V48.05c0-.2,0-.26-.26-.26H110c-.21,0-.27.05-.27.26v2.43c0,.72-.32,1-1.14,1s-1.16-.28-1.16-1V48.05c0-.2,0-.26-.27-.26Z"/>
<path class="cls-3" d="M111.24,50.28v-.79c0-1.2.62-1.8,1.88-1.8s1.86.62,1.86,1.8v.79a1.62,1.62,0,0,1-1.86,1.8C111.79,52.08,111.24,51.45,111.24,50.28Zm3.11-.79c0-.83-.3-1.19-1.23-1.19s-1.24.36-1.24,1.19v.79c0,.82.31,1.19,1.24,1.19s1.23-.37,1.23-1.19Zm-1.83-2.92c.2-.31.32-.42.6-.42s.4.09.61.42l.32.51c.11.15.07.19-.11.19h-.07a.33.33,0,0,1-.35-.19l-.19-.34c-.14-.24-.28-.24-.41,0l-.19.34a.34.34,0,0,1-.35.19h-.08c-.18,0-.2-.05-.11-.19Zm.31,6.27a.42.42,0,0,1,.6,0,.42.42,0,1,1-.6,0Z"/>
<path class="cls-3" d="M113.13,53.57a.43.43,0,0,1-.31-.13.42.42,0,0,1-.12-.3.43.43,0,0,1,.12-.31h0a.43.43,0,0,1,.74.31.42.42,0,0,1-.12.3A.43.43,0,0,1,113.13,53.57Zm0-.85a.43.43,0,0,0-.29.12h0a.42.42,0,0,0-.12.3.4.4,0,0,0,.12.29.41.41,0,0,0,.58,0,.4.4,0,0,0,.12-.29.41.41,0,0,0-.41-.42Zm0-.63c-1.29,0-1.89-.58-1.89-1.81v-.79a1.82,1.82,0,0,1,.47-1.36,2,2,0,0,1,1.42-.45c1.28,0,1.87.58,1.87,1.81v.79A1.63,1.63,0,0,1,113.12,52.09Zm0-4.39a1.93,1.93,0,0,0-1.4.45,1.76,1.76,0,0,0-.47,1.34v.79c0,1.22.59,1.79,1.87,1.79a1.92,1.92,0,0,0,1.39-.45,1.76,1.76,0,0,0,.47-1.34v-.79C115,48.27,114.39,47.7,113.12,47.7Zm0,3.78c-.9,0-1.25-.34-1.25-1.2v-.79c0-.88.34-1.2,1.25-1.2s1.23.32,1.23,1.2v.79C114.35,51.16,114,51.48,113.12,51.48Zm0-3.17c-.9,0-1.23.32-1.23,1.18v.79c0,.85.34,1.18,1.23,1.18s1.22-.32,1.22-1.18v-.79C114.34,48.63,114,48.31,113.12,48.31Zm.82-1h-.07a.34.34,0,0,1-.36-.2l-.19-.33c-.07-.12-.13-.18-.2-.18h0c-.06,0-.13.06-.19.18l-.19.33a.34.34,0,0,1-.36.2h-.08c-.1,0-.15,0-.16-.05s0-.08,0-.16l.33-.5c.2-.32.32-.43.61-.43s.41.09.62.43l.32.5c0,.08.07.13,0,.16S114,47.28,113.94,47.28Zm-.82-.73h0c.07,0,.14.07.21.19l.2.33a.31.31,0,0,0,.34.19h.07c.1,0,.14,0,.16,0s0-.08-.06-.15l-.32-.51c-.2-.33-.32-.41-.6-.41s-.39.1-.6.41l-.32.51c0,.07-.06.12,0,.14s.06,0,.15,0h.08a.32.32,0,0,0,.34-.19l.19-.33C113,46.62,113.05,46.55,113.12,46.55Z"/>
<path class="cls-3" d="M115.81,49.46c0-1.12.61-1.77,1.91-1.77a2.47,2.47,0,0,1,.75.11c.2.07.26.13.26.33v.08c0,.22-.06.28-.26.21a2.13,2.13,0,0,0-.74-.12c-1,0-1.28.37-1.28,1.17v.83c0,.86.39,1.17,1.34,1.17a2.35,2.35,0,0,0,.77-.11c.19-.07.25,0,.25.21v.09c0,.18-.06.25-.27.31a2.81,2.81,0,0,1-.8.11c-1.31,0-1.93-.57-1.93-1.77Z"/>
<path class="cls-3" d="M117.74,52.09a2.11,2.11,0,0,1-1.46-.44,1.71,1.71,0,0,1-.48-1.34v-.85a1.75,1.75,0,0,1,.47-1.31,2,2,0,0,1,1.45-.47,2.47,2.47,0,0,1,.75.11c.21.07.27.14.27.34v.08c0,.13,0,.19-.07.22s-.1,0-.2,0a2.21,2.21,0,0,0-.74-.12c-.9,0-1.27.33-1.27,1.16v.83c0,.85.36,1.16,1.33,1.16a2.44,2.44,0,0,0,.76-.11c.1,0,.16,0,.2,0s.07.1.07.22v.09c0,.18-.06.26-.28.31A2.49,2.49,0,0,1,117.74,52.09Zm0-4.39c-1.24,0-1.9.61-1.9,1.76v.85c0,1.2.61,1.76,1.92,1.76a2.81,2.81,0,0,0,.8-.11c.2-.06.26-.12.26-.3v-.09c0-.12,0-.18-.06-.21s-.09,0-.18,0a2.55,2.55,0,0,1-.77.11c-1,0-1.35-.33-1.35-1.18v-.83c0-.84.38-1.18,1.29-1.18a2.17,2.17,0,0,1,.74.12c.1,0,.16,0,.19,0s.06-.09.06-.21v-.08c0-.19,0-.25-.25-.32A2.47,2.47,0,0,0,117.72,47.7Z"/>
<path class="cls-3" d="M121.64,51.53c0-.21.07-.27.27-.22a4.85,4.85,0,0,0,1.26.17c.66,0,.93-.12.93-.49s-.14-.42-.55-.61l-1-.5c-.54-.27-.79-.52-.79-1.11,0-.74.48-1.08,1.51-1.08a3.17,3.17,0,0,1,1.07.16c.21.07.26.12.26.32v.08c0,.21-.08.26-.28.2a3.38,3.38,0,0,0-1.07-.16c-.62,0-.86.14-.86.48a.63.63,0,0,0,.45.56l1.09.5c.58.27.86.54.86,1.14,0,.77-.52,1.11-1.62,1.11a4.26,4.26,0,0,1-1.21-.17c-.21,0-.27-.13-.27-.31Z"/>
<path class="cls-3" d="M123.12,52.09a4.48,4.48,0,0,1-1.21-.17c-.21-.06-.28-.13-.28-.32v-.07c0-.11,0-.18.07-.21s.1,0,.22,0a4.83,4.83,0,0,0,1.25.17c.67,0,.92-.13.92-.48s-.13-.4-.55-.61l-1-.49a1.12,1.12,0,0,1-.8-1.12c0-.74.48-1.09,1.52-1.09a3.44,3.44,0,0,1,1.07.16c.21.07.27.13.27.33v.08c0,.11,0,.17-.07.21s-.11,0-.22,0a3.29,3.29,0,0,0-1.07-.16c-.61,0-.85.13-.85.47s.15.42.45.55l1.09.5c.55.27.86.53.86,1.15S124.23,52.09,123.12,52.09Zm-1.32-.79a.12.12,0,0,0-.09,0s-.06.09-.06.2v.07c0,.18.06.25.27.31a4.76,4.76,0,0,0,1.2.16c1.11,0,1.61-.34,1.61-1.1s-.3-.87-.85-1.13l-1.09-.5c-.3-.14-.46-.33-.46-.57s.25-.49.87-.49a3.71,3.71,0,0,1,1.08.16c.1,0,.16,0,.2,0s.06-.09.06-.19v-.08c0-.19-.05-.24-.25-.31a3.21,3.21,0,0,0-1.07-.16c-1,0-1.5.34-1.5,1.07s.26.85.79,1.1l1,.5c.42.2.56.35.56.62s-.25.5-.94.5a5,5,0,0,1-1.26-.17Z"/>
<path class="cls-3" d="M125.56,50.28v-.79c0-1.2.63-1.8,1.88-1.8s1.87.62,1.87,1.8v.79c0,1.2-.62,1.8-1.87,1.8S125.56,51.45,125.56,50.28Zm3.11-.79c0-.83-.3-1.19-1.23-1.19s-1.24.36-1.24,1.19v.79c0,.82.31,1.19,1.24,1.19s1.23-.37,1.23-1.19Zm-1.83-2.92c.2-.31.32-.42.6-.42s.4.09.61.42l.32.51c.11.15.07.19-.11.19h-.07a.34.34,0,0,1-.35-.19l-.19-.34c-.14-.24-.27-.24-.41,0l-.19.34a.32.32,0,0,1-.35.19h-.08c-.18,0-.2-.05-.11-.19Zm2.18-.51a.41.41,0,0,1-.37.2h-.09c-.19,0-.22,0-.12-.21l.35-.69a.39.39,0,0,1,.43-.26h.09c.23,0,.26,0,.13.25Z"/>
<path class="cls-3" d="M127.44,52.09c-1.29,0-1.88-.58-1.88-1.81v-.79a1.78,1.78,0,0,1,.47-1.36,2,2,0,0,1,1.41-.45c1.28,0,1.88.58,1.88,1.81v.79A1.64,1.64,0,0,1,127.44,52.09Zm0-4.39a2,2,0,0,0-1.4.45,1.76,1.76,0,0,0-.47,1.34v.79c0,1.22.6,1.79,1.87,1.79a1.9,1.9,0,0,0,1.39-.45,1.76,1.76,0,0,0,.47-1.34v-.79C129.3,48.27,128.71,47.7,127.44,47.7Zm0,3.78c-.9,0-1.25-.34-1.25-1.2v-.79c0-.88.34-1.2,1.25-1.2s1.24.32,1.24,1.2v.79C128.68,51.16,128.34,51.48,127.44,51.48Zm0-3.17c-.89,0-1.23.32-1.23,1.18v.79c0,.85.35,1.18,1.23,1.18s1.22-.32,1.22-1.18v-.79C128.66,48.63,128.33,48.31,127.44,48.31Zm.83-1h-.08a.33.33,0,0,1-.35-.2l-.2-.33q-.19-.36-.39,0l-.19.33a.34.34,0,0,1-.36.2h-.08c-.09,0-.14,0-.16-.05s0-.08.05-.16l.32-.5c.2-.32.33-.43.61-.43s.41.09.62.43l.32.5c.06.08.07.13.06.16S128.37,47.28,128.27,47.28Zm-.83-.73c.08,0,.15.07.22.19l.19.33a.31.31,0,0,0,.34.19h.08q.14,0,.15,0s0-.08,0-.15l-.33-.51c-.2-.33-.32-.41-.6-.41s-.39.1-.59.41l-.33.51c0,.07-.06.12,0,.14s.07,0,.15,0h.08a.32.32,0,0,0,.34-.19l.19-.33C127.3,46.62,127.37,46.55,127.44,46.55Zm1.21-.28h-.09c-.11,0-.16,0-.18-.05s0-.08.05-.17l.36-.7a.4.4,0,0,1,.43-.26h.09c.13,0,.19,0,.21.06s0,.1-.07.2l-.42.71A.43.43,0,0,1,128.65,46.27Zm.57-1.16a.39.39,0,0,0-.42.25l-.36.69c-.05.09-.06.14,0,.17s.06,0,.16,0h.09a.39.39,0,0,0,.36-.2l.42-.7c.07-.1.09-.16.07-.19s-.07,0-.19,0Z"/>
<path class="cls-3" d="M130.86,51.72c0,.23-.05.27-.28.27h-.09c-.22,0-.28,0-.28-.27V49.29c0-1.07.6-1.6,1.79-1.6s1.78.57,1.78,1.6v2.43c0,.23,0,.27-.28.27h-.1c-.23,0-.27,0-.27-.27V49.29c0-.68-.26-1-1.13-1s-1.14.31-1.14,1Z"/>
<path class="cls-3" d="M133.5,52h-.1c-.23,0-.28,0-.28-.28V49.29c0-.72-.3-1-1.12-1s-1.13.27-1.13,1v2.43c0,.23-.05.28-.29.28h-.09c-.21,0-.29,0-.29-.28V49.29c0-1.07.61-1.61,1.8-1.61a1.94,1.94,0,0,1,1.37.42,1.54,1.54,0,0,1,.42,1.19v2.43C133.79,52,133.74,52,133.5,52ZM132,48.29c.83,0,1.14.27,1.14,1v2.43c0,.22,0,.26.26.26h.1c.23,0,.27,0,.27-.26V49.29a1.53,1.53,0,0,0-.41-1.18,2.44,2.44,0,0,0-2.69,0,1.5,1.5,0,0,0-.45,1.19v2.43c0,.23.06.26.27.26h.09c.23,0,.27,0,.27-.26V49.29C130.85,48.57,131.17,48.29,132,48.29Z"/>
<path class="cls-3" d="M138.22,49.27c0,1-.59,1.49-1.77,1.49a4.1,4.1,0,0,0-.91.07.26.26,0,0,0-.2.26c0,.12.07.19.21.23a4.27,4.27,0,0,0,.9.06,2.79,2.79,0,0,1,1.46.26,1,1,0,0,1,.41.91,1.13,1.13,0,0,1-.42,1,2.67,2.67,0,0,1-1.45.29,2.77,2.77,0,0,1-1.48-.29,1,1,0,0,1-.4-.9,1,1,0,0,1,.48-.92.58.58,0,0,1-.35-.56c0-.38.23-.6.69-.67a1.21,1.21,0,0,1-.72-1.25v-.1c0-.93.66-1.48,1.78-1.48a2.19,2.19,0,0,1,.88.17l.49-.43c.14-.13.21-.13.35,0l.06.06c.14.12.14.19,0,.33l-.39.39a1.24,1.24,0,0,1,.38,1Zm-2.61,2.63a.73.73,0,0,0-.4.7c0,.55.32.7,1.24.7s1.23-.15,1.23-.73-.31-.63-1.23-.63A8.06,8.06,0,0,1,135.61,51.9Zm2-2.73c0-.61-.38-.91-1.12-.91s-1.14.3-1.14.91v.1c0,.62.28.93,1.14.93s1.12-.31,1.12-.93Z"/>
<path class="cls-3" d="M136.45,53.87a2.62,2.62,0,0,1-1.48-.3,1,1,0,0,1-.41-.9,1,1,0,0,1,.47-.92.59.59,0,0,1-.34-.56c0-.37.23-.6.67-.67a1.23,1.23,0,0,1-.7-1.25v-.1a1.39,1.39,0,0,1,.48-1.1,2,2,0,0,1,1.31-.39,2.23,2.23,0,0,1,.88.17l.48-.43c.15-.13.22-.13.37,0l0,.06c.08.07.11.12.11.17s0,.1-.11.18l-.37.38a1.25,1.25,0,0,1,.37,1v.1c0,1-.6,1.5-1.78,1.5a3.46,3.46,0,0,0-.9.07.24.24,0,0,0-.2.25c0,.11.06.18.21.23a5.23,5.23,0,0,0,.89,0,2.83,2.83,0,0,1,1.47.26,1,1,0,0,1,.41.92,1.14,1.14,0,0,1-.42,1A2.58,2.58,0,0,1,136.45,53.87Zm0-6.17c-1.11,0-1.77.55-1.77,1.47v.1a1.2,1.2,0,0,0,.71,1.24l0,0h0c-.46.07-.68.28-.68.66a.56.56,0,0,0,.34.55h0a1,1,0,0,0-.47.91,1,1,0,0,0,.4.89,2.68,2.68,0,0,0,1.47.29,2.65,2.65,0,0,0,1.45-.29,1.14,1.14,0,0,0,.41-1,1,1,0,0,0-.4-.9,2.79,2.79,0,0,0-1.46-.26,4.2,4.2,0,0,1-.9-.06c-.15,0-.22-.12-.22-.24a.26.26,0,0,1,.21-.27,4.17,4.17,0,0,1,.91-.07,2,2,0,0,0,1.32-.37,1.37,1.37,0,0,0,.44-1.11v-.1a1.21,1.21,0,0,0-.37-1h0l.38-.4c.07-.07.1-.12.1-.16s0-.09-.1-.16l-.06-.06c-.13-.12-.19-.12-.33,0l-.5.44h0A2.23,2.23,0,0,0,136.45,47.7Zm0,5.61c-1,0-1.25-.17-1.25-.71a.72.72,0,0,1,.41-.71h0a6.18,6.18,0,0,0,.83,0c.91,0,1.24.1,1.24.64S137.39,53.31,136.45,53.31Zm-.83-1.4a.69.69,0,0,0-.4.69c0,.53.29.69,1.23.69s1.22-.17,1.22-.72-.3-.62-1.22-.62A6.18,6.18,0,0,1,135.62,51.91Zm.83-1.7c-.81,0-1.15-.27-1.15-.94v-.1c0-.62.38-.91,1.15-.91s1.13.3,1.13.91v.1C137.58,49.94,137.26,50.21,136.45,50.21Zm0-1.94c-.76,0-1.13.3-1.13.9v.1c0,.65.33.92,1.13.92s1.11-.26,1.11-.92v-.1C137.56,48.58,137.19,48.27,136.45,48.27Z"/>
<path class="cls-3" d="M145.77,47.06c0,.18-.06.24-.24.24H145v3c0,1.19-.62,1.79-1.87,1.79s-1.87-.6-1.87-1.79v-.8a1.58,1.58,0,0,1,1.77-1.8,1.4,1.4,0,0,1,1.33.62v-1h-1.16c-.2,0-.24-.06-.24-.24V47c0-.18,0-.24.24-.24h1.16v-.47c0-.23,0-.27.27-.27h.1c.21,0,.27,0,.27.27v.47h.51c.18,0,.24.06.24.24Zm-3.85,3.22c0,.82.28,1.19,1.23,1.19s1.23-.37,1.23-1.19v-.79c0-.83-.3-1.19-1.23-1.19s-1.23.36-1.23,1.19Z"/>
<path class="cls-3" d="M143.15,52.09a2,2,0,0,1-1.43-.45,1.82,1.82,0,0,1-.45-1.35v-.8a1.92,1.92,0,0,1,.44-1.36,1.82,1.82,0,0,1,1.34-.45,1.4,1.4,0,0,1,1.32.6v-1h-1.15c-.2,0-.25-.06-.25-.25V47c0-.19.05-.25.25-.25h1.15v-.46c0-.24,0-.28.28-.28h.1c.21,0,.28,0,.28.28v.46h.5c.19,0,.25.07.25.25v.07c0,.18-.06.25-.25.25H145v3C145,51.48,144.4,52.09,143.15,52.09Zm-.1-4.39a1.76,1.76,0,0,0-1.32.45,1.81,1.81,0,0,0-.44,1.34v.8a1.73,1.73,0,0,0,.45,1.33,1.93,1.93,0,0,0,1.41.45,2,2,0,0,0,1.4-.45,1.75,1.75,0,0,0,.46-1.33v-3h.52c.18,0,.24-.06.24-.23V47c0-.18-.06-.23-.24-.23H145v-.48c0-.23-.06-.26-.26-.26h-.1c-.22,0-.26,0-.26.26v.48h-1.17c-.2,0-.23.06-.23.23v.07c0,.17,0,.23.23.23h1.17v1.06l0,0A1.37,1.37,0,0,0,143.05,47.7Zm.1,3.78c-.91,0-1.24-.32-1.24-1.2v-.79c0-.87.35-1.2,1.24-1.2s1.24.33,1.24,1.2v.79C144.39,51.14,144,51.48,143.15,51.48Zm0-3.17c-.88,0-1.22.33-1.22,1.18v.79c0,.86.33,1.18,1.22,1.18s1.22-.32,1.22-1.18v-.79C144.37,48.63,144,48.31,143.15,48.31Z"/>
<path class="cls-3" d="M145.88,50.28v-.79c0-1.2.63-1.8,1.88-1.8,1,0,1.49.32,1.73.93.14-.06.26-.22.26-.68,0-.13.05-.16.19-.16h.15c.14,0,.18,0,.18.16,0,.69-.28,1-.67,1.15a2.41,2.41,0,0,1,0,.4v.79a1.63,1.63,0,0,1-1.87,1.8C146.43,52.08,145.88,51.45,145.88,50.28Zm3.11-.79c0-.83-.3-1.19-1.23-1.19s-1.24.36-1.24,1.19v.79c0,.82.31,1.19,1.24,1.19S149,51.1,149,50.28Z"/>
<path class="cls-3" d="M147.76,52.09c-1.29,0-1.89-.58-1.89-1.81v-.79a1.82,1.82,0,0,1,.47-1.36,2,2,0,0,1,1.42-.45c.93,0,1.48.3,1.74.93.16-.08.24-.3.24-.67,0-.13,0-.17.2-.17h.15c.15,0,.19,0,.19.17,0,.62-.23,1-.67,1.15a2.55,2.55,0,0,1,0,.4v.79A1.63,1.63,0,0,1,147.76,52.09Zm0-4.39a2,2,0,0,0-1.4.45,1.76,1.76,0,0,0-.47,1.34v.79c0,1.22.6,1.79,1.87,1.79a1.9,1.9,0,0,0,1.39-.45,1.76,1.76,0,0,0,.47-1.34v-.79a2.41,2.41,0,0,0,0-.4h0q.66-.21.66-1.14c0-.12,0-.15-.17-.15h-.15c-.14,0-.18,0-.18.15,0,.39-.09.61-.27.69h0C149.23,48,148.69,47.7,147.76,47.7Zm0,3.78c-.9,0-1.25-.34-1.25-1.2v-.79c0-.88.34-1.2,1.25-1.2s1.24.32,1.24,1.2v.79C149,51.16,148.66,51.48,147.76,51.48Zm0-3.17c-.9,0-1.23.32-1.23,1.18v.79c0,.85.35,1.18,1.23,1.18s1.22-.32,1.22-1.18v-.79C149,48.63,148.65,48.31,147.76,48.31Z"/>
<path class="cls-3" d="M151.18,51.72c0,.23-.05.27-.28.27h-.09c-.22,0-.28,0-.28-.27V49.29c0-1.07.6-1.6,1.79-1.6s1.78.57,1.78,1.6v2.43c0,.23,0,.27-.28.27h-.1c-.23,0-.27,0-.27-.27V49.29c0-.68-.27-1-1.13-1s-1.14.31-1.14,1Z"/>
<path class="cls-3" d="M153.82,52h-.1c-.23,0-.28,0-.28-.28V49.29c0-.72-.31-1-1.12-1s-1.14.27-1.14,1v2.43c0,.23,0,.28-.28.28h-.09c-.22,0-.29,0-.29-.28V49.29c0-1.07.61-1.61,1.8-1.61a1.94,1.94,0,0,1,1.37.42,1.54,1.54,0,0,1,.42,1.19v2.43C154.11,52,154.06,52,153.82,52Zm-1.5-3.71c.83,0,1.14.27,1.14,1v2.43c0,.22,0,.26.26.26h.1c.23,0,.27,0,.27-.26V49.29a1.56,1.56,0,0,0-.41-1.18,2.44,2.44,0,0,0-2.69,0,1.5,1.5,0,0,0-.45,1.19v2.43c0,.23.06.26.27.26h.09c.23,0,.27,0,.27-.26V49.29C151.17,48.57,151.49,48.29,152.32,48.29Z"/>
<path class="cls-3" d="M160.82,49.27c0,1-.58,1.49-1.77,1.49a4,4,0,0,0-.9.07.26.26,0,0,0-.21.26c0,.12.07.19.22.23a4.09,4.09,0,0,0,.89.06,2.86,2.86,0,0,1,1.47.26,1,1,0,0,1,.41.91,1.16,1.16,0,0,1-.42,1,2.69,2.69,0,0,1-1.46.29,2.73,2.73,0,0,1-1.47-.29,1,1,0,0,1-.41-.9,1,1,0,0,1,.48-.92.58.58,0,0,1-.35-.56c0-.38.23-.6.7-.67a1.19,1.19,0,0,1-.72-1.25v-.1c0-.93.65-1.48,1.77-1.48a2.16,2.16,0,0,1,.88.17l.49-.43c.15-.13.21-.13.35,0l.06.06c.14.12.14.19,0,.33l-.38.39a1.24,1.24,0,0,1,.37,1Zm-2.6,2.63a.71.71,0,0,0-.4.7c0,.55.31.7,1.23.7s1.23-.15,1.23-.73-.31-.63-1.23-.63A8,8,0,0,1,158.22,51.9Zm2-2.73c0-.61-.38-.91-1.13-.91s-1.13.3-1.13.91v.1c0,.62.27.93,1.13.93s1.13-.31,1.13-.93Z"/>
<path class="cls-3" d="M159.05,53.87a2.64,2.64,0,0,1-1.48-.3,1,1,0,0,1-.41-.9,1,1,0,0,1,.48-.92.58.58,0,0,1-.35-.56c0-.37.23-.6.67-.67a1.22,1.22,0,0,1-.69-1.25v-.1a1.38,1.38,0,0,1,.47-1.1,2.06,2.06,0,0,1,1.31-.39,2.19,2.19,0,0,1,.88.17l.49-.43c.15-.13.22-.13.36,0l.06.06c.07.07.11.12.11.17s0,.1-.11.18l-.38.38a1.25,1.25,0,0,1,.37,1v.1c0,1-.6,1.5-1.78,1.5a3.51,3.51,0,0,0-.9.07.25.25,0,0,0-.2.25c0,.11.07.18.21.23a5.23,5.23,0,0,0,.89,0,2.83,2.83,0,0,1,1.47.26,1,1,0,0,1,.42.92,1.12,1.12,0,0,1-.43,1A2.58,2.58,0,0,1,159.05,53.87Zm0-6.17c-1.1,0-1.76.55-1.76,1.47v.1a1.2,1.2,0,0,0,.71,1.24l0,0h0c-.46.07-.69.28-.69.66a.57.57,0,0,0,.35.55h0a1,1,0,0,0-.48.91,1,1,0,0,0,.4.89,2.7,2.7,0,0,0,1.47.29,2.62,2.62,0,0,0,1.45-.29,1.15,1.15,0,0,0,.42-1,1,1,0,0,0-.41-.9,2.77,2.77,0,0,0-1.46-.26,4.09,4.09,0,0,1-.89-.06c-.15,0-.23-.12-.23-.24a.27.27,0,0,1,.22-.27,4,4,0,0,1,.9-.07,2,2,0,0,0,1.33-.37,1.37,1.37,0,0,0,.43-1.11v-.1a1.21,1.21,0,0,0-.37-1h0l.39-.4c.07-.07.1-.12.1-.16s0-.09-.1-.16l-.06-.06c-.14-.12-.2-.12-.34,0l-.49.44h0A2.19,2.19,0,0,0,159.05,47.7Zm0,5.61c-1,0-1.24-.17-1.24-.71a.72.72,0,0,1,.4-.71h0a6.28,6.28,0,0,0,.83,0c.92,0,1.24.1,1.24.64S159.88,53.31,159.05,53.31Zm-.83-1.4a.7.7,0,0,0-.4.69c0,.53.29.69,1.23.69s1.23-.17,1.23-.72S160,52,159.05,52A6.37,6.37,0,0,1,158.22,51.91Zm.83-1.7c-.81,0-1.14-.27-1.14-.94v-.1c0-.62.37-.91,1.14-.91s1.13.3,1.13.91v.1C160.18,49.94,159.87,50.21,159.05,50.21Zm0-1.94c-.76,0-1.12.3-1.12.9v.1c0,.65.32.92,1.12.92s1.12-.26,1.12-.92v-.1C160.17,48.58,159.79,48.27,159.05,48.27Z"/>
<path class="cls-3" d="M162.53,46.46a.41.41,0,0,1-.41.41.42.42,0,0,1-.43-.41.42.42,0,0,1,.43-.42A.41.41,0,0,1,162.53,46.46Zm-.74,1.59c0-.21,0-.27.28-.27h.09c.21,0,.27.06.27.27v3.67c0,.23-.06.27-.27.27h-.09c-.24,0-.28,0-.28-.27Z"/>
<path class="cls-3" d="M162.16,52h-.09c-.24,0-.28,0-.28-.28V48.05c0-.21,0-.28.28-.28h.09c.22,0,.28.06.28.28v3.67C162.44,52,162.37,52,162.16,52Zm-.09-4.21c-.23,0-.27.05-.27.26v3.67c0,.23,0,.26.27.26h.09c.2,0,.26,0,.26-.26V48.05c0-.21,0-.26-.26-.26Zm.05-.91a.42.42,0,0,1-.44-.42.43.43,0,0,1,.44-.43.42.42,0,0,1,.42.43A.42.42,0,0,1,162.12,46.88Zm0-.83a.41.41,0,0,0-.42.41.4.4,0,0,0,.42.4.39.39,0,0,0,.4-.4A.4.4,0,0,0,162.12,46.05Z"/>
<path class="cls-3" d="M166.75,50.73c0,.94-.56,1.35-1.79,1.35-1,0-1.61-.4-1.61-1.29s.59-1.24,1.75-1.24h1V49c0-.58-.4-.77-1.12-.77a4.19,4.19,0,0,0-1,.09c-.2,0-.27,0-.27-.21v-.07c0-.2.06-.25.26-.29a4.45,4.45,0,0,1,.93-.09c1.19,0,1.79.45,1.79,1.34Zm-.64-.68h-1c-.76,0-1.11.21-1.11.74s.31.73,1,.73,1.15-.18,1.15-.82Zm-1-2.75c-.16,0-.18-.06-.21-.16s.13-.35.39-.62a.34.34,0,0,0,.11-.2c0-.14-.07-.21-.16-.22a.8.8,0,0,0-.37.08.16.16,0,0,1-.23-.1l0-.06c0-.13,0-.18.12-.22a1.28,1.28,0,0,1,.51-.1.56.56,0,0,1,.6.62c0,.38-.5.53-.52.82a.2.2,0,0,1-.16.16Z"/>
<path class="cls-3" d="M165,52.09c-1.06,0-1.62-.45-1.62-1.3s.55-1.25,1.76-1.25h1V49c0-.54-.33-.77-1.11-.77a4.16,4.16,0,0,0-.94.1.29.29,0,0,1-.22,0c-.05,0-.07-.1-.07-.2v-.07c0-.2.05-.26.27-.3a4.31,4.31,0,0,1,.93-.09c1.19,0,1.8.46,1.8,1.35v1.7C166.76,51.67,166.2,52.09,165,52.09Zm.14-2.53c-1.2,0-1.74.38-1.74,1.23s.55,1.28,1.6,1.28a2.27,2.27,0,0,0,1.35-.32,1.18,1.18,0,0,0,.43-1V49a1.19,1.19,0,0,0-.44-1A2.26,2.26,0,0,0,165,47.7a5.2,5.2,0,0,0-.93.08c-.2,0-.25.1-.25.29v.07c0,.1,0,.16.06.19s.1,0,.2,0a4.38,4.38,0,0,1,1-.09c.79,0,1.13.23,1.13.78v.53Zm-.14,2c-.66,0-1-.24-1-.74s.33-.75,1.12-.75h1v.66C166.12,51.39,165.67,51.53,165,51.53Zm.15-1.47c-.77,0-1.1.22-1.1.73s.31.72,1,.72c.83,0,1.14-.22,1.14-.81v-.64Zm0-2.75c-.17,0-.19-.07-.22-.17s.08-.31.27-.5l.12-.13a.26.26,0,0,0,.11-.19.19.19,0,0,0-.15-.21h0a.84.84,0,0,0-.33.08.17.17,0,0,1-.24-.1l0-.07c-.05-.14,0-.19.13-.23a1.28,1.28,0,0,1,.51-.1.63.63,0,0,1,.45.17.61.61,0,0,1,.16.46.68.68,0,0,1-.29.48c-.12.11-.23.21-.24.34a.2.2,0,0,1-.16.17Zm.1-1.22h0c.08,0,.17.07.17.23a.33.33,0,0,1-.12.21l-.12.12c-.18.19-.28.29-.26.48s0,.16.2.16h0c.08,0,.15-.09.15-.15a.6.6,0,0,1,.23-.35.68.68,0,0,0,.29-.47.61.61,0,0,0-.16-.45.56.56,0,0,0-.43-.16,1.23,1.23,0,0,0-.5.1c-.1,0-.16.09-.12.2l0,.07a.15.15,0,0,0,.22.09A.89.89,0,0,1,165.21,46.09Z"/>
<path class="cls-3" d="M168.3,51.72c0,.23,0,.27-.28.27h-.09c-.21,0-.27,0-.27-.27V49.29c0-1.07.6-1.6,1.78-1.6s1.78.57,1.78,1.6v2.43c0,.23,0,.27-.27.27h-.1c-.23,0-.28,0-.28-.27V49.29c0-.68-.26-1-1.13-1s-1.14.31-1.14,1Z"/>
<path class="cls-3" d="M171,52h-.1c-.24,0-.29,0-.29-.28V49.29c0-.72-.3-1-1.12-1s-1.13.27-1.13,1v2.43c0,.23-.05.28-.29.28h-.09c-.21,0-.28,0-.28-.28V49.29c0-1.07.6-1.61,1.79-1.61a1.9,1.9,0,0,1,1.37.42,1.54,1.54,0,0,1,.42,1.19v2.43C171.23,52,171.18,52,171,52Zm-1.51-3.71c.83,0,1.14.27,1.14,1v2.43c0,.22,0,.26.27.26h.1c.22,0,.26,0,.26-.26V49.29a1.53,1.53,0,0,0-.41-1.18,2.44,2.44,0,0,0-2.69,0,1.5,1.5,0,0,0-.45,1.19v2.43c0,.23.06.26.27.26H168c.23,0,.27,0,.27-.26V49.29C168.29,48.57,168.61,48.29,169.44,48.29Z"/>
<path class="cls-3" d="M174.59,46.28c0-.23.06-.27.27-.27h.1c.22,0,.27,0,.27.27v2a1.5,1.5,0,0,1,1.34-.58c1.05,0,1.58.5,1.58,1.5v2.53c0,.23,0,.27-.27.27h-.1c-.23,0-.28,0-.28-.27V49.26c0-.67-.3-1-1.09-1s-1.18.32-1.18,1.11v2.31c0,.23,0,.27-.27.27h-.1c-.21,0-.27,0-.27-.27Z"/>
<path class="cls-3" d="M177.88,52h-.1c-.24,0-.28,0-.28-.28V49.26c0-.68-.32-.95-1.09-.95s-1.17.33-1.17,1.1v2.31c0,.23-.05.28-.28.28h-.1c-.21,0-.28,0-.28-.28V46.28c0-.24.07-.28.28-.28h.1c.23,0,.28,0,.28.28v2a1.52,1.52,0,0,1,1.33-.56c1.06,0,1.59.51,1.59,1.51v2.53C178.16,52,178.11,52,177.88,52Zm-1.47-3.71c.78,0,1.1.28,1.1,1v2.46c0,.22,0,.26.27.26h.1c.22,0,.26,0,.26-.26V49.19c0-1-.52-1.49-1.57-1.49a1.46,1.46,0,0,0-1.33.58l0,0v-2c0-.22,0-.26-.26-.26h-.1c-.21,0-.26,0-.26.26v5.44c0,.23.06.26.26.26h.1c.22,0,.26,0,.26-.26V49.41C175.22,48.62,175.58,48.29,176.41,48.29Z"/>
<path class="cls-3" d="M179.06,50.28v-.79c0-1.2.62-1.8,1.88-1.8.95,0,1.49.32,1.73.93.14-.06.26-.22.26-.68,0-.13,0-.16.19-.16h.15c.14,0,.18,0,.18.16,0,.69-.28,1-.67,1.15a2.41,2.41,0,0,1,0,.4v.79a1.63,1.63,0,0,1-1.87,1.8C179.61,52.08,179.06,51.45,179.06,50.28Zm3.11-.79c0-.83-.3-1.19-1.23-1.19s-1.24.36-1.24,1.19v.79c0,.82.31,1.19,1.24,1.19s1.23-.37,1.23-1.19Z"/>
<path class="cls-3" d="M180.94,52.09c-1.29,0-1.89-.58-1.89-1.81v-.79a1.82,1.82,0,0,1,.47-1.36,2,2,0,0,1,1.42-.45c.93,0,1.48.3,1.73.93.17-.08.25-.3.25-.67,0-.13.05-.17.2-.17h.15c.15,0,.19,0,.19.17,0,.62-.23,1-.67,1.15a2.61,2.61,0,0,1,0,.4v.79A1.63,1.63,0,0,1,180.94,52.09Zm0-4.39a2,2,0,0,0-1.4.45,1.76,1.76,0,0,0-.47,1.34v.79c0,1.22.6,1.79,1.87,1.79a1.9,1.9,0,0,0,1.39-.45,1.76,1.76,0,0,0,.47-1.34v-.79a2.5,2.5,0,0,0,0-.4h0q.66-.21.66-1.14c0-.12,0-.15-.17-.15h-.15c-.14,0-.18,0-.18.15,0,.39-.09.61-.27.69h0C182.41,48,181.87,47.7,180.94,47.7Zm0,3.78c-.9,0-1.25-.34-1.25-1.2v-.79c0-.88.34-1.2,1.25-1.2s1.24.32,1.24,1.2v.79C182.18,51.16,181.84,51.48,180.94,51.48Zm0-3.17c-.9,0-1.23.32-1.23,1.18v.79c0,.85.35,1.18,1.23,1.18s1.22-.32,1.22-1.18v-.79C182.16,48.63,181.83,48.31,180.94,48.31Z"/>
<path class="cls-3" d="M184.36,51.72c0,.23-.05.27-.28.27H184c-.22,0-.28,0-.28-.27V49.29c0-1.07.6-1.6,1.79-1.6s1.78.57,1.78,1.6v2.43c0,.23,0,.27-.28.27h-.1c-.23,0-.27,0-.27-.27V49.29c0-.68-.27-1-1.13-1s-1.14.31-1.14,1Z"/>
<path class="cls-3" d="M187,52h-.1c-.23,0-.28,0-.28-.28V49.29c0-.72-.31-1-1.12-1s-1.14.27-1.14,1v2.43c0,.23,0,.28-.28.28H184c-.22,0-.29,0-.29-.28V49.29c0-1.07.61-1.61,1.8-1.61a1.94,1.94,0,0,1,1.37.42,1.54,1.54,0,0,1,.42,1.19v2.43C187.29,52,187.24,52,187,52Zm-1.5-3.71c.83,0,1.14.27,1.14,1v2.43c0,.22,0,.26.26.26h.1c.23,0,.27,0,.27-.26V49.29a1.56,1.56,0,0,0-.41-1.18,2.44,2.44,0,0,0-2.69,0,1.5,1.5,0,0,0-.45,1.19v2.43c0,.23.06.26.27.26h.09c.23,0,.27,0,.27-.26V49.29C184.35,48.57,184.67,48.29,185.5,48.29Z"/></svg>
