<svg width="24" height="24" viewBox="0 0 24 24" fill="currentColor" xmlns="http://www.w3.org/2000/svg">
<path d="M5.94375 11.6391C7.80469 8.89219 9.59531 7.28906 9.59531 7.28906C9.59531 7.28906 7.62188 4.99687 5.24531 4.12969L5.09062 4.09219C2.89219 6.01875 1.5 8.84531 1.5 12C1.5 14.3766 2.29219 16.5703 3.61875 18.3281C3.61875 18.1219 3.64688 15.0328 5.94375 11.6391V11.6391ZM22.5 12C22.5 8.84531 21.1078 6.01875 18.9094 4.09219L18.7594 4.13437C16.3828 5.00156 14.4047 7.29375 14.4047 7.29375C14.4047 7.29375 16.1953 8.89687 18.0563 11.6437C20.3531 15.0375 20.3813 18.1266 20.3766 18.3328C21.7125 16.5703 22.5 14.3766 22.5 12ZM9.43125 3.79219C10.8047 4.40625 11.9906 5.41406 11.9906 5.41406C11.9906 5.41406 13.1859 4.41094 14.5594 3.79219C16.2844 3.01875 17.6016 3.2625 17.9484 3.34688C16.2562 2.18438 14.2078 1.5 12 1.5C9.79219 1.5 7.74375 2.18438 6.05156 3.34688C6.38906 3.2625 7.70156 3.01406 9.43125 3.79219ZM16.8141 13.7297C14.6438 11.0625 11.9906 9.32812 11.9906 9.32812C11.9906 9.32812 9.35156 11.0625 7.17656 13.7297C5.31094 16.0219 4.61719 17.7047 4.24219 18.7828L4.18125 19.0078C6.10312 21.15 8.89219 22.5 12 22.5C15.1078 22.5 17.8969 21.15 19.8187 19.0078L19.7531 18.7828C19.3781 17.7047 18.6797 16.0219 16.8141 13.7297V13.7297Z" fill="currentColor"/>
</svg>
