<svg width="24" height="25" viewBox="0 0 24 25" fill="none" xmlns="http://www.w3.org/2000/svg">
<path d="M13.8642 12.3261L11.0847 11.0292C10.8421 10.9165 10.6429 11.0428 10.6429 11.3113V13.7542C10.6429 14.0228 10.8421 14.149 11.0847 14.0364L13.863 12.7394C14.1068 12.6256 14.1068 12.44 13.8642 12.3261ZM11.8804 0.652344C5.31897 0.652344 0 5.97131 0 12.5328C0 19.0942 5.31897 24.4132 11.8804 24.4132C18.4419 24.4132 23.7609 19.0942 23.7609 12.5328C23.7609 5.97131 18.4419 0.652344 11.8804 0.652344ZM11.8804 17.3592C5.79914 17.3592 5.69271 16.811 5.69271 12.5328C5.69271 8.25458 5.79914 7.70635 11.8804 7.70635C17.9617 7.70635 18.0682 8.25458 18.0682 12.5328C18.0682 16.811 17.9617 17.3592 11.8804 17.3592Z" fill="#EB2020"/>
</svg>
